<?xml version="1.0" encoding="UTF-8" standalone="no"?>
<!-- Created with Inkscape (http://www.inkscape.org/) -->

<svg
   width="250"
   height="500"
   viewBox="0 0 66.145835 132.29166"
   version="1.1"
   id="svg932"
   inkscape:version="1.1 (c68e22c387, 2021-05-23)"
   sodipodi:docname="guilty1.svg"
   xmlns:inkscape="http://www.inkscape.org/namespaces/inkscape"
   xmlns:sodipodi="http://sodipodi.sourceforge.net/DTD/sodipodi-0.dtd"
   xmlns="http://www.w3.org/2000/svg"
   xmlns:svg="http://www.w3.org/2000/svg">
  <sodipodi:namedview
     id="namedview934"
     pagecolor="#ffffff"
     bordercolor="#666666"
     borderopacity="1.0"
     inkscape:pageshadow="2"
     inkscape:pageopacity="0.0"
     inkscape:pagecheckerboard="0"
     inkscape:document-units="mm"
     showgrid="false"
     inkscape:zoom="6.4305123"
     inkscape:cx="79.853669"
     inkscape:cy="76.665742"
     inkscape:window-width="1526"
     inkscape:window-height="1020"
     inkscape:window-x="402"
     inkscape:window-y="30"
     inkscape:window-maximized="0"
     inkscape:current-layer="layer4"
     inkscape:snap-nodes="false"
     inkscape:snap-others="false"
     inkscape:snap-global="false"
     height="200mm"
     units="px"
     width="100px" />
  <defs
     id="defs929" />
  <g
     inkscape:groupmode="layer"
     id="layer4"
     inkscape:label="guilty1"
     style="display:inline">
    <path
       id="path54042"
       style="opacity:1;fill:#a8d6cd;fill-opacity:1;stroke:none;stroke-width:0.120957;stroke-linecap:round;stroke-dashoffset:2.38337;paint-order:markers stroke fill"
       d="m 31.944304,38.312388 c -0.603019,-0.02511 -1.199374,0.346552 -1.408914,0.918557 -0.267126,0.646827 -0.295436,1.365184 -0.248965,2.054701 0.02134,0.305089 0.275561,0.597382 0.593881,0.581081 0.382366,-0.0065 0.652928,-0.335741 0.905867,-0.58501 0.192263,-0.215005 0.355661,-0.459023 0.459404,-0.729154 0.187886,0.281752 0.59073,0.454514 0.891419,0.24598 0.282911,-0.192365 0.394782,-0.555646 0.452789,-0.877747 0.103447,-0.697556 -0.448461,-1.344216 -1.099362,-1.522683 -0.176279,-0.05606 -0.361347,-0.08345 -0.546119,-0.08573 z" />
    <path
       id="path54081"
       style="opacity:1;fill:#a8d6cd;fill-opacity:1;stroke:none;stroke-width:0.120957;stroke-linecap:round;stroke-dashoffset:2.38337;paint-order:markers stroke fill"
       d="m 35.656221,38.556819 c -0.559785,0.06355 -1.144588,0.297455 -1.488798,0.762227 -0.273825,0.359093 -0.270494,0.942057 0.120407,1.21698 0.395986,0.266041 0.939678,0.275603 1.362707,0.06821 0.142881,0.405416 0.621554,0.700117 1.03663,0.511599 0.540171,-0.226936 0.694171,-0.93884 0.461986,-1.439707 -0.243575,-0.587102 -0.820142,-1.14568 -1.492932,-1.119311 z" />
    <path
       id="path56031"
       style="opacity:1;fill:#f9d349;fill-opacity:1;stroke:none;stroke-width:0.684239;stroke-linecap:round;stroke-dashoffset:2.38337;paint-order:markers stroke fill"
       d="m 41.839824,25.888342 c -0.670084,-0.0037 -1.35545,0.06513 -1.965079,0.363971 -0.780253,0.367778 -1.572898,0.74264 -2.24862,1.286057 -0.359769,0.365128 -0.459012,0.896191 -0.59505,1.37219 -0.173389,0.793134 -0.28792,1.606524 -0.609095,2.35889 -0.398954,1.018691 -1.137523,1.983028 -2.20464,2.346939 -0.964893,0.332938 -2.032495,0.211468 -2.982381,-0.110503 -0.52233,-0.300689 -0.960908,-0.748345 -1.283816,-1.255141 -0.122936,-0.291034 -0.236633,-0.629013 -0.548368,-0.771488 -0.419962,-0.215326 -0.895797,0.04726 -1.168884,0.377497 -0.613177,0.722704 -1.00706,1.598676 -1.396672,2.454492 -1.041012,2.400019 -1.494007,4.996579 -1.924912,7.561251 -0.199779,1.316287 -0.434975,2.630073 -0.539257,3.958373 -0.03758,0.502431 0.01157,1.073833 0.412584,1.430364 0.473604,0.450409 1.066769,0.791046 1.703706,0.944608 0.353806,0.09247 0.788201,-0.0239 0.939008,-0.384831 0.243224,-0.565343 0.256964,-1.19584 0.317093,-1.800278 0.01514,-0.183491 0.02371,-0.367414 0.03529,-0.551156 -0.06593,2.366989 -0.209503,4.758176 -0.430821,7.126149 -0.216263,2.254846 -0.454316,4.534771 -0.881028,6.772386 -0.150138,0.80657 -0.420756,1.604741 -0.403215,2.432736 0.05915,0.489196 0.536072,0.76242 0.921502,0.990666 1.216384,0.65287 2.539187,1.080418 3.863422,1.455168 1.090607,0.291979 2.20283,0.539787 3.336631,0.55888 2.022549,0.06099 4.049995,-0.01126 6.06339,-0.21208 1.515951,-0.137033 2.974115,-0.618516 4.382661,-1.173607 1.497338,-0.616315 2.972975,-1.332523 4.264525,-2.319178 0.320498,-0.255739 0.634265,-0.519856 0.951352,-0.779831 -0.444034,-1.978863 -0.887031,-3.958587 -1.425202,-5.914437 -0.577813,-2.142032 -1.157356,-4.285059 -1.829009,-6.399848 -0.124142,-0.341325 -0.198477,-0.769974 -0.566745,-0.935553 -0.701585,-0.361857 -1.55134,-0.251949 -2.235711,-0.663228 -0.331123,-0.172988 -0.575723,-0.47996 -0.675569,-0.839428 -0.617368,-1.662271 -1.143825,-3.360002 -1.673968,-5.03958 -0.392314,-1.279974 -0.79438,-2.55811 -1.121897,-3.856611 0.64139,1.288513 1.080879,2.664433 1.554954,4.020161 0.370919,1.094227 0.740701,2.188842 1.111033,3.283267 0.860353,0.0065 1.726316,0.02169 2.575835,-0.138445 1.874261,-0.320204 3.695692,-0.913101 5.441569,-1.659628 0.940903,-0.424564 1.900158,-0.867744 2.677406,-1.560727 0.345427,-0.307449 0.626589,-0.794346 0.442333,-1.262007 -0.338672,-0.997768 -0.818258,-1.940886 -1.271341,-2.890195 -1.134655,-2.324438 -2.420864,-4.583382 -3.9535,-6.670042 -0.938194,-1.237816 -1.981541,-2.456246 -3.348151,-3.234068 -0.652,-0.357558 -1.366554,-0.634679 -2.118818,-0.651972 -0.530225,-0.02943 -1.06173,-0.02198 -1.592548,-0.02018 z m -9.586497,12.344465 c 0.63024,0.03548 1.11044,0.580909 1.750282,0.553971 0.511453,-0.03686 0.947873,-0.373689 1.465043,-0.395396 0.5549,-0.0704 1.19039,0.102844 1.486199,0.613471 0.334494,0.551799 0.357958,1.213417 0.514752,1.82294 0.261189,0.822603 0.734293,1.550657 1.131811,2.309397 0.441314,0.891979 0.703363,1.976183 0.29377,2.928522 -0.428535,0.982345 -1.410026,1.571559 -2.374086,1.935805 -0.799986,0.310986 -1.67682,0.304385 -2.522288,0.303668 -0.740815,-2.12e-4 -1.477857,-0.224652 -2.077561,-0.663435 -0.92456,-0.66171 -1.736167,-1.466186 -2.536759,-2.269786 -0.09365,-0.111421 -0.229997,-0.217882 -0.292209,-0.336987 0.418153,-0.699733 1.109496,-1.25413 1.293347,-2.080291 0.211659,-0.933122 -0.270333,-1.849816 -0.150064,-2.787526 0.06883,-0.721524 0.498875,-1.414354 1.13056,-1.773722 0.271515,-0.141618 0.583723,-0.191899 0.887203,-0.160631 z m 12.129492,18.268138 c -0.31106,1.352039 -0.626398,2.715537 -1.177705,3.993552 -0.09903,0.228695 -0.126392,0.242305 -0.04959,-0.0077 0.370028,-1.373532 0.797047,-2.726338 1.239377,-4.066112 0.03911,-0.129735 -0.01111,0.06356 -0.01208,0.08029 z" />
    <path
       id="path57318"
       style="opacity:1;fill:#dbb200;fill-opacity:1;stroke:none;stroke-width:0.241915;stroke-linecap:round;stroke-dashoffset:2.38337;paint-order:markers stroke fill"
       d="m 35.272265,40.996465 c -0.321432,-0.0083 -0.595151,0.249899 -0.638204,0.563271 -0.1178,0.733904 -0.06916,1.482529 -0.06688,2.222926 0.03714,1.061445 0.04682,2.130743 0.225277,3.180226 0.05518,0.41376 0.292984,0.824227 0.704847,0.964655 0.6554,0.247274 1.351166,-0.09348 1.861423,-0.50059 0.749872,-0.608549 1.455132,-1.408617 1.578261,-2.403284 0.109421,-0.973865 -0.337608,-1.940277 -0.994757,-2.638986 -0.590232,-0.669065 -1.39133,-1.147289 -2.25866,-1.352971 -0.134586,-0.02928 -0.27377,-0.03856 -0.411311,-0.03525 z m 1.3193,2.361612 c 0.01051,0.203333 0.01372,0.407369 0.0047,0.610815 -0.03877,-0.212863 -0.06663,-0.438317 -0.0088,-0.650089 l 0.0028,0.02631 z" />
    <path
       id="path57357"
       style="opacity:1;fill:#dbb200;fill-opacity:1;stroke:none;stroke-width:0.241915;stroke-linecap:round;stroke-dashoffset:2.38337;paint-order:markers stroke fill"
       d="m 31.794442,41.970047 c -0.642745,0.693888 -1.34029,1.388247 -1.697572,2.281515 -0.180494,0.429011 -0.0022,0.885333 0.194381,1.273503 0.356354,0.678794 0.756304,1.37042 1.367798,1.851372 0.159076,0.113842 0.355198,0.148608 0.539822,0.08003 0.301566,-0.107259 0.418361,-0.457086 0.428529,-0.754914 0.07451,-1.157743 0.05073,-2.319623 0.07321,-3.479218 0.0076,-0.747644 0.01528,-1.495285 0.02297,-2.242928 -0.309716,0.330213 -0.619429,0.660426 -0.929142,0.990637 z" />
    <path
       id="path58254"
       style="opacity:1;fill:#f9cfbc;fill-opacity:1;stroke:none;stroke-width:0.241915;stroke-linecap:round;stroke-dashoffset:2.38337;paint-order:markers stroke fill"
       d="m 33.061031,28.747082 c -0.565261,0.03738 -1.060146,0.400349 -1.422135,0.814422 -0.233339,0.262808 -0.304501,0.667731 -0.0978,0.967515 0.257516,0.402352 0.669406,0.828527 1.189286,0.774851 0.520803,-0.06949 0.791802,-0.587182 0.969888,-1.025615 0.18324,-0.422648 0.260911,-0.985219 -0.09453,-1.342163 -0.142217,-0.14238 -0.346015,-0.205192 -0.544701,-0.18901 z" />
    <path
       id="path58293"
       style="opacity:1;fill:#f9cfbc;fill-opacity:1;stroke:none;stroke-width:0.241915;stroke-linecap:round;stroke-dashoffset:2.38337;paint-order:markers stroke fill"
       d="m 13.882873,37.070606 c -0.411537,0.01472 -0.657622,0.417894 -0.718819,0.78703 -0.110332,0.52015 -0.148527,1.051666 -0.220658,1.577684 C 12.133209,39.353098 11.361868,39.064273 10.58465,38.83616 9.5600939,38.519536 8.552781,38.143526 7.5117385,37.871839 7.1396232,37.7773 6.6418541,37.765056 6.4187297,38.13979 c -0.2163022,0.408734 0.057166,0.868381 0.3307291,1.175123 0.5834854,0.580374 1.3451864,0.929164 2.0596836,1.317384 0.3212365,0.167881 0.6455103,0.329925 0.9633876,0.504209 -1.4668844,0.08299 -2.9396454,0.05687 -4.4023787,0.216588 -0.346474,0.01114 -0.7232565,0.25686 -0.71691,0.633018 -0.010351,0.412131 0.4047945,0.627438 0.7305482,0.774216 1.0204987,0.447929 2.1192378,0.68902 3.2135175,0.877485 0.4574735,0.07823 0.919803,0.12038 1.3819287,0.159512 -0.7265225,0.160211 -1.5469041,0.257972 -2.2928833,0.505397 -0.4142743,0.129918 -0.8648914,0.428495 -0.8805664,0.906404 -0.043943,0.382193 0.1890194,0.758045 0.5496774,0.890908 0.6648857,0.290136 1.4100167,0.251925 2.119326,0.297907 1.3402576,0.0552 2.6844366,0.02792 4.0224306,0.129691 0.21343,0.01122 0.447827,0.06178 0.551201,0.271698 1.368838,1.946638 2.621024,3.97157 3.901819,5.976244 0.901172,1.340319 1.98107,2.577846 3.270687,3.557421 0.547199,0.410202 1.16938,0.747641 1.858035,0.828598 0.937191,0.14369 1.943041,0.05814 2.790752,-0.389726 0.466849,-0.230354 0.756891,-0.688072 0.928513,-1.163738 0.319355,-0.830704 0.399738,-1.725464 0.549701,-2.596359 0.05031,-0.449619 0.16297,-0.903721 0.113343,-1.356804 C 27.312297,51.122534 26.75528,50.883512 26.303315,50.653521 25.452444,50.257328 24.662586,49.739496 23.936667,49.148579 23.44801,48.779662 22.912243,48.4751 22.339721,48.257518 21.77638,47.955721 21.356525,47.454473 20.921702,46.998035 19.416323,45.288334 18.130033,43.397529 16.94004,41.458739 16.293553,40.415297 15.730801,39.324171 15.146251,38.245896 14.890572,37.834786 14.673104,37.33587 14.213602,37.11608 14.106951,37.08097 13.99541,37.05819 13.882873,37.07061 Z" />
    <path
       id="path58332"
       style="opacity:1;fill:#f9cfbc;fill-opacity:1;stroke:none;stroke-width:0.48383;stroke-linecap:round;stroke-dashoffset:2.38337;paint-order:markers stroke fill"
       d="m 53.710932,43.700176 c -0.557369,0.144626 -1.07442,0.413858 -1.604976,0.633772 -1.318966,0.599633 -2.646307,1.184063 -3.996079,1.712582 -0.432908,0.164639 -0.839308,0.385236 -1.219562,0.648954 -0.1992,0.06482 -0.01088,0.280334 -0.0078,0.423831 1.324258,4.891886 2.532084,9.814292 3.725844,14.739342 0.371782,1.593942 0.783336,3.180013 1.089814,4.788204 0.406201,2.314104 0.696478,4.695449 0.301559,7.032474 -0.07988,0.600763 -0.250775,1.207431 -0.170905,1.816121 0.04115,0.375909 0.44958,0.663287 0.813122,0.522026 0.440304,-0.176366 0.647428,-0.643562 0.962192,-0.968807 0.221239,-0.255966 0.44853,-0.507875 0.696378,-0.738484 0.763516,0.835279 1.366589,1.800231 2.000528,2.73367 0.569354,0.837949 1.120362,1.692474 1.761347,2.478135 0.306007,0.334291 0.655807,0.746353 1.147903,0.749589 0.187317,-0.02678 0.365014,-0.121516 0.462076,-0.285417 0.118248,-0.204676 0.129924,-0.457914 0.007,-0.663146 -0.757034,-1.641534 -1.647658,-3.220152 -2.351976,-4.886066 -0.131932,-0.269973 -0.0026,-0.113231 0.111717,0.02978 1.299134,1.530522 2.509007,3.142189 3.922975,4.571328 0.228785,0.226809 0.530034,0.479811 0.875374,0.372356 0.359227,-0.108619 0.503851,-0.530249 0.407236,-0.87 -0.174456,-0.698603 -0.611947,-1.288817 -0.950108,-1.913938 -0.790919,-1.377519 -1.649463,-2.717548 -2.374239,-4.132204 0.254765,0.195223 0.469546,0.373946 0.707451,0.574643 0.234445,0.200922 0.512405,0.449702 0.764614,0.669367 0.593373,0.50546 1.173475,1.050692 1.876052,1.402339 0.326017,0.169569 0.796226,0.117364 0.973283,-0.237686 0.13194,-0.242093 0.09776,-0.541885 -0.07925,-0.752141 -0.867915,-1.196528 -1.851607,-2.303407 -2.79255,-3.442145 -0.740942,-0.893635 -1.50296,-1.773907 -2.158085,-2.733997 -0.04914,-0.07306 -0.163568,-0.248994 -0.230923,-0.365065 -0.45499,-0.727715 -0.682267,-1.569664 -0.793303,-2.414095 -0.04167,-0.29604 -0.08291,-0.660154 -0.118792,-0.983287 -0.360098,-3.686886 -0.804884,-7.365338 -1.342147,-11.030717 -0.359952,-2.398091 -0.70843,-4.799264 -1.159272,-7.182416 -0.143594,-0.6432 -0.236974,-1.315725 -0.545047,-1.906016 -0.137884,-0.250481 -0.417957,-0.444029 -0.711509,-0.39289 z" />
    <path
       style="fill:#dbb200;stroke:#000000;stroke-width:0.264583px;stroke-linecap:butt;stroke-linejoin:miter;stroke-opacity:1;fill-opacity:1"
       d="m 29.706678,31.352479 c 0,0 1.193205,3.291599 4.60824,2.262973 3.415033,-1.028623 2.468697,-5.760296 2.468697,-5.760296 l -2.962439,1.563507 c 0,0 0.452597,1.316641 -0.617172,1.769235 -1.069771,0.452596 -1.974961,-0.699463 -1.974961,-0.699463 z"
       id="path58404" />
    <path
       style="fill:#dbb200;stroke:#000000;stroke-width:0.264583px;stroke-linecap:butt;stroke-linejoin:miter;stroke-opacity:1;fill-opacity:1"
       d="m 24.316686,47.234443 -1.15206,1.440074 4.320224,2.550991 0.32916,-2.509846 z"
       id="path58406" />
    <path
       style="fill:#dbb200;stroke:#000000;stroke-width:0.264583px;stroke-linecap:butt;stroke-linejoin:miter;stroke-opacity:1;fill-opacity:1"
       d="m 42.83193,44.025134 0.164578,1.728089 0.90519,0.864045 h 2.427555 l 5.801442,-2.345264 2.304121,-1.15206 1.810377,-1.56351 -1.275493,-1.933813 -2.098394,1.81038 -4.073353,1.604653 -3.579614,0.946335 z"
       id="path58408" />
    <path
       style="fill:#a6743f;stroke:none;stroke-width:0.264583px;stroke-linecap:butt;stroke-linejoin:miter;stroke-opacity:1;fill-opacity:1"
       d="m 36.192809,25.137128 c 0,0 5.411464,-2.327512 5.586029,-4.014958 1.105566,-1.920198 2.502074,-4.422273 1.454695,-6.109719 -1.04738,-1.687446 -2.851203,-1.57107 -2.851203,-1.57107 0,0 1.978385,-2.618451 0.931005,-4.0731459 C 40.265955,7.9135403 38.81126,8.9609207 36.600124,7.9135403 34.388988,6.8661599 28.861147,-1.978385 14.372386,10.590179 c -2.269325,1.745634 -3.607644,6.517033 -3.025766,9.600986 0.581878,3.083953 2.269324,5.935155 3.316705,6.458845 -0.05819,1.396508 2.851201,6.226093 8.669981,3.43308 2.676639,-1.221943 12.859503,-4.945962 12.859503,-4.945962 z"
       id="path40170" />
    <path
       id="path45229"
       style="opacity:1;fill:#f9cfbc;stroke-width:1.24675;stroke-linecap:round;stroke-dashoffset:2.38337;paint-order:markers stroke fill"
       transform="rotate(-33.95188)"
       d="m 21.26037,33.549484 c 2.23275,2.331622 0.409956,3.42647 -2.192442,4.952208 -2.544417,1.491744 -4.624551,4.025523 -7.725697,4.025523 -6.2022927,0 -11.44552919,-5.8543 -11.44552919,-12.377955 -5.3e-7,-6.523655 3.11607619,-8.399485 4.44908759,-9.398118 2.481923,-1.859347 2.4879795,8.754097 16.5007376,10.906404 0,0 0.213328,1.682543 0.413843,1.891938 z"
       sodipodi:nodetypes="sssssss" />
    <ellipse
       style="opacity:1;fill:#ffffff;fill-opacity:1;stroke:none;stroke-width:1.05773;stroke-linecap:round;stroke-dashoffset:2.38337;paint-order:markers stroke fill"
       id="path65933"
       cx="6.3978229"
       cy="32.410378"
       rx="4.2696786"
       ry="5.6803436"
       transform="matrix(0.65319885,-0.75718641,0.68988612,0.72391791,0,0)" />
    <path
       style="fill:#000000;stroke-width:0.264583"
       d="m 41.950453,126.73545 c -1.21923,-0.49119 -0.79733,-2.24707 1.25234,-5.21202 0.73171,-1.05846 1.33038,-2.04732 1.33038,-2.19747 0,-0.15015 -0.88022,-2.10643 -1.95605,-4.34728 -1.9309,-4.02191 -4.34364,-9.88313 -5.4223,-13.17228 -0.9882,-3.013334 -1.88207,-8.299376 -1.88207,-11.129944 0,-4.508604 0.90103,-13.557227 1.58186,-15.885936 0.46571,-1.592924 0.46805,-1.589749 -1.45315,-1.973652 -0.78529,-0.156919 -0.80853,-0.129222 -1.53823,1.832954 -1.55286,4.175686 -2.823924,10.596177 -2.823588,14.262673 5.29e-4,5.019992 0.970598,11.624135 2.122858,14.451285 0.2669,0.65484 0.91234,2.32171 1.43431,3.70416 0.52197,1.38245 1.06525,2.69214 1.2073,2.91042 0.14205,0.21828 0.59999,1.05172 1.01764,1.85208 0.65988,1.26457 0.72081,1.5592 0.46507,2.24896 -0.54866,1.47991 -0.94636,1.93614 -4.17989,4.79513 -4.197176,3.71101 -5.629345,4.43753 -6.67882,3.38806 -0.957409,-0.95741 -0.272443,-3.18006 1.909306,-6.19552 l 1.050493,-1.45192 -1.453163,-2.78141 c -0.799239,-1.52978 -2.044041,-3.88445 -2.766225,-5.23261 -2.108476,-3.93603 -4.812328,-12.532147 -5.512331,-17.524856 -0.321427,-2.292548 -0.31177,-7.097683 0.01888,-9.392709 0.527012,-3.658005 2.04382,-8.695756 5.41708,-17.991667 0.52806,-1.455209 1.054186,-3.017423 1.169169,-3.471588 0.208289,-0.822708 0.206507,-0.824423 -0.48298,-0.46465 -0.380622,0.198606 -1.209827,0.361836 -1.842679,0.362733 -2.831613,0.004 -4.93366,-2.05526 -8.784983,-8.606209 -0.767098,-1.304803 -1.524302,-2.459844 -1.682676,-2.566757 -0.158374,-0.106913 -1.512167,-0.19621 -3.00843,-0.198438 -3.0959933,-0.0046 -4.5555633,-0.425436 -4.5555633,-1.313466 0,-0.585075 0.850217,-1.582758 1.389062,-1.629992 0.181901,-0.01595 -0.190734,-0.131434 -0.828079,-0.256646 -2.182074,-0.428685 -3.006616,-1.476446 -1.929212,-2.451481 0.307928,-0.278672 0.957283,-0.441494 1.785937,-0.447818 l 1.302083,-0.0099 -1.016578,-0.870406 c -0.73946,-0.633134 -0.991898,-1.037296 -0.926042,-1.482622 0.157795,-1.067016 0.983063,-1.091664 3.921994,-0.117139 1.4970043,0.496394 2.7653843,0.902534 2.8186223,0.902534 0.05324,0 0.0968,-0.40214 0.0968,-0.893644 0,-0.900592 0.2617,-1.262611 1.139476,-1.576276 0.626325,-0.223811 1.440664,0.662379 2.571113,2.797965 1.768003,3.340023 5.364708,8.138623 6.100158,8.138623 0.67822,0 1.251979,-1.087478 1.415349,-2.68259 0.714344,-6.97471 1.912535,-11.071758 3.899928,-13.335274 0.828836,-0.943992 0.838698,-0.979607 0.216596,-0.782159 -1.959394,0.621887 -5.594726,-0.207118 -8.091015,-1.845083 -1.69646,-1.113151 -4.142511,-4.615341 -4.881211,-6.988789 -0.787307,-2.529625 -0.669447,-7.413772 0.158914,-6.585411 0.06207,0.06207 0.238607,1.353913 0.392308,2.870766 0.370983,3.661184 0.586488,4.294467 2.346106,6.894248 2.429676,3.589771 5.210062,4.900923 9.864091,4.651631 2.381558,-0.127567 2.682941,-0.208772 4.233332,-1.140625 3.08042,-1.851465 4.05615,-3.15991 4.45369,-5.972348 0.14902,-1.054297 0.43792,-1.812139 0.9003,-2.361642 0.88735,-1.054559 0.93442,-2.628387 0.10181,-3.404086 -0.72262,-0.67322 -0.9174,-0.674797 -1.27303,-0.01031 -0.15576,0.291042 -0.4576,0.529167 -0.67076,0.529167 -0.63598,0 -0.43964,-0.978972 0.31546,-1.572932 0.84711,-0.666334 1.49756,-0.529829 2.60426,0.546534 0.67577,0.657244 0.79375,0.971096 0.79375,2.111523 0,1.177275 -0.10416,1.432598 -0.8599,2.107849 -0.52487,0.468973 -0.85989,1.019616 -0.85989,1.41332 0,2.149844 -1.31822,5.123199 -2.70063,6.091472 -0.31611,0.22141 -0.50496,0.472341 -0.41967,0.557626 0.0853,0.08528 0.77965,-0.317673 1.54304,-0.895459 2.3393,-1.770554 4.11029,-2.516095 6.26367,-2.636844 2.49264,-0.139773 3.7302,0.447077 6.25756,2.967337 2.01202,2.006362 3.09144,3.697112 6.29205,9.855523 l 1.94627,3.744906 -0.62754,0.672078 -0.62754,0.672079 0.85308,4.843431 c 0.4692,2.663889 0.94857,5.914996 1.06527,7.224684 0.54992,6.171539 1.13838,10.919667 1.44283,11.641667 0.35902,0.85143 2.17538,3.303448 3.72386,5.027084 1.25352,1.395304 1.76068,2.390667 1.6604,3.258714 -0.0656,0.56768 -0.21464,0.704874 -0.74348,0.684292 -0.36381,-0.01416 -0.86946,-0.116059 -1.12369,-0.226441 -0.37573,-0.163142 -0.30998,0.124632 0.35144,1.53805 0.86265,1.843455 0.85597,2.668971 -0.0239,2.948226 -0.27747,0.08806 -0.83478,-0.01294 -1.23847,-0.224452 -0.71578,-0.375041 -0.74065,-0.363921 -1.00333,0.448728 -0.1981,0.612839 -0.45141,0.85444 -0.95747,0.91321 -0.86928,0.100949 -1.89657,-1.023565 -3.57678,-3.915307 l -1.21144,-2.084952 -1.01129,1.06308 c -1.35174,1.420974 -2.20507,1.361718 -2.32921,-0.161742 -0.0778,-0.954601 -0.19057,-0.737717 -1.23827,2.38125 -1.52003,4.525063 -1.9944,6.952581 -2.16996,11.104428 -0.17585,4.158801 0.18204,7.738468 1.37556,13.758332 0.94513,4.76701 1.44496,6.47681 3.44194,11.77396 1.73114,4.59199 1.71677,4.2581 0.23487,5.45652 -0.69763,0.56418 -1.92901,1.63639 -2.7364,2.38269 -3.10073,2.86612 -6.57688,4.52528 -8.15175,3.8908 z m 17.39939,-47.064764 c 0,-0.07984 -0.679,-1.448727 -1.50887,-3.041963 -1.1551,-2.21761 -1.43604,-2.96963 -1.19822,-3.207449 0.23782,-0.23782 0.43104,-0.160453 0.82407,0.329984 4.11488,5.134589 4.79343,5.834139 4.79343,4.941766 0,-0.205251 -0.83343,-1.715638 -1.85208,-3.356415 -2.61268,-4.208351 -2.47879,-4.828868 0.46072,-2.135336 1.58045,1.448195 2.4497,1.934946 2.4497,1.371751 0,-0.11866 -1.29682,-1.72231 -2.88183,-3.563662 -3.16483,-3.676687 -3.17224,-3.693973 -3.60038,-8.391423 -0.21884,-2.401112 -0.63236,-5.771996 -1.07108,-8.73125 -1.21012,-8.162335 -1.53511,-9.789584 -1.95513,-9.789584 -0.12271,0 -1.03985,0.398616 -2.03808,0.885815 -0.99823,0.487198 -2.4339,1.103823 -3.19037,1.370274 -0.75647,0.266451 -1.32761,0.5618 -1.26919,0.656328 0.16924,0.273831 3.8179,14.661032 4.50301,17.755972 0.84366,3.811243 1.07752,6.974568 0.66078,8.938303 -0.45843,2.16023 -0.25558,2.507657 0.6777,1.160703 0.42452,-0.612688 0.95087,-1.118497 1.16967,-1.124019 0.21879,-0.0055 1.05223,1.022186 1.85208,2.283799 1.6284,2.568482 2.57453,3.791577 2.933,3.791577 0.13259,0 0.24107,-0.06533 0.24107,-0.145171 z M 43.825633,63.328198 c 2.32567,-0.842299 5.46558,-2.734927 5.47231,-3.298516 0.007,-0.597419 -1.52028,-6.69757 -2.28222,-9.114664 -0.49228,-1.561658 -0.89505,-3.00469 -0.89505,-3.206737 0,-0.239601 -0.4178,-0.414448 -1.20136,-0.502766 -1.55548,-0.175326 -2.12289,-0.720794 -2.64808,-2.545689 -0.23565,-0.818819 -0.89468,-2.927943 -1.46451,-4.68694 -1.08424,-3.34694 -1.26802,-4.461885 -0.70532,-4.27913 0.46699,0.151672 1.06078,1.463642 2.22814,4.923036 l 1.013,3.001981 1.82061,-0.177147 c 2.41543,-0.235021 6.89677,-1.87521 8.16742,-2.98931 0.64202,-0.562922 0.60403,-0.771172 -0.59715,-3.27418 -2.67264,-5.569172 -5.27201,-9.172929 -7.41271,-10.276934 -2.15145,-1.109547 -5.0738,-0.831682 -7.04205,0.669577 -0.74873,0.571086 -0.88924,0.845941 -0.88924,1.739508 0,0.596284 -0.30435,1.7046 -0.69466,2.52964 -0.87779,1.855497 -2.30649,2.624564 -4.41235,2.375156 -1.408397,-0.166804 -2.12372,-0.648726 -2.74436,-1.848912 -0.381392,-0.737532 -0.399392,-0.742625 -0.937156,-0.265208 -0.600501,0.533115 -1.653174,2.71903 -2.209354,4.587808 -0.366369,1.231008 -1.26994,6.275089 -1.540374,8.598959 -0.183025,1.572752 -0.06536,1.799799 1.207385,2.329686 1.268527,0.528129 1.276702,0.503192 1.276702,-3.894728 0,-1.928376 0.07834,-3.58448 0.174094,-3.680233 0.09575,-0.09575 0.330989,-0.04388 0.522752,0.115269 0.82123,0.681561 -0.229424,16.639623 -1.329716,20.196655 -0.316302,1.02254 -0.335575,1.391608 -0.08824,1.689632 4.787512,3.210587 12.973077,2.810106 17.211487,1.284187 z m -1.40172,-1.834738 c 0.0121,-0.54243 2.53035,-8.381839 2.7619,-8.598059 0.68143,-0.636334 -0.59805,5.654961 -1.61409,7.936601 -0.41924,0.941446 -1.16369,1.37046 -1.14781,0.661458 z m 3.16632,-0.242535 c -0.002,-0.612535 1.38451,-4.189236 1.62421,-4.189236 0.40893,0 0.21873,1.42063 -0.38709,2.891235 -0.5599,1.359114 -1.23434,2.06675 -1.23712,1.298001 z M 32.230043,48.361173 c -0.582078,-0.267748 -1.492084,-0.949741 -2.022226,-1.515544 -0.530144,-0.565804 -1.164604,-1.19102 -1.409911,-1.389367 -0.412666,-0.333674 -0.397415,-0.412803 0.203965,-1.058334 1.068378,-1.146815 1.27275,-1.726316 0.942712,-2.673067 -0.897216,-2.573755 1.384707,-4.989506 3.3878,-3.586484 0.49376,0.345846 0.65197,0.344704 1.36267,-0.0098 1.54727,-0.771882 2.96803,0.141854 3.06196,1.969243 0.0363,0.706188 0.33115,1.44994 0.87507,2.207336 0.83969,1.169252 0.95761,1.564098 0.90447,3.028458 -0.0947,2.610248 -4.36604,4.380151 -7.30651,3.027599 z m 5.31813,-1.724068 c 1.14439,-1.144386 1.22039,-2.419292 0.22224,-3.727934 -0.59457,-0.779518 -1.79127,-1.457899 -2.57182,-1.457899 -0.29596,0 -0.13487,5.26856 0.1765,5.772359 0.35256,0.570458 1.26139,0.32516 2.17308,-0.586526 z m -1.32107,-2.164765 c -0.34811,-0.907161 -0.17643,-1.698152 0.36857,-1.698152 0.44097,0 0.52917,0.17639 0.52917,1.058334 0,1.092197 -0.56863,1.497459 -0.89774,0.639818 z m -3.99706,0.137779 v -2.397403 l -0.859891,0.93831 c -0.472943,0.51607 -0.859896,1.196708 -0.859896,1.512531 0,0.56089 1.167551,2.343965 1.534817,2.343965 0.10174,0 0.18497,-1.078831 0.18497,-2.397403 z m -0.39687,-4.522772 c 0,-0.613131 0.23996,-0.622008 0.67954,-0.02514 0.32454,0.440674 0.34973,0.44051 0.52179,-0.0034 0.41652,-1.074532 -1.437111,-1.766812 -1.985772,-0.74163 -0.150641,0.281465 -0.273891,0.895232 -0.273891,1.363915 0,0.83539 0.0104,0.842732 0.529166,0.373261 0.291042,-0.263391 0.529167,-0.698561 0.529167,-0.96705 z m 4.84811,0.371737 c 0.27477,-0.466648 -0.35623,-1.389063 -0.95021,-1.389063 -0.59107,0 -1.25207,0.432031 -1.25207,0.818359 0,0.446141 0.88676,0.479788 1.21583,0.04613 0.33032,-0.435295 0.35542,-0.426469 0.36326,0.127696 0.008,0.572146 0.38039,0.809241 0.62319,0.396875 z M 26.030191,56.047015 c 0.246601,-0.304541 0.526569,-1.123556 0.622153,-1.820037 0.09558,-0.696482 0.236317,-1.58486 0.312741,-1.974173 0.12362,-0.62974 0.01155,-0.764202 -1.015651,-1.218581 -0.635032,-0.280906 -1.565274,-0.867199 -2.067203,-1.302875 -0.50193,-0.435679 -1.229877,-0.869304 -1.617659,-0.963615 -1.253618,-0.30489 -5.305453,-5.752598 -7.262053,-9.763858 -0.913698,-1.873189 -1.368796,-1.9547 -1.477246,-0.264584 -0.07851,1.223571 -0.101611,1.25458 -0.874392,1.173808 -0.436563,-0.04563 -1.801282,-0.432582 -3.0327113,-0.859895 -2.742145,-0.951542 -3.045977,-0.976762 -2.640532,-0.219182 0.164174,0.306764 1.184127,0.966938 2.266561,1.467052 1.0824353,0.500115 1.8977723,1.023035 1.8118623,1.162042 -0.08591,0.139004 -1.4588623,0.252738 -3.0510033,0.252738 -1.592141,0 -2.894802,0.104619 -2.894802,0.232484 0,0.458534 3.324217,1.355016 5.0244913,1.355016 0.736286,0 1.276589,0.401698 0.962615,0.715672 -0.08322,0.08321 -0.957193,0.283651 -1.9421733,0.445418 -1.285868,0.211179 -1.813859,0.415038 -1.872383,0.722931 -0.114677,0.603311 0.673669,0.753999 3.9666603,0.758201 2.636563,0.0034 2.860272,0.04468 3.242922,0.598924 1.000286,1.448853 2.760213,4.164105 3.644231,5.622396 1.039957,1.71553 2.770306,3.518128 4.039262,4.207918 1.105885,0.601147 3.249735,0.418817 3.85431,-0.3278 z m 1.040482,-6.39366 c 0,-0.291041 -0.04564,-0.529166 -0.101433,-0.529166 -0.05579,0 -0.163704,0.238125 -0.239813,0.529166 -0.07611,0.291042 -0.03046,0.529167 0.101433,0.529167 0.131897,0 0.239813,-0.238125 0.239813,-0.529167 z m -0.882606,-0.643673 c -0.225268,-0.587039 -0.969478,-0.516064 -0.969478,0.09246 0,0.5573 0.526887,0.872792 0.895028,0.535927 0.128464,-0.117549 0.161966,-0.400323 0.07445,-0.628386 z M 24.689423,48.46273 c 0,-0.218281 -0.119063,-0.396875 -0.264584,-0.396875 -0.14552,0 -0.264583,0.178594 -0.264583,0.396875 0,0.218282 0.119063,0.396875 0.264583,0.396875 0.145521,0 0.264584,-0.178593 0.264584,-0.396875 z m 19.4185,-2.732209 c 0.19092,-0.308912 -0.11832,-1.368833 -0.39936,-1.368833 -0.12855,0 -0.23372,0.357188 -0.23372,0.79375 0,0.749721 0.33632,1.055238 0.63308,0.575083 z m 1.59423,0.05807 c 0.23019,-0.08833 0.41852,-0.42019 0.41852,-0.73747 0,-0.455933 -0.17287,-0.590045 -0.82457,-0.639702 -0.66184,-0.05043 -0.79238,0.02106 -0.66146,0.362236 0.0897,0.233785 0.16311,0.59392 0.16311,0.800301 0,0.406463 0.24994,0.465778 0.9044,0.214635 z m 2.00602,-1.058333 c 0,-0.386411 -0.15466,-0.633151 -0.39688,-0.633151 -0.26365,0 -0.39687,0.26366 -0.39687,0.785447 0,0.589471 0.099,0.747446 0.39687,0.633151 0.21829,-0.08376 0.39688,-0.437213 0.39688,-0.785447 z m 1.5875,-0.55112 c 0,-0.476615 -0.12351,-0.626221 -0.46302,-0.560861 -0.2947,0.05674 -0.46729,0.338156 -0.47477,0.774155 -0.009,0.531244 0.0948,0.657146 0.46302,0.560861 0.29411,-0.07691 0.47477,-0.371493 0.47477,-0.774155 z m 1.32292,-0.500954 c 0,-0.37593 -0.128,-0.640844 -0.28443,-0.588698 -0.15644,0.05214 -0.2755,0.181129 -0.26458,0.286631 0.0109,0.105503 0.0198,0.370417 0.0198,0.588698 0,0.218282 0.11906,0.396875 0.26458,0.396875 0.14552,0 0.26458,-0.307578 0.26458,-0.683506 z m 1.68163,-0.775737 c -0.25088,-0.653788 -0.88788,-0.45439 -0.88788,0.277926 0,0.584539 0.0668,0.63504 0.51931,0.392841 0.30526,-0.16337 0.45718,-0.439854 0.36857,-0.670767 z m 1.44583,-0.46786 c 0.16783,-0.202213 0.18909,-0.489691 0.0526,-0.710591 -0.18567,-0.300432 -0.3056,-0.307645 -0.63059,-0.03793 -0.22072,0.183182 -0.33612,0.502949 -0.25644,0.710589 0.17963,0.468125 0.46662,0.481169 0.83447,0.03793 z m 1.48799,-0.694854 c 0.2498,-0.404193 -0.13762,-1.057894 -0.53631,-0.904904 -0.4915,0.188608 -0.48626,1.145611 0.006,1.145611 0.20969,0 0.44821,-0.108318 0.53003,-0.240707 z m -22.34254,-8.83685 c 0,-0.190468 -0.1635,-0.569914 -0.36334,-0.843212 -0.35093,-0.479927 -0.3696,-0.477216 -0.54625,0.07935 -0.10059,0.316943 -0.10865,0.696389 -0.0179,0.843212 0.23904,0.386774 0.92751,0.327871 0.92751,-0.07935 z m 1.5875,0.08574 c 0.32712,-0.208087 0.33875,-0.346251 0.0661,-0.786109 -0.1819,-0.293507 -0.33073,-0.654327 -0.33073,-0.801823 0,-0.45175 0.72578,-0.297472 0.91663,0.194848 0.16789,0.433071 0.20352,0.430389 0.55082,-0.04147 0.33462,-0.454617 0.30179,-0.540565 -0.33208,-0.869424 -0.65588,-0.340273 -0.74419,-0.315121 -1.30675,0.372198 -0.63855,0.780156 -0.72122,1.097712 -0.46177,1.773826 0.18474,0.481412 0.34494,0.509598 0.89774,0.157953 z m -3.140987,-1.128501 c 0.287634,-0.539809 0.276167,-0.561457 -0.122984,-0.232186 -0.242107,0.199719 -0.440192,0.46761 -0.440192,0.595312 0,0.404147 0.235116,0.252549 0.563176,-0.363126 z m 1.869487,-1.660823 c 0.42394,-0.930457 -0.0157,-1.281798 -0.83212,-0.664947 -0.55357,0.418262 -0.597209,0.551636 -0.29833,0.911757 0.48992,0.590323 0.77765,0.527504 1.13045,-0.24681 z m 3.05133,0.07332 c -0.064,-0.181901 -0.0173,-0.59862 0.1037,-0.926042 0.27321,-0.739144 -0.0573,-0.768522 -0.69671,-0.06194 -0.4677,0.516803 -0.46692,0.545314 0.0251,0.917627 0.63046,0.477036 0.71461,0.487461 0.56787,0.07035 z M 19.662339,16.570413 C 18.0602,15.997798 16.201046,14.804072 16.00983,14.225211 c -0.146192,-0.442567 0.09543,-0.380559 2.858759,0.733644 1.091407,0.440067 2.183493,0.858604 2.426858,0.930083 0.297062,0.08725 0.395614,0.309192 0.299871,0.675314 -0.171335,0.655186 -0.117527,0.655015 -1.932979,0.0062 z m 10.318751,0.142315 v -0.529166 c 0,-0.143917 2.705043,-1.040083 4.299483,-1.424394 2.11062,-0.508729 0.6738,0.673127 -2.07721,1.708607 -1.994781,0.750832 -2.222273,0.775907 -2.222273,0.244953 z"
       id="path38368"
       sodipodi:nodetypes="ssssssssscsssscssscsssssssssssssssccsssssssssssssssssssssssssssssssssscccssssssssssssscssssssssssssscssssssssssssssssssccssssssscssssssssssssssssscccssccssccssssscsscccsssssssssscsssscscsssccsssscssssssssssssssssssssscsssssssssssssssssssssssssssssssssssscsscssssccssssccsscccsscccsssccscssssssssssssssssccsccccssssccsssss" />
    <ellipse
       style="display:inline;fill:#ffffff;fill-opacity:1;stroke:none;stroke-width:1.05773;stroke-linecap:round;stroke-dashoffset:2.38337;paint-order:markers stroke fill"
       id="path65933-0"
       cx="0.051320512"
       cy="31.143265"
       rx="4.2696786"
       ry="5.6803436"
       transform="matrix(0.65319885,-0.75718641,0.68988612,0.72391791,0,0)" />
    <path
       style="fill:#000000;stroke-width:0.264583"
       d="m 20.508672,27.882659 c -3.16604,-1.43815 -4.9886,-6.0996 -3.58938,-9.18035 0.58575,-1.2897 1.9985,-2.096509 3.20646,-1.8312 0.73966,0.16246 0.80784,0.0952 1.59697,-1.574979 0.6583,-1.3933 1.03095,-1.85011 1.85024,-2.26807 1.39806,-0.71324 2.26341,-0.65538 3.85552,0.25778 2.67685,1.53533 4.656641,4.696829 4.687631,7.485619 0.0115,1.03592 -0.12212,1.40015 -0.764545,2.08389 -0.985986,1.0494 -2.608886,1.80686 -3.887336,1.81435 -0.88558,0.005 -0.99219,0.0783 -0.99219,0.6804 0,2.47398 -3.1486,3.81115 -5.96337,2.53256 z m 3.94331,-1.37427 c 1.16797,-0.91872 0.97368,-2.11071 -0.60062,-3.68501 -0.71377,-0.71377 -1.60876,-1.95515 -1.98886,-2.75862 -0.74735,-1.57977 -1.27353,-2.00384 -2.48639,-2.00384 -1.44384,0 -2.28409,2.35315 -1.66337,4.65834 0.87868,3.26316 4.68629,5.40398 6.73924,3.78913 z m 4.34005,-3.5653 c 2.341206,-0.97822 2.674566,-2.11168 1.4083,-4.78832 -1.34776,-2.848909 -3.29669,-4.591759 -5.13468,-4.591759 -1.33218,0 -2.20206,0.81648 -2.53781,2.38204 -0.2445,1.140069 -0.20667,1.522669 0.27888,2.820429 0.62315,1.66551 2.16417,3.50885 3.47273,4.15399 1.06955,0.52732 1.30183,0.5295 2.51258,0.0236 z"
       id="path38432" />
    <path
       style="fill:#000000;stroke-width:0.264583"
       d="m 17.611954,31.184643 c -1.48562,-0.647321 -3.31433,-3.29152 -2.94394,-4.256741 0.24709,-0.643901 0.53159,-0.45742 1.09677,0.718917 0.29104,0.605752 0.98701,1.464641 1.54659,1.908642 0.90948,0.721632 1.20887,0.807273 2.82211,0.807273 0.99257,0 1.88525,0.08052 1.98373,0.178927 0.33018,0.329975 -1.41909,1.011809 -2.56898,1.001342 -0.62569,-0.0057 -1.49702,-0.166957 -1.93628,-0.35836 z m -5.05428,-5.600286 c -1.95301,-2.070791 -2.7714203,-7.966692 -1.49485,-10.769019 0.52668,-1.156182 1.21098,-1.790111 1.55788,-1.443211 0.0772,0.07721 -0.0345,0.478877 -0.24817,0.892582 -1.14785,2.222011 -0.74529,6.787177 0.87897,9.967942 0.58194,1.1396 1.05807,2.121865 1.05807,2.182812 0,0.431463 -1.0155,-0.05029 -1.7519,-0.831106 z m 23.459797,-0.327175 c -0.23273,-0.37657 1.025752,-0.452641 2.633772,-1.561338 0.65484,-0.451492 1.54417,-1.193993 1.97629,-1.650002 0.68449,-0.722333 0.74294,-0.897527 0.45388,-1.36039 -0.2905,-0.465159 -0.19454,-0.726955 0.771,-2.103426 0.96429,-1.374687 1.08276,-1.697299 0.94324,-2.568634 -0.15741,-0.983039 -0.96028,-1.922533 -1.64296,-1.922533 -0.19268,0 -0.6643,-0.11937 -1.04804,-0.265268 l -0.69771,-0.265268 0.83955,-1.46738 c 0.7433,-1.299164 0.8041,-1.552965 0.53031,-2.2139523 -0.41738,-1.007646 -1.3617,-1.393741 -2.90734,-1.188704 -1.49229,0.19796 -2.03512,-0.03989 -3.77991,-1.656233 -1.93085,-1.788697 -3.159379,-2.203611 -6.524719,-2.203611 -4.7068,0 -8.08796,1.388146 -11.3669,4.666705 -1.07146,1.0713333 -2.05372,1.9478783 -2.18281,1.9478783 -0.50143,0 -0.19096,-0.801588 0.79225,-2.0454403 1.41008,-1.783879 2.93445,-3.038406 5.01649,-4.12847 2.87168,-1.503485 4.50004,-1.87613 8.24405,-1.886617 3.241048,-0.0091 3.341078,0.0084 4.994399,0.871336 0.92792,0.48433 2.24995,1.407064 2.93786,2.05052 1.17163,1.095923 1.34465,1.169921 2.73545,1.169921 1.28058,0 1.61216,0.111908 2.41176,0.813962 1.17769,1.034028 1.46227,2.2979863 0.82044,3.6439313 -0.43372,0.90952 -0.4337,0.973379 5.2e-4,1.227337 2.78479,1.628886 3.17372,3.923162 1.0817,6.380962 -0.48252,0.566876 -0.82456,1.18462 -0.76011,1.372766 0.21072,0.615087 -0.1912,1.614931 -1.0359,2.576997 -0.99784,1.136417 -2.03793,1.711128 -3.09677,1.711128 -0.728141,0.06743 -2.478948,1.26184 -2.139792,0.05382 z"
       id="path38412"
       sodipodi:nodetypes="csssscscccccssccssssssscsssssssssccsssscscccc" />
  </g>
</svg>
