<?xml version="1.0" encoding="UTF-8" standalone="no"?>
<!-- Created with Inkscape (http://www.inkscape.org/) -->

<svg
   width="220"
   height="320"
   viewBox="0 0 58.208335 84.666664"
   version="1.1"
   id="svg932"
   inkscape:version="1.1 (c68e22c387, 2021-05-23)"
   sodipodi:docname="intro.svg"
   xmlns:inkscape="http://www.inkscape.org/namespaces/inkscape"
   xmlns:sodipodi="http://sodipodi.sourceforge.net/DTD/sodipodi-0.dtd"
   xmlns="http://www.w3.org/2000/svg"
   xmlns:svg="http://www.w3.org/2000/svg">
  <sodipodi:namedview
     id="namedview934"
     pagecolor="#ffffff"
     bordercolor="#666666"
     borderopacity="1.0"
     inkscape:pageshadow="2"
     inkscape:pageopacity="0.0"
     inkscape:pagecheckerboard="0"
     inkscape:document-units="mm"
     showgrid="false"
     inkscape:zoom="1.4142136"
     inkscape:cx="76.721084"
     inkscape:cy="232.63812"
     inkscape:window-width="1526"
     inkscape:window-height="1020"
     inkscape:window-x="395"
     inkscape:window-y="23"
     inkscape:window-maximized="0"
     inkscape:current-layer="layer3"
     inkscape:snap-nodes="false"
     inkscape:snap-others="false"
     inkscape:snap-global="false"
     height="200mm"
     units="px" />
  <defs
     id="defs929" />
  <g
     inkscape:groupmode="layer"
     id="layer3"
     inkscape:label="intro"
     style="display:inline">
    <path
       style="fill:#f7cdba;fill-opacity:1;stroke:none;stroke-width:0.247128px;stroke-linecap:butt;stroke-linejoin:miter;stroke-opacity:1"
       d="m 48.315381,59.26864 c 0,0 -0.625979,2.376982 -5.244741,4.475204 0.315681,3.174826 5.609007,19.734704 5.250137,22.246782 1.43548,2.512084 7.465675,0.213874 7.465675,0.213874 0,0 -5.233552,-16.193841 -7.471071,-26.93586 z"
       id="path39077"
       sodipodi:nodetypes="ccccc" />
    <path
       style="fill:#d2ad16;fill-opacity:1;stroke:#000000;stroke-width:0.264583px;stroke-linecap:butt;stroke-linejoin:miter;stroke-opacity:1"
       d="m 24.695705,34.614156 -1.543482,0.420949 -1.028988,0.771742 c 0,0 1.987817,4.162724 4.794147,4.303041 2.80633,0.140316 5.028007,-3.648231 4.95785,-4.139338 -0.07016,-0.491109 -1.449938,-1.028988 -1.449938,-1.028988 l -3.016803,1.941044 -1.543484,-0.514493 z"
       id="path5116" />
    <path
       id="path38923"
       style="fill:#f7cdba;fill-opacity:1;stroke:none;stroke-width:0.236167;stroke-linecap:round;stroke-miterlimit:4;stroke-dasharray:none"
       d="m 28.111781,31.657445 c -0.687445,0.04713 -1.364374,0.192575 -2.041222,0.315371 -0.501192,0.111995 -1.102163,0.233449 -1.36258,0.725803 -0.260416,0.535241 -0.06006,1.146788 0.127336,1.672634 0.315412,0.784389 0.726739,1.58815 1.439366,2.088766 0.959413,0.821731 3.247971,-0.968736 3.678621,-1.176858 0.502328,-0.444682 -0.734714,-2.981551 -1.067082,-3.314723 -0.206764,-0.197483 -0.483501,-0.322858 -0.774439,-0.31096 z"
       sodipodi:nodetypes="ccccccccc" />
    <path
       style="fill:#f7cdba;fill-opacity:1;stroke:none;stroke-width:0.262944px;stroke-linecap:butt;stroke-linejoin:miter;stroke-opacity:1"
       d="m 18.190525,7.946663 c 0,0 -5.63686,2.043599 -4.398439,10.843943 -1.00026,-0.191311 -2.667361,1.004384 0,5.882827 3.191307,4.734969 5.239461,8.609021 12.669963,7.652461 7.430505,-0.956567 9.954975,-5.978476 10.383661,-7.174178 1.190788,-0.860911 2.275869,-3.895446 1.799556,-4.899837 C 38.168942,19.247495 37.193427,18.305698 35.669988,19.512614 35.226236,19.617429 19.428946,10.385889 18.190525,7.946663 Z"
       id="path44438"
       sodipodi:nodetypes="cccscscc" />
    <path
       style="fill:#a1723c;fill-opacity:1;stroke:none;stroke-width:0.262944px;stroke-linecap:butt;stroke-linejoin:miter;stroke-opacity:1"
       d="m 16.94032,29.073605 c -1.047895,-0.04785 -4.191567,0.47827 -6.43025,-3.300132 C 9.509811,21.373313 8.319025,17.929701 8.319025,17.929701 L 8.93824,11.281609 12.558225,6.78579 c 0,0 8.287875,-7.55681435 17.099688,-5.2132413 8.811823,2.3435672 8.097351,5.3088953 11.193399,11.4308663 0.952624,2.247923 5.620506,3.87407 5.906299,6.456785 0.285781,2.582695 -2.048153,4.543645 -2.572099,4.926266 0.190518,1.147877 -0.381048,4.639302 -1.762367,5.069748 -1.381307,0.430464 -2.85789,0.0957 -2.85789,0.0957 0,0 -2.048145,3.49143 -5.33472,2.391396 -1.333679,-0.478283 -1.949772,-0.765813 -1.949772,-0.765813 0,0 2.283189,-1.912549 3.188194,-3.06042 0.904992,-1.147864 1.218639,-3.229905 1.218639,-3.229905 0,0 1.486484,-1.340487 1.86754,-2.631851 0.381044,-1.29135 0.100732,-4.1804 -1.065717,-3.620134 -1.73254,0.832171 -12.189769,-0.585929 -18.691472,-10.079768 -0.714464,-0.813076 -6.192088,3.921934 -4.667881,10.235225 -0.809732,-0.143486 -3.096048,-0.191311 0,5.882833 0.762098,1.147864 2.810254,4.40016 2.810254,4.40016 z"
       id="path50599"
       sodipodi:nodetypes="cccccscscscccscssccccc" />
    <ellipse
       style="fill:#ffffff;fill-opacity:1;stroke:none;stroke-width:0.760156;stroke-linecap:round;stroke-miterlimit:4;stroke-dasharray:none"
       id="path59159"
       cx="30.259401"
       cy="18.045565"
       rx="5.1912446"
       ry="7.3671489" />
    <ellipse
       style="display:inline;fill:#ffffff;fill-opacity:1;stroke:none;stroke-width:0.732727;stroke-linecap:round;stroke-miterlimit:4;stroke-dasharray:none"
       id="path59159-2"
       cx="22.214497"
       cy="16.68133"
       rx="4.7575073"
       ry="7.4691825"
       transform="matrix(0.99599859,0.08936891,-0.0821458,0.99662032,0,0)" />
    <path
       d="m 17.112277,9.718333 c 0,-1.007381 1.667592,-2.373495 2.782599,-2.279556 1.604837,0.301617 -0.391453,1.285996 -0.963482,1.538934 -1.028901,0.820571 -1.819117,1.379212 -1.819117,0.740622 z m 7.555528,2.59763 0.57035,0.800987 1.113043,-1.113052 c 3.784012,-3.78402 8.952629,-1.097405 9.551759,4.964916 l 0.178101,1.80222 c 0,0 0.679484,-0.529053 0.967647,-0.563677 1.757492,-0.211171 2.784182,3.961201 1.074265,5.799835 -0.399555,0.429631 -0.921197,0.864699 -1.241289,1.650654 -0.307792,0.75576 -0.906877,2.671809 -2.012154,3.765725 l -1.328607,1.23593 0.705446,0.691079 c 1.503703,1.473079 4.146856,-0.529459 4.63365,-1.495924 0.33207,-0.659281 0.357082,-0.748912 1.647391,-0.748912 2.127496,0 3.900878,-2.391415 3.009076,-4.05776 -0.290181,-0.542209 -0.202857,-0.706036 0.994579,-1.865844 2.635383,-2.552618 2.384897,-4.471731 -0.846596,-6.485825 C 41.37761,15.25852 40.602452,14.199538 39.491906,10.96859 37.249307,4.4441492 33.498181,1.8953532 26.138578,1.8953532 c -3.759067,0 -5.048252,0.36832 -7.509326,2.145478 -0.585349,0.422698 -0.906841,0.08099 -0.446129,-0.47409 1.631913,-1.96634 6.498486,-3.07944305 10.83371,-2.477931 6.17478,0.856756 9.091457,3.257134 11.540924,9.4980138 1.298801,3.309143 2.037931,4.225808 4.6319,5.74445 2.750092,1.610047 2.991012,4.92852 0.543238,7.483152 -0.998172,1.041759 -1.09835,1.273714 -1.193173,2.762758 -0.164335,2.581041 -1.617394,4.038702 -3.736391,3.748256 -1.005181,-0.137761 -1.160255,-0.08048 -1.678379,0.62033 -1.412753,1.910867 -4.50556,2.389471 -6.026241,0.93256 l -0.733983,-0.703203 -1.380607,0.605083 c 0,0 -2.971663,1.635553 -7.564444,1.096737 -4.592782,-0.538817 -7.941548,-4.84042 -8.923764,-6.992845 -0.09787,-0.214461 -0.394252,-0.787378 -0.876118,-1.225864 -1.748154,-1.590785 -1.986255,-6.54133 -0.31461,-6.54133 0.324349,0 0.405812,-0.335862 0.405812,-1.673086 0,-2.361378 1.145873,-5.902324 1.723205,-5.324983 0.06517,0.06514 -0.07288,0.93059 -0.306877,1.923078 -0.306489,1.299977 -0.388259,2.512742 -0.292467,4.337565 0.145137,2.764899 0.07051,3.045415 -0.639303,2.403047 -1.001105,-0.905998 -0.979853,2.551164 0.02352,3.825075 0.284953,0.361801 0.797742,1.246492 1.139524,1.966003 2.941,6.1913 9.989984,8.339697 16.57383,4.881076 1.266514,-0.665324 2.148567,-1.190629 2.700153,-2.10085 0.551586,-0.910221 1.175943,-2.51955 1.914337,-3.930789 0.24784,-0.473679 0.584458,-0.824942 1.172452,-1.591045 0.977991,-1.274235 0.279895,-3.5371 -0.196543,-3.705069 -0.568293,-0.200353 -1.195534,0.295184 -1.297788,0.416545 -0.271549,0.32229 -0.252396,0.08506 -0.418794,0.862776 -1.049163,4.903375 -5.322452,6.85098 -8.640255,3.937895 -0.681738,-0.598572 -0.986084,-0.722452 -1.245627,-0.507046 -0.249295,0.206886 -0.42815,0.200368 -0.652291,-0.02376 -0.23735,-0.237336 -0.578378,-0.04434 -1.473328,0.834046 -5.897451,5.787939 -11.566564,-5.903065 -5.879734,-12.125377 1.129872,-1.236261 2.013092,-1.444859 2.911087,-1.63454 1.328251,-0.261729 3.175534,0.492944 3.841707,1.428494 z m -2.375168,12.490912 c 2.08768,-1.106062 2.751727,-2.900983 2.5234,-6.820759 -0.323208,-5.548516 -2.594601,-7.615269 -5.736013,-5.219188 -5.030697,3.837107 -2.092043,14.850352 3.212613,12.039947 z m -1.589473,-4.531898 c -1.015006,-1.121564 -1.392417,-5.972064 -0.53813,-6.916059 1.981426,-2.189456 4.598636,2.731337 3.115302,5.857249 -0.642796,1.354585 -1.857772,1.853748 -2.577172,1.05881 z m 12.140115,3.7448 c 4.169048,-2.832932 2.12218,-12.593017 -2.635319,-12.56602 -3.278585,0.01857 -4.251385,1.56825 -4.020077,6.403955 0.285881,5.976803 3.097322,8.57985 6.655396,6.162065 z M 28.494233,19.883 c -1.505124,-1.298033 -1.385681,-5.15573 0.214666,-6.933421 0.72181,-0.801803 2.118568,-0.801803 2.643738,0 0.464951,0.709873 0.394719,6.052249 -0.09147,6.960776 -0.413277,0.772201 -1.856318,0.757939 -2.7669,-0.02738 z m -2.486248,2.828052 c 0,-0.06347 -0.117733,-0.188146 -0.261636,-0.277079 -0.143903,-0.08889 -0.261643,-0.03697 -0.261643,0.115386 0,0.15238 0.11774,0.277073 0.261643,0.277073 0.143903,0 0.261636,-0.05197 0.261636,-0.11538 z m -1.262577,6.050801 c -0.312886,-0.333048 -0.56889,-0.745145 -0.56889,-0.915738 0,-0.437488 0.506121,-0.385751 0.894542,0.08228 0.465664,0.561096 1.054242,0.5338 1.338879,-0.21487 0.136783,-0.359762 0.287892,-0.700867 0.507303,-0.700867 0.583539,0 0.501699,1.205427 -0.124341,1.831468 -0.688049,0.688039 -1.348772,0.661491 -2.047493,-0.08227 z M 11.982915,28.346815 C 10.524452,27.457461 9.308381,24.879889 9.224117,22.499293 9.193957,21.647471 8.947976,20.758638 8.540692,20.029922 6.4588148,16.305038 8.967733,8.136067 12.663842,6.605083 13.922308,6.083809 13.889596,6.485668 12.563214,7.841256 9.740881,10.725735 8.229365,17.801585 9.893107,20.340779 c 0.229112,0.349674 0.416573,1.106444 0.416573,1.68172 0,1.707289 0.985033,3.909872 2.433499,5.441404 1.434118,1.516367 1.036277,1.978416 -0.760264,0.882912 z M 32.423145,9.336138 C 32.138111,9.120691 31.461125,8.811452 30.918735,8.64895 30.242199,8.446254 29.932563,8.202188 29.932563,7.871624 c 0,-0.832853 1.638536,-0.635279 2.7381,0.330147 1.33855,1.175274 1.121663,2.169264 -0.247518,1.134367 z"
       style="display:inline;fill:#020201;stroke-width:0.0692251"
       id="path114560"
       sodipodi:nodetypes="sccsscsscsssscsssscsssscsssscssscczsssscssssssssssscssscscsssssscssccsccsscccscsssssssssssssssssssssssss" />
    <path
       id="path123240"
       style="fill:#a8d6cd;fill-opacity:1;stroke:none;stroke-width:0.576073;stroke-linecap:round;stroke-miterlimit:4;stroke-dasharray:none;stroke-dashoffset:2.38337;paint-order:markers stroke fill"
       d="m 25.12741,47.382566 c -0.579288,-0.0044 -1.100203,0.370896 -1.382802,0.859761 -0.434735,0.734409 -0.510161,1.625707 -0.419817,2.459116 0.0539,0.429681 0.13711,0.855164 0.203378,1.283081 0.446201,-0.255054 0.910688,-0.479822 1.343045,-0.758071 0.268406,-0.17615 0.395582,-0.492055 0.422824,-0.8016 0.03178,-0.238371 0.03814,-0.480908 0.0981,-0.714867 0.153897,0.241506 0.221651,0.575235 0.503519,0.706175 0.185454,0.06772 0.397718,-0.03095 0.481508,-0.206926 0.175959,-0.345454 0.112158,-0.750213 0.06827,-1.119656 -0.07475,-0.437607 -0.159834,-0.893244 -0.404277,-1.271813 -0.210929,-0.274304 -0.572208,-0.429153 -0.913752,-0.4352 z" />
    <path
       id="path123201"
       style="fill:#a8d6cd;fill-opacity:1;stroke:none;stroke-width:0.576073;stroke-linecap:round;stroke-miterlimit:4;stroke-dasharray:none;stroke-dashoffset:2.38337;paint-order:markers stroke fill"
       d="m 29.021222,47.151007 c -0.417764,0.01033 -0.835872,0.156507 -1.140062,0.449323 -0.485461,0.453371 -0.811693,1.074104 -0.926241,1.727008 -0.05422,0.3025 0.10209,0.591464 0.313349,0.796827 0.218957,0.241518 0.538184,0.472507 0.881896,0.384289 0.38599,-0.100592 0.586178,-0.482141 0.776513,-0.798229 0.108452,-0.165637 0.229018,-0.334685 0.401646,-0.438396 0.07143,0.357957 -0.105077,0.71798 -0.02104,1.077009 0.06946,0.395392 0.437849,0.635878 0.78107,0.782183 0.359659,0.162117 0.824686,0.119351 1.099295,-0.182116 0.349673,-0.374961 0.411459,-0.920093 0.402764,-1.411253 -0.04309,-1.304789 -1.271128,-2.427702 -2.569173,-2.386645 z" />
    <path
       id="path116676"
       style="fill:#d2ad16;fill-opacity:1;stroke:none;stroke-width:0.288037;stroke-linecap:round;stroke-miterlimit:4;stroke-dasharray:none;stroke-dashoffset:2.38337;paint-order:markers stroke fill"
       d="m 24.918313,51.666659 c -0.557308,0.161433 -0.884368,0.73118 -1.303468,1.104844 -0.605057,0.664494 -1.10938,1.523471 -0.990857,2.455962 -0.06313,1.304475 1.085134,2.305452 2.216116,2.723151 0.306795,0.137836 0.881038,0.358261 0.975739,-0.130347 -0.06263,-0.614202 -0.412949,-1.172865 -0.500874,-1.797031 -0.273719,-1.24672 -0.292995,-2.495235 0.0021,-3.720587 0.06865,-0.283184 -0.05273,-0.675503 -0.398742,-0.635992 z" />
    <path
       id="path116752"
       style="fill:#d2ad16;fill-opacity:1;stroke:none;stroke-width:0.288037;stroke-linecap:round;stroke-miterlimit:4;stroke-dasharray:none;stroke-dashoffset:2.38337;paint-order:markers stroke fill"
       d="m 29.921146,51.577279 c -0.617334,-0.0059 -0.649087,0.736901 -0.651444,1.193433 -0.0041,1.298359 -0.1484,2.659941 0.321232,3.898781 0.16371,0.385804 0.607751,0.847336 1.035809,0.526955 0.639697,-0.436562 1.274539,-1.054526 1.437055,-1.839112 0.04198,-0.864124 0.157429,-1.841249 -0.449361,-2.55264 -0.426724,-0.527405 -0.975659,-1.162828 -1.693291,-1.227417 z m 0.751045,1.570368 c 0.26123,0.09203 0.231803,0.847983 -0.130346,0.57725 -0.126761,-0.146054 -0.12189,-0.572463 0.130346,-0.57725 z" />
    <path
       style="fill:#d2ad16;fill-opacity:1;stroke:#000000;stroke-width:0.247128px;stroke-linecap:butt;stroke-linejoin:miter;stroke-opacity:1"
       d="m 13.149154,62.512034 c 0,0 -5.711257,-3.441096 -7.9783844,-7.668017 -1.125213,0.594492 -2.203688,2.212204 -2.203688,2.212204 0,0 3.949927,7.833679 9.8256294,8.785839 -0.436545,-0.221473 0.356443,-3.330026 0.356443,-3.330026 z"
       id="path59896" />
    <path
       style="fill:#d2ad16;fill-opacity:1;stroke:#000000;stroke-width:0.247128px;stroke-linecap:butt;stroke-linejoin:miter;stroke-opacity:1"
       d="m 49.82241,53.792856 1.61264,1.677369 c 0,0 -2.378997,6.502576 -8.945011,7.866533 -0.158597,0 -0.772665,-3.000323 -0.772665,-3.000323 0,0 4.49403,-1.908688 8.105036,-6.543579 v 0"
       id="path59898"
       sodipodi:nodetypes="cccccc" />
    <path
       id="path58727"
       style="fill:#f7d148;fill-opacity:1;stroke:none;stroke-width:0.474728;stroke-linecap:round;stroke-miterlimit:4;stroke-dasharray:none"
       d="m 21.730435,36.138156 c -0.441374,0.0067 -0.784312,0.326016 -1.153906,0.526483 -2.656084,1.658676 -5.272836,3.379958 -7.88488,5.106992 -0.82922,0.562191 -1.67769,1.099218 -2.474995,1.706136 -0.309788,0.307921 -0.448688,0.741537 -0.631691,1.129218 -0.307436,0.731501 -0.552571,1.522595 -0.859156,2.23152 -0.782984,1.859028 -1.6324084,3.668887 -2.5618394,5.455909 -0.338099,0.682032 -0.765193,1.316528 -1.091018,2.004268 -0.178026,0.363364 -0.170928,0.8049 0.04389,1.151655 0.373088,0.603784 0.905484,1.087346 1.39242,1.597271 1.4585304,1.442218 2.9734464,2.830753 4.5701004,4.119188 0.377012,0.27888 0.737565,0.611303 1.190194,0.760039 0.339426,0.08882 0.653464,-0.178195 0.744514,-0.492669 0.2159,-0.683018 0.233067,-1.409434 0.275921,-2.119248 0.07547,-1.610059 -0.01335,-3.221752 -0.151481,-4.825945 -0.06127,-0.867836 -0.1236,-1.737007 -0.11695,-2.607512 0.140479,0.774556 0.01262,1.573385 0.187759,2.342418 0.05538,0.195992 0.183228,1.57826 0.393421,1.621951 0.131483,0.104651 0.259565,0.0067 0.388406,-0.04786 0.281058,-0.168884 0.319465,-1.727562 0.412111,-2.015862 0.398549,-1.520396 0.595199,-3.087018 1.033594,-4.597842 -0.728895,3.817496 -1.379287,7.648886 -2.058109,11.474079 -0.391115,2.145472 -0.772599,4.314119 -1.226874,6.455498 -0.51758,2.665745 -0.909443,5.357074 -1.152056,8.061902 -0.13805,1.419966 -0.110813,2.847946 -0.140618,4.272538 0.527698,0.356207 1.0403,0.74959 1.645401,0.968019 1.484113,0.579936 3.046656,0.925313 4.603437,1.24627 2.420382,0.481635 4.874725,0.79956 7.341276,0.901427 2.915444,0.126871 5.845974,0.09409 8.745902,-0.254734 1.534603,-0.175895 3.034485,-0.564339 4.514794,-0.994758 2.001977,-0.582168 3.937627,-1.410394 5.699228,-2.530428 0.731609,-0.470836 1.464934,-0.941781 2.167025,-1.455959 0.427604,-0.311855 0.800203,-0.78006 0.787796,-1.334427 -0.01258,-0.70893 -0.320861,-1.366314 -0.541648,-2.028078 -1.744361,-4.833591 -3.319438,-9.721582 -4.723113,-14.676445 -0.825577,-2.949393 -1.612909,-5.913932 -2.187885,-8.923783 -0.119461,-0.653615 -0.231375,-1.309422 -0.29859,-1.970779 0.565451,1.760442 1.01426,3.556057 1.523205,5.332458 0.193585,0.473544 0.387181,0.947075 0.580767,1.420613 0.122916,-0.555288 0.283718,-1.10389 0.382419,-1.663449 0.05436,-0.456332 0.101183,-0.913593 0.161546,-1.369181 -0.02391,1.064362 -0.153643,2.121606 -0.292318,3.175824 -0.133252,1.122875 -0.176879,2.290019 0.192902,3.375572 0.182283,0.557608 0.371317,1.113094 0.556028,1.669952 1.184589,-0.7382 2.351767,-1.507252 3.448996,-2.371421 1.21981,-0.937789 2.36281,-1.969806 3.466173,-3.041007 0.396624,-0.377055 0.793217,-0.754122 1.189873,-1.131151 -0.784872,-1.347825 -1.573169,-2.665828 -2.30481,-4.030389 -0.977777,-1.780958 -1.886902,-3.586882 -2.848514,-5.37925 -0.515671,-0.916204 -1.00916,-1.865543 -1.729485,-2.641732 -0.694199,-0.693346 -1.585824,-1.135937 -2.434704,-1.607282 -2.131639,-1.113208 -4.2973,-2.161038 -6.481003,-3.167873 -0.492147,-0.212873 -0.972842,-0.463769 -1.488396,-0.614831 -0.354137,-0.09452 -0.800486,-0.04786 -1.006367,0.294434 -0.173571,0.264783 -0.171431,0.609739 -0.387995,0.853351 -0.557826,0.745598 -1.324478,1.306517 -2.109888,1.792163 -0.59549,0.341366 -1.22542,0.687048 -1.920168,0.753499 -0.51486,-0.02352 -1.012558,-0.214812 -1.470222,-0.442463 -0.798229,-0.497125 -1.481545,-1.15653 -2.136625,-1.825711 -0.375217,-0.384516 -0.712532,-0.804118 -1.015119,-1.247185 -0.179678,-0.234122 -0.457655,-0.4004 -0.758701,-0.391425 z m 7.351581,10.996714 c 0.901818,-0.01278 1.853041,0.401646 2.298218,1.217071 0.338792,0.520673 0.399968,1.176805 0.245446,1.770127 -0.114916,0.57067 -0.455033,1.138441 -0.293594,1.733283 0.165491,0.499991 0.533504,0.900156 0.73518,1.385084 0.255315,0.559533 0.513366,1.175966 0.377757,1.802568 -0.209374,1.154712 -1.06919,2.082803 -2.041567,2.680841 -0.820233,0.517553 -1.770757,0.781503 -2.725762,0.904828 -0.280927,0.05396 -0.566012,0.07547 -0.847461,0.01322 -1.011944,-0.136742 -2.006271,-0.447548 -2.880549,-0.982141 -0.96345,-0.548583 -1.963614,-1.028439 -2.941158,-1.550136 -0.281702,-0.176975 -0.617784,-0.334806 -0.784507,-0.635227 0.122431,-0.291637 0.420451,-0.465002 0.662662,-0.651752 0.872672,-0.613801 1.730006,-1.322325 2.246401,-2.2742 0.199593,-0.346037 0.323231,-0.790624 0.112411,-1.161284 -0.19707,-0.33501 -0.406498,-0.680189 -0.441048,-1.077767 -0.130726,-1.12892 0.615571,-2.241257 1.626543,-2.702547 0.540848,-0.253717 1.170056,-0.259304 1.731433,-0.07006 0.481268,0.140231 1.001724,0.109392 1.46319,-0.08659 0.461141,-0.192178 0.95387,-0.317092 1.456405,-0.315471 z M 15.487071,67.667243 c 0.615589,1.94566 1.082173,3.939715 1.828368,5.842758 0.426578,1.112649 0.927779,2.19503 1.463461,3.258986 -0.776717,-1.00822 -1.310224,-2.17677 -1.808939,-3.340469 -0.415651,-1.002182 -0.777391,-2.027036 -1.072133,-3.071345 -0.02765,-0.101504 -0.08462,-0.306001 -0.109458,-0.408497 -0.195389,-0.802147 -0.394963,-1.6219 -0.357285,-2.453253 0.01868,0.05727 0.03737,0.114553 0.05595,0.17182 z m 25.338827,0.662227 c 0.04196,1.055591 -0.107036,2.107738 -0.246971,3.151494 -0.188303,1.197869 -0.41444,2.407852 -0.907579,3.522891 0.298469,-1.468544 0.587662,-2.939497 0.806092,-4.422456 0.104258,-0.697274 0.187088,-1.397879 0.310808,-2.092153 1.59e-4,0.01862 0.03391,-0.213388 0.03763,-0.159776 z"
       sodipodi:nodetypes="scccccccccccccccccccccccccccccccccccccccccccccccccccccccccccsscccccccccccccccccccccsccccccsssccccss" />
    <path
       style="fill:#f7cdba;fill-opacity:1;stroke:none;stroke-width:0.247128px;stroke-linecap:butt;stroke-linejoin:miter;stroke-opacity:1"
       d="M 12.792711,65.84206 6.6695438,62.723795 c 0,0 -1.93574,15.852294 -3.5939447,26.40141 2.422362,1.076616 7.3844539,-0.173904 7.3844539,-0.173904 0,0 -0.26915,-19.520547 2.332658,-23.109241 z"
       id="path39075"
       sodipodi:nodetypes="ccccc" />
    <path
       style="fill:#020201;stroke-width:0.247128"
       d="m 10.888435,112.50589 c -0.139666,-1.90288 -0.435406,-5.79515 -0.657201,-8.64947 C 9.23149,90.990886 9.794241,74.679567 11.488379,67.417422 c 0.325948,-1.397217 0.321073,-1.537315 -0.05828,-1.674051 -1.390851,-0.5013 -2.9385203,-1.224072 -3.6351712,-1.755433 L 6.9856674,63.370686 6.8695024,63.93425 c -0.063893,0.309972 -0.183891,1.397637 -0.266665,2.417049 -0.530612,6.534776 -3.5541545,25.809442 -3.5541545,21.665422 0,-0.48543 0.8632768,-8.187502 1.6083968,-11.910752 0.745111,-3.72325 0.974187,-8.391898 1.1783102,-10.139161 L 6.2065259,62.789941 4.8563416,61.26265 c -1.0905165,-1.233562 -2.366171,-3.774656 -2.366171,-4.32247 0,-0.132045 0.653576,-1.251119 1.452393,-2.4868 1.715052,-2.653015 3.8839094,-6.938684 4.8264164,-9.536993 0.637166,-1.756558 0.745783,-1.89745 2.077528,-2.694722 0.772871,-0.462695 3.370401,-2.152293 5.772298,-3.754687 4.651044,-3.10287 6.547214,-4.177097 7.373183,-4.177097 0.29915,-0.05803 0.729689,0.04023 1.092526,0.556261 0.376167,0.534962 1.083682,1.646784 1.833544,1.713788 0.749861,0.06701 1.403506,-0.495122 2.052982,-1.021745 0.528044,-0.428163 1.017658,-1.12168 2.010647,-0.739484 0.214583,0.194092 2.714582,1.219079 5.365034,2.468266 2.650444,1.249175 5.430634,2.563873 6.178201,2.921535 1.279859,0.612333 1.414287,0.765708 2.302761,2.627317 1.547714,3.242924 6.207764,11.585506 6.34389,11.738583 0.719183,0.808859 0.696473,2.081963 -1.014436,4.375923 -0.527869,0.707749 -1.34562,1.551709 -1.34562,1.804015 0,0.820147 3.231812,12.271356 4.931827,17.165259 1.582735,4.556268 2.220426,8.322325 1.62779,8.441156 -0.159807,0.03204 -6.579949,-19.447537 -7.220554,-24.005134 -0.178964,-1.273187 -0.574874,-0.720067 -1.491752,-0.114585 -0.821642,0.54259 -1.961156,1.113132 -2.538499,1.258499 l -1.049693,0.264312 1.428215,4.240098 c 0.785527,2.332057 1.155088,3.506236 1.764843,5.137289 14.549364,48.204396 -3.720989,63.017326 -13.657464,23.37899 -1.0537,-4.289614 -1.092744,-4.389168 -1.696337,-4.324744 -0.543803,0.05803 -0.653643,0.243586 -0.91676,1.548707 -0.960786,4.765607 -2.334281,13.974313 -2.672334,17.916773 -3.461729,19.7752 -15.809867,8.79605 -16.432368,0.86493 z M 35.668821,79.099054 c 2.99734,-0.690517 5.859742,-1.772079 7.144266,-2.664322 0.691945,-0.480638 1.806155,-1.201449 2.448427,-1.643174 0.339419,-0.233437 0.191351,-0.533291 0.111037,-0.79077 -0.06611,-0.211908 -0.24042,-0.829794 -1.330925,-3.901063 C 40.256945,59.440614 36.933182,45.404073 38.585,47.055891 c 0.143717,0.143708 0.622417,1.726049 1.063794,3.516319 0.765069,3.103296 1.144552,3.814045 1.147571,2.149331 0.0019,-1.004178 0.440888,-2.554135 0.783529,-2.765903 0.308501,-0.190666 0.08406,4.215073 -0.305634,5.998847 -0.17103,0.782934 -0.122199,1.359902 0.203966,2.409862 l 0.42884,1.380475 1.977022,-1.285829 c 1.087358,-0.707215 2.759121,-2.074311 3.715027,-3.038014 l 1.737999,-1.752185 -1.191316,-1.966685 c -0.65523,-1.081689 -2.037183,-3.667121 -3.070992,-5.745442 -2.222122,-4.467196 -1.93394,-3.935628 -7.925292,-7.090903 -4.594087,-2.419421 -5.140732,-2.170161 -5.394569,-1.742708 -0.704062,1.185615 -2.312274,3.100478 -4.93988,3.100823 -1.474971,1.94e-4 -2.828626,-0.890542 -4.697737,-3.600535 -0.272884,-0.39565 -0.75786,-0.128276 -5.683948,3.161879 -2.979527,1.990037 -5.593094,3.68533 -5.80793,3.76729 -0.214845,0.08192 -0.590651,0.783581 -0.835132,1.559167 -0.670399,2.126767 -2.202678,5.542198 -3.4796334,7.756048 l -1.139915,1.976289 0.671351,0.968762 c 0.773225,1.115751 4.5141614,4.37213 6.2108414,5.637976 1.330176,0.992406 1.442642,1.218342 0.518533,1.04169 -0.585354,-0.111909 -1.155456,-0.510936 -1.359261,-0.02619 -0.254429,0.605265 -0.239541,0.905914 -0.385734,1.179011 -0.249788,0.46673 0.490971,1.041309 1.061298,1.041309 0.560033,0 1.286864,-6.0346 1.014895,-8.426302 -0.383549,-3.37303 -0.371501,-5.731516 0.02858,-5.598423 0.401016,0.133412 0.614012,1.158641 0.650364,3.130494 0.03885,2.109516 0.136751,1.908872 0.754209,-1.546545 0.590108,-3.302364 1.118712,-4.843252 1.522846,-4.439114 0.178792,0.178774 0.18151,0.557328 0.0084,1.21761 -0.137872,0.526992 -0.815041,4.29439 -1.504811,8.372004 -0.68977,4.077607 -1.358421,7.803075 -1.485879,8.278786 -0.820823,3.063489 -1.67253,8.562388 -1.507394,10.504832 0.09399,1.105524 0.296796,1.2106 4.652744,2.410491 6.099752,0.720282 13.754429,1.877652 19.647069,0.508646 z M 18.627522,77.228402 c -2.136483,-2.245153 -4.647448,-10.56472 -3.188591,-10.56472 0.183677,0 0.608621,1.228225 1.073244,3.101987 0.514574,2.075239 0.915181,4.126765 1.711663,5.730112 0.538962,0.970176 0.970244,2.242543 0.403684,1.732621 z M 39.06509,75.976907 c 0,-0.211914 0.219984,-1.306333 0.48885,-2.432043 0.268861,-1.125697 0.561213,-2.845276 0.649657,-3.821284 0.173594,-1.9158 0.379846,-2.478423 0.810882,-2.212026 0.582556,0.360033 0.02279,5.334364 -0.829995,7.375275 -0.422994,1.01237 -1.119394,1.690532 -1.119394,1.090078 z M 20.480352,74.880689 c -1.182945,-1.262319 -2.145526,-3.729205 -1.536466,-3.937655 0.224672,-0.07687 1.691309,2.753655 2.168326,4.184781 0.193401,0.580223 0.114568,0.54939 -0.63186,-0.247126 z M 24.877649,58.61392 c -0.531349,-0.194683 -1.328167,-0.630136 -1.7707,-0.967676 -0.442542,-0.337552 -1.342291,-0.812882 -1.999444,-1.056322 -1.67359,-0.619953 -1.656983,-1.1684 -0.218321,-2.249792 2.121436,-1.59461 2.104858,-2.113484 1.934222,-2.895717 -0.545852,-2.502308 1.106738,-5.355975 3.468703,-4.279784 0.464756,0.211749 0.762499,0.184672 1.358565,-0.123566 2.619358,-1.354525 5.45749,1.207911 4.178192,3.772311 -0.336318,0.674177 -0.314897,0.782673 0.349886,1.772518 2.497485,3.718667 -2.451653,7.804835 -7.301103,6.028028 z m 0.473244,-1.423188 c -0.51917,-1.242552 -0.702043,-3.161917 -0.404069,-4.241076 0.376618,-1.364001 0.178063,-1.366131 -1.083295,-0.01163 -1.918211,2.059845 -1.057019,4.507982 1.782255,5.066518 0.02708,0.0057 -0.105657,-0.360891 -0.294891,-0.813791 z m 5.87813,-0.602361 c 1.190989,-1.316026 0.964982,-3.298741 -0.494372,-4.337082 -1.128826,-0.803171 -1.298606,-0.608316 -1.303769,1.496408 -0.0084,3.224333 0.592508,4.172889 1.798141,2.840674 z m -0.778016,-2.506344 c -0.426737,-0.263741 -0.264256,-1.133947 0.211727,-1.133947 0.412943,0 0.649495,0.808554 0.33002,1.128029 -0.115822,0.115831 -0.359603,0.118482 -0.541747,0.0057 z m -5.386291,-3.978785 c -0.172486,-0.862421 0.505823,-1.090307 0.727066,-0.244266 0.235796,0.901675 0.560844,0.511439 0.463167,-0.556044 -0.114232,-1.248374 -0.402231,-1.668102 -1.144549,-1.668102 -1.083686,0 -1.807894,1.4858 -1.506717,3.091226 l 0.162054,0.863825 0.723348,-0.374054 c 0.623146,-0.322234 0.702874,-0.476347 0.575631,-1.112585 z m 6.08358,0.513358 c 0.938482,-1.753558 -0.938031,-3.798409 -2.822201,-3.075393 -0.474421,0.182053 -1.123147,1.354314 -1.123147,2.029546 0,0.370005 0.983156,0.997237 1.114295,0.710894 0.66269,-1.446978 1.487295,-1.815687 1.285958,-0.574991 -0.111746,0.688579 -0.04112,0.881952 0.400138,1.095354 0.758961,0.367069 0.857858,0.351052 1.144957,-0.18541 z M 10.385545,61.58226 c -0.555531,-0.669372 -0.704872,-0.508731 -1.072122,1.153301 -0.111533,0.504784 -0.02316,0.697464 0.409505,0.892503 0.671883,0.302912 1.216467,-1.378461 0.662617,-2.045804 z m 33.931015,0.639943 c 1.327848,-0.678225 1.399305,-0.857639 0.592089,-1.80799 -0.698885,-0.822811 -0.604946,-1.036906 -1.160175,-0.636931 -0.436642,0.314547 -0.349239,0.40714 -0.129493,0.804061 0.952788,1.720997 1.136376,1.815935 0.46188,2.196274 -0.109427,0.0617 -0.727369,-1.008683 -1.034037,-1.554316 -0.351877,-0.670042 -0.493872,-0.795063 -0.921709,-0.535401 0.01508,0.282729 0.231253,0.648098 0.388554,1.234556 0.1573,0.586451 0.36318,1.028705 0.457517,0.98279 0.09434,-0.04583 0.699755,-0.353271 1.345374,-0.683043 z M 8.836013,61.856557 c 0.708049,-1.484789 -0.538784,-2.309678 -1.291366,-0.854342 -0.3657094,0.707202 -0.3633374,0.798829 0.03194,1.23563 0.594657,0.657079 0.792867,0.597072 1.259414,-0.381288 z M 7.378297,60.429715 c 0.386519,-0.637013 -0.0298,-1.674127 -0.6719954,-1.674127 -0.570468,0 -1.038807,1.528391 -0.612638,1.999304 0.533469,0.589477 0.765266,0.530799 1.2846334,-0.325177 z m 39.412353,0.117553 c 0.322645,-0.359327 0.574207,-0.402477 -0.165798,-1.290591 -0.800869,-0.961161 -0.933649,-0.734287 -1.369128,-0.501224 l -0.499565,0.486399 0.688437,0.906148 c 0.743766,0.978975 0.825902,0.978559 1.346054,0.399268 z m 1.524731,-1.278628 c 0.349575,-0.386273 0.186041,-0.964024 -0.172788,-1.374506 -0.35883,-0.410481 -0.714518,-0.901741 -1.344567,-0.370892 -0.637191,0.536867 -0.429535,0.59844 0.104883,1.503122 0.496064,0.839794 0.821251,0.895565 1.412472,0.242276 z M 5.8076646,58.873007 c 0.355303,-0.542245 0.363383,-0.688839 0.06174,-1.119519 -0.438376,-0.625871 -1.293757,0.423002 -1.027952,1.260488 0.205551,0.647615 0.475327,0.608259 0.966232,-0.140969 z M 49.55035,57.717316 c 0.397596,-0.519987 -0.773461,-2.168881 -1.261987,-1.729749 -0.533498,0.479557 -0.754157,0.631665 0.164452,1.573289 0.852964,0.991505 0.410681,1.054747 1.097535,0.15646 z M 4.9050386,56.41629 4.5534156,55.745184 4.1322526,56.387943 c -0.633822,0.967345 -0.118276,1.942158 0.630916,1.192962 0.447549,-0.447536 0.460757,-0.556 0.14187,-1.164615 z M 50.581121,56.150783 c 0.150699,-0.600397 -0.41779,-1.596375 -0.911178,-1.596375 -0.423745,0 -0.477898,0.997828 -0.08659,1.595072 0.521379,0.795702 0.798277,0.796064 0.997758,6.23e-4 z M 26.639408,38.430514 c 0,-1.327041 -0.485801,-1.836674 -1.267004,-0.81245 l -0.659097,0.864111 0.743061,0.635107 c 0.840991,0.718808 1.18304,0.333344 1.18304,-0.686768 z m 2.215181,0.736166 c 0.453413,-0.28317 0.261554,-0.534809 -0.240311,-1.213676 -0.783982,-1.060403 -1.411284,-0.931072 -1.411284,0.290956 -0.03023,1.215189 0.508286,1.798031 1.651595,0.92272 z m 1.493114,-1.092818 c 0.425375,-0.444459 1.489552,-1.761824 1.219404,-2.063023 -0.487275,-0.543282 -0.92277,-0.996463 -1.483583,-0.565318 -1.683732,1.294426 -1.591854,1.442866 -1.256155,2.092032 0.406006,0.785126 1.046727,1.106973 1.520334,0.536309 z m -5.483868,-0.9313 c 0.869262,-1.139668 0.571699,-1.558207 -0.4999,-0.703166 -0.670034,0.534631 -0.786862,0.752851 -0.595004,1.111346 0.316206,0.59083 0.339566,0.582123 1.094904,-0.40818 z m -0.71808,-1.220121 c 1.044999,-0.710088 0.699428,-1.087409 -0.457122,-0.499134 -1.023395,0.52056 -1.015204,0.512291 -0.82059,0.82719 0.223448,0.361527 0.286859,0.345249 1.277712,-0.328056 z m 1.423625,-1.536032 c -30.6687694,-57.162267 -15.334385,-28.581133 0,0 z"
       id="path2546"
       sodipodi:nodetypes="csssscssssscsssssscssscssssssssssscsccssccccssssscssscsscssssssscsscsssscsssssscsssscccssccsssssssssssssssssssssscsssccscssccssssscssssssssssssssssssscccssssssssssssscssssssssssssscscccssscssccsccssccsccssscssssssssscc" />
    <path
       style="display:inline;fill:none;stroke:#000000;stroke-width:0.888472;stroke-linecap:butt;stroke-linejoin:miter;stroke-miterlimit:4;stroke-dasharray:none;stroke-opacity:1"
       d="m 24.395545,32.801955 0.31659,2.225488"
       id="path32011-8"
       inkscape:export-filename="C:\Users\megha\Desktop\Portfolio\images\cartoon-meghans\standing2.png"
       inkscape:export-xdpi="99.938736"
       inkscape:export-ydpi="99.938736" />
    <path
       style="display:inline;fill:none;stroke:#000000;stroke-width:0.888472;stroke-linecap:butt;stroke-linejoin:miter;stroke-miterlimit:4;stroke-dasharray:none;stroke-opacity:1"
       d="m 29.575379,32.259212 0.383638,2.82971"
       id="path32013-9"
       inkscape:export-filename="C:\Users\megha\Desktop\Portfolio\images\cartoon-meghans\standing2.png"
       inkscape:export-xdpi="99.938736"
       inkscape:export-ydpi="99.938736" />
    <path
       style="fill:#000000;stroke:#000000;stroke-width:0.211516px;stroke-linecap:butt;stroke-linejoin:miter;stroke-opacity:1"
       d="m 19.419019,9.462045 c 0.133532,-0.255272 1.317413,1.187954 1.650388,1.430902 0.332977,0.242946 -0.60435,0.621351 -0.60435,0.621351 0,0 -1.088393,-2.144039 -1.046038,-2.052253 z"
       id="path4808" />
    <path
       style="fill:#000000;stroke:#000000;stroke-width:0.264583px;stroke-linecap:butt;stroke-linejoin:miter;stroke-opacity:1"
       d="m 30.898372,37.504687 c -0.653193,1.132747 0.05754,0.232868 0.314193,-0.157097 1.810528,-2.750957 0.448772,0.801784 -0.934311,-0.876432 -1.226468,-1.488182 -0.810286,-0.719336 -0.810286,-0.719336 0,0 -0.869316,0.80156 -0.595312,0.56224 0.65319,-0.570508 2.025716,1.190625 2.025716,1.190625 z"
       id="path13112"
       sodipodi:nodetypes="csscsc" />
  </g>
</svg>
