<?xml version="1.0" encoding="UTF-8" standalone="no"?>
<!-- Created with Inkscape (http://www.inkscape.org/) -->

<svg
   width="140mm"
   height="70mm"
   viewBox="0 0 140 70"
   version="1.1"
   id="svg932"
   inkscape:version="1.1 (c68e22c387, 2021-05-23)"
   sodipodi:docname="peep.svg"
   xmlns:inkscape="http://www.inkscape.org/namespaces/inkscape"
   xmlns:sodipodi="http://sodipodi.sourceforge.net/DTD/sodipodi-0.dtd"
   xmlns="http://www.w3.org/2000/svg"
   xmlns:svg="http://www.w3.org/2000/svg">
  <sodipodi:namedview
     id="namedview934"
     pagecolor="#ffffff"
     bordercolor="#666666"
     borderopacity="1.0"
     inkscape:pageshadow="2"
     inkscape:pageopacity="0.0"
     inkscape:pagecheckerboard="0"
     inkscape:document-units="mm"
     showgrid="false"
     inkscape:zoom="3.4327446"
     inkscape:cx="240.9151"
     inkscape:cy="165.61092"
     inkscape:window-width="1547"
     inkscape:window-height="981"
     inkscape:window-x="355"
     inkscape:window-y="0"
     inkscape:window-maximized="0"
     inkscape:current-layer="layer17"
     inkscape:snap-nodes="false"
     inkscape:snap-others="false"
     inkscape:snap-global="false"
     height="200mm" />
  <defs
     id="defs929" />
  <g
     inkscape:groupmode="layer"
     id="layer17"
     inkscape:label="peeping-over"
     style="display:inline">
    <path
       id="path90850"
       style="display:inline;fill:#f9cfbc;stroke-width:0.910135;stroke-linecap:round;stroke-dashoffset:2.38337;paint-order:markers stroke fill"
       d="m 89.524946,47.240632 c 0,-12.884407 -14.13647,-19.948893 -26.070388,-19.948893 -11.933918,0 -23.230857,10.444875 -23.230858,23.329281 0,12.884405 4.054458,8.778639 5.373957,11.280132 18.468926,-0.06333 30.138633,0.01703 37.057506,-0.01284 6.086418,-0.02627 6.869783,-8.205259 6.869783,-14.647463 z"
       sodipodi:nodetypes="ssscsss" />
    <path
       style="display:inline;fill:#a6743f;fill-opacity:1;stroke:none;stroke-width:0.23208px;stroke-linecap:butt;stroke-linejoin:miter;stroke-opacity:1"
       d="m 83.038481,61.890281 6.837256,0.02165 c 0,0 3.314097,-1.920985 1.784306,-4.789339 3.155191,-2.199067 6.11915,-5.641094 4.589364,-8.987506 1.816624,-2.00785 3.442029,-2.677132 3.155192,-5.73671 C 99.117771,39.338824 87.070668,32.550383 84.680374,28.247853 82.290079,23.945321 76.362145,13.619246 64.410668,14.670976 52.459194,15.722705 49.20839,18.399836 41.176999,26.431228 c -2.677132,2.677131 -9.274348,9.848018 -8.509453,19.600422 0.764894,9.752404 3.492232,11.226188 3.492232,11.226188 l 3.110782,4.64676 6.300357,-0.0051 c 0,0 -1.16702,-6.067644 -1.90801,-6.975951 -1.463074,-1.793437 -4.11131,-3.155193 -3.442026,-6.78844 0.669282,-3.63325 3.920082,-1.147343 3.920082,-1.147343 0,0 -2.294682,-8.605063 6.884052,-14.054938 7.457721,18.835529 29.109734,12.379284 32.860472,12.969405 -0.09855,3.202678 0.984583,-0.995791 2.450895,2.036462 0.575995,1.191129 1.116733,2.777932 -1.560397,6.984854 -0.302207,2.568228 -0.09885,4.692931 -1.805112,6.679402 z"
       id="path91963"
       sodipodi:nodetypes="ccccssssscccsscccsccc" />
    <path
       style="display:inline;fill:#f9cfbc;fill-opacity:1;stroke:none;stroke-width:0.23208px;stroke-linecap:butt;stroke-linejoin:miter;stroke-opacity:1"
       d="m 31.923287,61.880825 -7.200227,0.03377 c 0,0 -0.574665,2.298659 -1.690194,2.332465 -1.115528,0.03377 -2.231056,-3.07616 -2.636703,-2.501493 -0.405646,0.574667 -1.419762,2.433882 -2.467683,2.433882 -1.04792,0 -1.994429,-2.873327 -2.535291,-2.467678 -0.540862,0.405639 -3.380388,1.521167 -3.92125,0.980306 -0.540863,-0.540861 1.014116,-6.219912 2.974741,-6.591756 1.960625,-0.371843 2.501488,-1.622585 3.346585,-1.89302 0.845097,-0.270426 2.467682,2.366271 2.771918,1.521177 0.304235,-0.845093 2.87333,-4.529719 6.591758,-0.135213 3.718425,4.394505 4.766346,6.287524 4.766346,6.287524 z"
       id="path95365" />
    <path
       style="display:inline;fill:#f9cfbc;fill-opacity:1;stroke:none;stroke-width:0.23208px;stroke-linecap:butt;stroke-linejoin:miter;stroke-opacity:1"
       d="m 100.13543,61.894929 h 5.88187 c 0,0 1.04793,2.771918 2.63671,2.636705 1.58877,-0.135222 1.52117,-0.912704 1.52117,-0.912704 0,0 2.77191,0.439445 3.27897,-0.507066 0.50707,-0.946509 0.8451,-2.36627 0.8451,-2.36627 0,0 3.54941,1.250742 4.19168,0.70988 0.64228,-0.540861 -1.85921,-4.631133 -2.46768,-4.732541 -0.60847,-0.101407 -1.96063,0.169019 -2.46768,0.507056 -0.50706,0.338038 -1.41977,-1.960622 -2.02824,-2.129641 -0.60846,-0.169018 -2.02823,0.845094 -2.02823,0.845094 0,0 -2.36627,-1.352159 -3.07615,-1.047918 -0.70988,0.304232 -4.49592,1.960623 -6.28752,6.997405 z"
       id="path99651" />
    <ellipse
       style="display:inline;fill:#ffffff;fill-opacity:1;stroke:none;stroke-width:0.964871;stroke-linecap:round;stroke-miterlimit:4;stroke-dasharray:none;stroke-dashoffset:2.38337;paint-order:markers stroke fill"
       id="path104171"
       cx="56.092445"
       cy="48.326332"
       rx="8.1270046"
       ry="11.664641" />
    <ellipse
       style="display:inline;fill:#ffffff;fill-opacity:1;stroke:none;stroke-width:0.964871;stroke-linecap:round;stroke-miterlimit:4;stroke-dasharray:none;stroke-dashoffset:2.38337;paint-order:markers stroke fill"
       id="path104171-8"
       cx="71.67717"
       cy="46.796551"
       rx="8.1270046"
       ry="11.664641" />
    <path
       style="fill:#000000;stroke-width:0.34018"
       d="m 106.84032,64.762224 c -1.62687,-1.626862 -2.60617,-5.766434 -1.30489,-5.515821 0.35443,0.06826 0.89404,0.936044 1.39047,2.236114 1.38907,3.637703 2.82517,2.437431 2.2823,-1.90751 -0.40569,-3.247108 -1.45507,-4.481079 -3.39635,-3.993843 -0.91907,0.230671 -3.26001,3.035377 -4.15543,4.978654 -0.22184,0.481478 -0.67844,1.130163 -0.89807,1.3434 -0.1515,-0.0064 -0.20227,-0.009 -0.47962,-0.0064 -0.21048,0.0025 -0.624805,0.0013 -0.779013,-0.01286 0.0038,-0.08216 0.01359,-0.139913 0.01359,-0.201099 0,-0.781398 2.622873,-4.672975 4.047913,-6.005934 1.86565,-1.745096 3.01053,-2.00921 4.76859,-1.100076 0.83069,0.429573 1.04399,0.431013 1.59897,0.01028 1.13179,-0.856934 2.12979,-0.615579 2.90794,0.703289 0.51581,0.874226 0.86647,1.145165 1.26422,0.976789 1.49053,-0.630969 2.02701,-0.536212 3.0552,0.539693 0.5737,0.600329 1.36438,1.755185 1.75707,2.566386 0.58328,1.2049 0.6415,1.610326 0.31797,2.214821 -0.34041,0.636059 -0.59633,0.712483 -1.82293,0.544349 -0.78483,-0.107615 -1.68792,-0.295729 -2.00688,-0.418116 -0.45508,-0.174627 -0.88054,-0.08383 -0.86023,0.611745 0.0351,1.200002 -1.81617,2.285716 -2.59435,2.217972 -0.90839,-0.07907 -1.66714,0.009 -2.06632,0.300409 -0.85477,0.625002 -2.37331,0.583216 -3.04017,-0.0837 z m 6.12655,-3.79154 c 0,-2.60385 -0.7425,-4.209292 -1.34939,-5.028168 -0.46565,-0.628319 -0.53249,-0.634324 -1.07802,-0.09694 -0.4863,0.479073 -0.51689,0.729904 -0.18662,1.530819 0.21723,0.526824 0.45284,1.952876 0.52355,3.169028 0.0707,1.216137 0.14536,2.249434 0.16584,2.296208 0.0204,0.0468 0.82946,0.04989 1.16705,-0.05515 0.4959,-0.222186 0.90449,-0.577765 0.75759,-1.815786 z m 4.91621,-0.277497 c 0,-0.344883 -0.74787,-1.654595 -1.58671,-2.778748 -0.71889,-0.963378 -0.90397,-1.04839 -1.48813,-0.683578 -1.38969,0.867873 -0.5565,2.850373 1.39056,3.308746 1.56015,0.367305 1.68428,0.378619 1.68428,0.15358 z M 15.73256,64.120873 c -0.255839,-0.596958 -0.83499,-0.976068 -0.83499,-1.148483 0,-0.172415 -0.673542,-0.07124 -1.496762,0.224756 -1.204209,0.433031 -1.669641,0.459453 -2.381263,0.13522 -1.1295924,-0.514674 -1.1629391,-1.8919 -0.108645,-4.487205 0.779856,-1.919732 2.407732,-3.414345 3.718761,-3.414345 0.35861,0 1.038445,-0.459246 1.510746,-1.020541 0.955667,-1.135754 1.96147,-1.29112 3.117304,-0.481541 0.726463,0.508837 0.808246,0.489796 1.461105,-0.340175 0.804282,-1.022484 2.65977,-1.191504 4.480142,-0.408102 1.670091,0.718731 4.524969,3.547738 5.855256,5.802224 0.671417,1.137876 1.054428,2.289214 1.249264,2.91419 -0.305648,0.0025 -0.287872,4.64e-4 -0.671596,-0.0025 -0.19456,0 -0.306824,0.0025 -0.529035,0.0013 -0.206288,-0.229385 -0.490674,-0.91893 -0.67805,-1.34363 -1.337643,-3.031811 -5.62061,-6.648486 -7.603774,-6.420848 -1.190063,0.136608 -1.75345,1.583777 -1.781001,4.57486 -0.01902,2.064175 0.709721,4.548934 1.334116,4.548934 0.495625,0 0.935866,-1.024359 1.201444,-2.79553 0.301122,-2.008207 1.031814,-2.760221 1.49591,-1.539561 0.567724,1.493236 -0.666313,5.368645 -1.854739,5.824676 -1.14394,0.438971 -1.898285,0.192177 -2.466889,-0.807073 -0.575728,-1.011772 -0.817243,-1.185061 -1.089765,-0.682512 -0.31238,0.576041 -1.368806,1.700907 -2.226635,1.700907 -0.476253,0 -1.445067,-0.238038 -1.700901,-0.834986 z m 3.666619,-5.448282 c 0.129578,-2.449551 0.07148,-2.792184 -0.5627,-3.319265 -0.388958,-0.323256 -0.873974,-0.591148 -1.077816,-0.595315 -0.675624,-0.01375 -1.233319,1.827062 -1.416272,4.674853 -0.155633,2.422543 -0.09309,2.908146 0.452239,3.510712 0.696942,0.544195 0.932054,0.498501 1.546456,-0.420083 0.687861,-1.028423 0.934364,-1.511932 1.058093,-3.850902 z m -5.006563,2.090274 c 0.647208,-0.92401 0.688628,-3.971331 0.05399,-3.971331 -0.248034,0 -0.768399,0.344433 -1.156367,0.765402 -0.777193,0.843312 -1.909554,3.875867 -1.62137,4.34216 0.280875,0.454464 3.709769,-1.136231 2.723756,-1.136231 z m 24.146732,1.138106 c -0.92333,-1.072509 -2.254638,-2.840227 -2.445927,-4.129285 l -0.234418,-1.34489 1.002851,1.530805 c 0.551572,0.841951 1.417486,2.194652 2.101825,3.007524 0.684336,0.812872 0.790217,0.876819 0.790217,0.952663 -0.647042,-0.0092 -0.855203,-0.01771 -1.214548,-0.01681 z m 5.437729,-0.01 c -0.297415,-0.982278 -0.766656,-3.128694 -0.87749,-4.387658 -0.166522,-1.891516 -0.33809,-2.378521 -0.98797,-2.804339 C 39.88,53.236807 38.62655,50.384678 39.230253,48.142693 c 0.494207,-1.835341 1.726515,-2.936254 2.978832,-2.661198 l 0.970125,0.213068 0.399274,-2.509458 c 0.407042,-2.558301 1.332645,-4.994191 1.897721,-4.994191 0.172465,0 0.207565,0.267894 0.078,0.595315 -1.013597,2.561542 -1.503597,7.807658 -0.795398,8.515859 0.746552,0.746542 -0.01841,0.838021 -0.940778,0.112501 -0.502835,-0.395524 -1.181017,-0.719127 -1.507074,-0.719127 -1.147827,0 -1.892297,1.74214 -1.542121,3.608733 0.25909,1.38107 2.035431,3.535053 2.915276,3.535053 0.658423,0 0.711339,0.161666 1.391676,4.252252 0.217825,1.309688 0.625414,3.084412 0.879928,3.809558 -0.705612,-0.0091 -1.307105,0.01095 -1.978642,-0.01005 z m 38.36023,-0.302726 c 0.537212,-0.778346 0.631208,-2.532897 0.779727,-4.006205 0.235403,-2.335126 0.431613,-2.898825 1.529511,-4.394466 1.498862,-2.041867 2.048969,-4.975802 1.083223,-5.777308 -0.461558,-0.383054 -0.681566,-0.367949 -1.388639,0.0954 -1.030848,0.675441 -1.236523,0.690136 -0.999078,0.07136 0.264953,-0.690471 2.023593,-1.333793 2.985909,-1.092272 1.510625,0.379147 2.060434,3.624933 1.00656,5.942331 -0.310653,0.683116 -0.980622,1.701279 -1.48881,2.262574 -0.732607,0.809154 -0.968509,1.482745 -1.138905,3.251961 -0.118161,1.227285 -0.208083,2.031106 -0.44751,2.861939 -0.192868,0.669244 -0.277702,0.768548 -0.419082,1.106616 -0.735344,0.02119 -1.711589,-0.01957 -1.711589,-0.01957 z m 6.678145,-0.112268 c 1.243707,-0.775345 2.150692,-0.747101 1.900519,-2.612619 -0.116231,-0.866885 -0.33373,-1.193772 -0.718977,-2.111405 -1.044189,-2.487219 0.21064,-0.746579 1.038401,-0.990237 1.50509,-0.443021 4.129864,-3.442102 4.129864,-4.716419 0,-0.53117 0.130185,-1.733787 -0.177126,-2.485858 -1.418457,-3.471359 -0.894464,-2.261873 0.05116,-1.864034 1.295582,0.545043 2.865456,-3.062588 2.865456,-4.35344 0,-1.467034 -1.599296,-3.066702 -5.211427,-5.212635 -1.324432,-0.78681 -3.072818,-2.043332 -3.885308,-2.792253 -1.659107,-1.529326 -5.224736,-6.260549 -6.804665,-9.029144 -2.516878,-4.410474 -6.99858,-8.187436 -10.954257,-9.231737 -6.11376,-1.61403 -14.499792,-0.591547 -20.075664,2.44777 -3.532269,1.92538 -6.913112,4.792281 -9.283506,7.872266 -0.701623,0.911653 -1.275675,1.442539 -1.275675,1.17974 0,-0.887034 2.077232,-3.761391 4.191893,-5.800494 3.53624,-3.409888 6.019666,-4.866726 11.456405,-6.720581 2.932042,-0.99979 3.626021,-1.104822 7.48397,-1.132708 4.673344,-0.03381 6.805729,0.35383 10.11578,1.838748 2.257214,1.012621 5.360302,3.255872 7.098864,5.131842 1.060321,1.144151 5.212748,6.722818 6.412562,8.615117 1.356658,2.13971 3.817388,4.349299 6.876531,6.174753 4.931987,2.943016 6.894488,5.78558 5.915568,8.568355 -0.242559,0.689572 -1.028115,2.041545 -1.74567,3.004384 -1.110915,1.490692 -1.27559,1.929375 -1.109216,2.95466 0.266241,1.64062 -0.846532,3.853577 -2.880032,5.727542 -1.566044,1.443184 -1.598937,1.515749 -1.598937,3.528482 0,0.378138 -0.007,1.342537 -0.284575,1.692823 -0.617139,0.778448 -1.045172,0.793319 -2.802339,0.769095 -1.616411,-0.02225 -1.367885,-0.05408 -1.362072,-0.0577 z M 52.38284,60.552176 c -1.918281,-1.097217 -3.09773,-2.748597 -4.308592,-6.032599 -0.945841,-2.565232 -1.071827,-3.333001 -1.116394,-6.803596 -0.04654,-3.624422 0.01949,-4.061118 0.897862,-5.938939 0.521452,-1.114772 1.55996,-2.837278 2.307791,-3.827773 1.113057,-1.47422 1.295889,-1.920121 1.007941,-2.458157 -0.193468,-0.361494 -0.348181,-1.317929 -0.343809,-2.125401 l 0.008,-1.468126 0.929039,1.700907 0.929044,1.700893 2.379769,0.01543 c 2.854437,0.01839 4.056013,0.561886 6.500733,2.940149 l 1.739693,1.692409 1.048079,-1.703337 c 0.682347,-1.108961 1.618462,-2.038615 2.682649,-2.664143 1.402789,-0.824585 1.997872,-0.960807 4.196895,-0.960807 2.386072,0 2.676278,0.0819 4.218788,1.190629 1.951746,1.402889 3.777655,4.425994 4.103298,6.793764 0.302942,2.202569 0.549115,2.461886 2.516448,2.650926 0.955439,0.0918 1.737176,0.304318 1.737176,0.472246 0,0.42304 -1.542685,0.968842 -2.738386,0.968842 h -0.993183 l 0.211876,2.027132 c 0.250332,2.394936 -0.296775,5.516975 -1.406506,8.026267 -1.345501,3.042415 -4.82159,4.479665 -8.626609,3.566855 -1.376383,-0.330186 -2.059521,-0.780711 -3.544625,-2.337694 -1.011813,-1.060771 -1.941629,-2.158057 -2.066264,-2.438422 -0.163081,-0.366829 -0.2809,-0.394535 -0.420276,-0.09887 -0.106521,0.226003 -0.956417,1.398941 -1.88866,2.60653 -1.993009,2.581645 -3.381194,3.278558 -6.514113,3.270291 -1.562325,-0.0039 -2.468328,-0.205278 -3.447626,-0.765416 z m 7.34649,-3.036701 c 3.215099,-2.634533 4.2928,-6.690804 3.186596,-11.993757 -0.81676,-3.915395 -2.33223,-6.586081 -4.309409,-7.594408 -4.596674,-2.344204 -8.648914,0.476565 -9.825765,6.839715 -0.580468,3.138562 -0.288881,6.369947 0.818634,9.072199 1.596522,3.895376 3.343151,5.196193 6.718308,5.003488 1.619141,-0.09245 2.162864,-0.303957 3.411636,-1.327237 z m 15.228186,0.202127 c 2.140887,-0.85661 3.407548,-4.066157 3.410189,-8.640907 0.0035,-5.859042 -1.407033,-9.879942 -4.116666,-11.736227 -1.239022,-0.848809 -1.805479,-1.014614 -3.366184,-0.985365 -2.357581,0.04422 -3.827872,0.794062 -4.984852,2.542385 -1.173252,1.772895 -1.432617,3.438984 -0.896186,5.756869 0.238153,1.029041 0.435398,3.290033 0.43832,5.024415 0.0047,2.805753 0.102935,3.308072 0.890758,4.55607 2.291413,3.629823 5.260518,4.828809 8.624621,3.48276 z M 33.569522,54.686734 c -2.001921,-1.402208 -3.181011,-9.506079 -2.033437,-13.975787 0.547498,-2.132446 2.29544,-5.449233 4.070259,-7.723456 1.462264,-1.873734 1.532254,-1.285477 0.120653,1.014049 -0.667896,1.088016 -1.446577,2.973242 -1.730403,4.189381 -0.663913,2.844761 -0.649208,8.2667 0.03183,11.736226 1.069103,5.446496 1.034479,5.805585 -0.458898,4.759587 z m 9.762383,-20.92529 c -0.822505,-1.536861 1.478427,-4.938726 3.170754,-4.687855 1.087073,0.161138 1.048177,0.836001 -0.08682,1.506466 -0.650783,0.38443 -1.248183,1.162087 -1.5996,2.082251 -0.683667,1.790162 -0.992227,2.018647 -1.484328,1.099138 z m 36.375152,-0.92032 c -0.268488,-0.331844 -0.785421,-1.189613 -1.14872,-1.906158 -0.363309,-0.716545 -1.100872,-1.673303 -1.639023,-2.126134 -0.391868,-0.33712 -0.632278,-0.840841 0.08447,-0.823324 1.307423,0 2.469555,1.162895 3.278221,3.280364 0.641234,1.679036 0.289293,2.643378 -0.574904,1.575252 z"
       id="path85881"
       sodipodi:nodetypes="cssssscccssscssssssssscccssssscccssssssscssssssssccccssssssssssssscsccsscsssscscsscccsccsssssssssscscccssssscscsccccsssssssssssssscssssssssssscssscsssccccscsssssssscssssssscsssssssssssssscsssssssccsssssccsssccssssccss" />
    <ellipse
       style="display:inline;fill:#f9cfbc;fill-opacity:1;stroke:#000000;stroke-width:2.54374;stroke-linecap:round;stroke-miterlimit:4;stroke-dasharray:none;stroke-opacity:1;paint-order:markers stroke fill"
       id="path2451-6-0-0"
       cx="64.464691"
       cy="57.087502"
       rx="0.56717777"
       ry="0.59110981"
       inkscape:export-filename="C:\Users\megha\Desktop\Portfolio\images\cartoon-meghans\standing2.png"
       inkscape:export-xdpi="99.938736"
       inkscape:export-ydpi="99.938736" />
    <path
       style="display:inline;fill:#000000;stroke:#000000;stroke-width:0.321924px;stroke-linecap:butt;stroke-linejoin:miter;stroke-opacity:1"
       d="m 55.496061,36.621594 c 2.625848,-1.031586 4.291139,1.152828 4.572479,4.997821 0.281342,3.844992 -1.611332,7.270329 -3.674497,7.55167 -2.063168,0.281342 -2.893228,-0.569266 -3.439473,-2.039434 -0.607389,-1.63473 0.782421,-3.842234 0.782421,-5.342718 0,-1.500485 -0.210316,-4.32332 1.75907,-5.167339 z"
       id="path105538"
       sodipodi:nodetypes="cssssc" />
    <path
       style="display:inline;fill:#000000;stroke:#000000;stroke-width:0.321924px;stroke-linecap:butt;stroke-linejoin:miter;stroke-opacity:1"
       d="m 71.453719,48.675148 c -3.043728,0.231548 -5.234124,-3.001349 -4.323576,-9.850993 0.576384,-4.335862 5.257284,-4.606889 5.483633,2.424618 0.06993,2.172612 3.240605,6.727113 -1.160057,7.426375 z"
       id="path105540"
       sodipodi:nodetypes="cssc" />
  </g>
</svg>
