<?xml version="1.0" encoding="UTF-8" standalone="no"?>
<!-- Created with Inkscape (http://www.inkscape.org/) -->

<svg
   width="160mm"
   height="140mm"
   viewBox="0 0 160 140"
   version="1.1"
   id="svg932"
   inkscape:version="1.1 (c68e22c387, 2021-05-23)"
   sodipodi:docname="pop-in-side.svg"
   xmlns:inkscape="http://www.inkscape.org/namespaces/inkscape"
   xmlns:sodipodi="http://sodipodi.sourceforge.net/DTD/sodipodi-0.dtd"
   xmlns="http://www.w3.org/2000/svg"
   xmlns:svg="http://www.w3.org/2000/svg">
  <sodipodi:namedview
     id="namedview934"
     pagecolor="#ffffff"
     bordercolor="#666666"
     borderopacity="1.0"
     inkscape:pageshadow="2"
     inkscape:pageopacity="0.0"
     inkscape:pagecheckerboard="0"
     inkscape:document-units="mm"
     showgrid="false"
     inkscape:zoom="0.60682925"
     inkscape:cx="88.163185"
     inkscape:cy="500.14069"
     inkscape:window-width="1920"
     inkscape:window-height="991"
     inkscape:window-x="-9"
     inkscape:window-y="-9"
     inkscape:window-maximized="1"
     inkscape:current-layer="layer7"
     inkscape:snap-nodes="false"
     inkscape:snap-others="false"
     inkscape:snap-global="false"
     height="200mm" />
  <defs
     id="defs929" />
  <g
     inkscape:groupmode="layer"
     id="layer7"
     inkscape:label="pop-in-side"
     style="display:inline"
     sodipodi:insensitive="true">
    <path
       id="path47806"
       style="fill:#f9cfbc;fill-opacity:1;stroke:none;stroke-width:2.05286;stroke-linecap:round;stroke-miterlimit:4;stroke-dasharray:none;stroke-dashoffset:2.38337;stroke-opacity:1;paint-order:markers stroke fill"
       d="m 133.85187,89.726383 c -2.40373,0.70568 -2.58128,3.75193 -3.41877,5.7495 -0.66542,2.187273 -1.2037,4.410043 -1.79956,6.616607 -3.91627,2.38908 -8.22195,4.04717 -12.7239,4.91312 -2.63652,0.59442 -5.33829,0.85307 -8.03427,0.78294 -2.55471,0.59408 -3.88317,3.1861 -5.95275,4.59627 -3.246146,2.83867 -6.926576,5.12193 -10.236466,7.87283 -1.09899,2.96411 3.37446,3.08736 5.23898,3.66487 4.461396,1.1644 9.177096,1.30453 13.712856,0.53242 8.66294,-2.08101 15.98354,-7.53435 24.33188,-10.42617 4.60766,-1.47929 9.47986,-1.39521 14.23633,-1.8843 1.51309,-0.38613 6.09264,-1.66097 3.02932,-2.8653 -1.9805,-1.58221 -4.46392,-2.23127 -6.64596,-3.4487 3.01845,-1.68067 6.90407,-1.22806 9.7314,-3.09147 1.04019,-2.788504 -2.97531,-2.765434 -4.77985,-2.55734 -2.53496,0.12419 -5.05537,0.49709 -7.52665,1.0717 3.22977,-1.966024 6.98259,-3.259524 9.70047,-5.949127 1.56524,-2.7165 -2.38525,-3.31798 -4.16904,-2.4038 -3.97304,0.89782 -7.50992,3.09306 -11.46225,4.03947 -1.22592,-2.17962 0.15814,-6.86775 -3.23177,-7.21352 z" />
    <path
       style="fill:#d9b100;fill-opacity:1;stroke:#000000;stroke-width:0.729597px;stroke-linecap:butt;stroke-linejoin:miter;stroke-opacity:1"
       d="m 86.237194,62.649025 c 0,0 5.33787,1.31104 6.36798,3.93315 1.03013,2.62212 -0.27661,5.29577 4.77599,5.52516 2.06024,0.0935 1.31104,7.02353 1.31104,7.02353 0,0 -11.4249,-1.03011 -12.6423,-4.21412 -1.2174,-3.18399 0.18724,-9.74629 0.18724,-9.74629 z"
       id="path54979"
       sodipodi:nodetypes="csscscc" />
    <path
       id="path73559"
       style="fill:#a8d6cd;fill-opacity:1;stroke:none;stroke-width:2.05286;stroke-linecap:round;stroke-miterlimit:4;stroke-dasharray:none;stroke-dashoffset:2.38337;stroke-opacity:1;paint-order:markers stroke fill"
       d="m 74.684646,73.827685 c -2.526398,0.0871 -4.642364,1.63679 -6.830274,2.71807 -0.54806,0.29098 -1.09612,0.58195 -1.64418,0.87293 2.112988,0.11278 3.59779,1.34056 5.714032,1.37398 -0.02868,0.78482 0.953575,0.56815 1.689975,0.90837 0.790226,0.36091 1.703963,-0.0356 2.236084,-0.67496 1.069292,-1.09074 1.474042,-2.94466 0.680122,-4.29643 -0.374339,-0.64532 -1.125987,-0.92879 -1.845759,-0.90196 z"
       sodipodi:nodetypes="cccccccc" />
    <path
       id="path73598"
       style="fill:#a8d6cd;fill-opacity:1;stroke:none;stroke-width:1.02643;stroke-linecap:round;stroke-miterlimit:4;stroke-dasharray:none;stroke-dashoffset:2.38337;stroke-opacity:1;paint-order:markers stroke fill"
       d="m 76.12816,78.748195 c -1.035426,0.003 -2.186311,0.74178 -2.171806,1.86399 0.0017,0.57982 0.223084,1.16213 0.655603,1.55602 -0.947902,0.77065 -0.992408,2.37412 -0.02482,3.14781 0.826764,0.81802 2.164888,0.61504 3.022428,-0.0441 1.118839,-0.81568 2.068149,-2.01003 2.338989,-3.38979 0.18365,-1.35637 -1.04458,-2.39505 -2.20078,-2.83033 -0.514619,-0.19964 -1.065849,-0.32522 -1.620224,-0.30352 z" />
    <path
       style="fill:#d9b100;fill-opacity:1;stroke:#000000;stroke-width:0.729597px;stroke-linecap:butt;stroke-linejoin:miter;stroke-opacity:1"
       d="m 36.604404,44.949795 8.990088,2.52844 -2.434814,13.39149 -8.428207,2.52847 -1.217416,-2.52847 z"
       id="path57526" />
    <path
       style="fill:#d9b100;fill-opacity:1;stroke:#000000;stroke-width:0.729597px;stroke-linecap:butt;stroke-linejoin:miter;stroke-opacity:1"
       d="m 103.56184,101.98068 c 0,0 4.68235,4.77601 3.83954,5.71247 -0.84284,0.93646 -24.629106,20.13405 -29.592396,19.94676 -2.622108,-4.12045 -1.966587,-7.39808 -1.966587,-7.39808 z"
       id="path52994" />
    <path
       style="fill:#a6743f;fill-opacity:1;stroke:none;stroke-width:0.729597px;stroke-linecap:butt;stroke-linejoin:miter;stroke-opacity:1"
       d="m 117.60467,70.042225 c 0,0 4.37042,8.07861 13.11122,6.09208 6.62183,1.19192 10.99225,-0.265 12.31661,-4.63528 1.32436,-4.37041 8.3435,-4.50286 8.3435,-9.403 0,-4.90016 -4.76772,-9.13813 -4.50284,-11.65441 0.26473,-2.51631 2.91361,-25.29538 -6.22452,-31.65236 -9.13811,-6.356941 -15.09778,-12.4490228 -31.78477,-7.813742 -7.73026,-1.6088185 -17.614056,2.921251 -21.719606,8.218722 -4.10553,5.29745 -8.07861,12.30894 -7.41645,18.00372 0.6622,5.69477 3.31092,15.49508 6.35697,18.80599 3.04603,3.31092 6.62181,2.25142 6.62181,2.25142 z"
       id="path39854"
       sodipodi:nodetypes="cccscscscccc" />
    <path
       id="path39737"
       style="fill:#f9cfbc;stroke-width:8.15461;stroke-linecap:round;stroke-dashoffset:2.38337;paint-order:markers stroke fill"
       d="m 139.8207,53.734085 c 1.73238,1.80214 -10.20427,17.71776 -24.27202,17.71776 -14.06776,0 -26.980676,-11.69349 -25.471916,-25.94018 0.21067,-1.98959 1.0288,-4.60566 2.35727,-7.41059 1.32845,-2.80494 3.16725,-5.79877 5.41933,-8.54387 2.252076,-2.74512 4.917456,-5.24154 7.899006,-7.0517 0.64041,3.80868 12.219,19.85143 15.32147,21.50783 13.50588,7.21079 14.94409,5.76485 18.74686,9.72075 z"
       sodipodi:nodetypes="ssssscss" />
    <path
       id="path52721"
       style="fill:#ffffff;fill-opacity:1;stroke:none;stroke-width:2.05286;stroke-linecap:round;stroke-miterlimit:4;stroke-dasharray:none;stroke-dashoffset:2.38337;stroke-opacity:1;paint-order:markers stroke fill"
       d="m 129.09239,31.975595 c -1.85491,-0.0279 -3.39905,1.2086 -4.54908,2.54523 -2.1193,2.44913 -3.57359,5.41897 -4.54667,8.49136 -0.29015,0.81507 0.0295,1.74246 0.75363,2.21281 1.84995,1.2265 3.90792,2.09876 5.87057,3.12633 2.0708,0.98717 4.087,2.10306 6.22268,2.94548 0.61085,-0.14808 1.20752,-0.5619 1.50423,-1.15538 1.32682,-2.35278 1.6703,-5.1078 1.84253,-7.76196 0.10479,-2.56445 -0.0651,-5.30715 -1.55116,-7.4974 -0.93781,-1.43701 -2.40934,-2.59512 -4.15023,-2.811 -0.46084,-0.075 -0.92954,-0.10782 -1.3965,-0.0954 z" />
    <path
       id="path52760"
       style="fill:#ffffff;fill-opacity:1;stroke:none;stroke-width:2.05286;stroke-linecap:round;stroke-miterlimit:4;stroke-dasharray:none;stroke-dashoffset:2.38337;stroke-opacity:1;paint-order:markers stroke fill"
       d="m 120.98701,43.036395 c -0.66873,0.0502 -1.16958,0.62855 -1.3167,1.2597 -0.40872,1.82229 -0.3659,3.72372 -0.21012,5.57543 0.2479,2.13411 0.94015,4.45187 2.75157,5.77397 1.69112,1.18276 3.9376,0.8156 5.7341,0.0896 2.275,-0.92212 4.2431,-2.52587 5.74919,-4.44812 0.60202,-0.79362 0.45496,-2.0031 -0.35835,-2.59338 -1.07601,-0.71351 -2.32669,-1.11625 -3.46018,-1.73198 -2.56773,-1.2193 -5.04559,-2.6319 -7.66696,-3.73442 -0.38906,-0.13484 -0.80854,-0.27355 -1.22264,-0.19082 z" />
    <path
       id="path52799"
       style="fill:#ffffff;fill-opacity:1;stroke:none;stroke-width:2.05286;stroke-linecap:round;stroke-miterlimit:4;stroke-dasharray:none;stroke-dashoffset:2.38337;stroke-opacity:1;paint-order:markers stroke fill"
       d="m 109.36047,29.536005 c -1.61456,0.76006 -2.90606,2.06556 -3.81458,3.58592 -1.86255,3.11629 -2.75894,6.80618 -2.58831,10.42916 0.21923,2.89373 1.03987,5.92997 3.12159,8.05391 1.16765,1.22368 2.95883,1.8985 4.62728,1.44765 2.27772,-0.59946 4.26861,-2.08111 5.74758,-3.88694 1.17267,-1.50277 1.70683,-3.38129 2.25476,-5.17738 0.29985,-1.05545 0.47176,-2.14054 0.68792,-3.21482 -2.74739,-3.37224 -5.3743,-6.84081 -7.85437,-10.41451 -0.34585,-0.48762 -0.69173,-0.97521 -1.0376,-1.46282 -0.38143,0.21316 -0.76285,0.42653 -1.14427,0.63983 z" />
    <path
       id="path52838"
       style="fill:#ffffff;fill-opacity:1;stroke:none;stroke-width:2.05286;stroke-linecap:round;stroke-miterlimit:4;stroke-dasharray:none;stroke-dashoffset:2.38337;stroke-opacity:1;paint-order:markers stroke fill"
       d="m 113.58416,28.605475 c -1.29916,0.0827 -2.62959,0.24239 -3.84321,0.73386 -0.29797,0.26224 -0.86068,0.3675 -0.77318,0.8603 -0.22915,0.79885 0.27244,1.50831 0.68982,2.14544 1.99629,2.92393 4.09742,5.78335 6.36583,8.50261 0.45196,0.58107 1.02111,1.04403 1.7089,1.31518 0.49605,-0.23963 1.09441,-0.3501 1.34851,-0.8949 0.49644,-1.09204 0.36455,-2.34763 0.42952,-3.52 0.011,-2.38187 -0.15112,-4.94903 -1.63718,-6.92519 -0.91338,-1.46571 -2.57115,-2.29454 -4.28901,-2.2173 z" />
    <path
       id="path51119"
       style="fill:#f9d349;fill-opacity:1;stroke:none;stroke-width:2.90319;stroke-linecap:round;stroke-miterlimit:4;stroke-dasharray:none;stroke-dashoffset:2.38337;stroke-opacity:1;paint-order:markers stroke fill"
       d="m 46.875863,48.612405 c -0.382092,0.0248 -0.877268,0.0814 -1.139071,0.36074 -0.771117,1.12234 -0.930709,2.52237 -1.312829,3.80159 -0.436454,1.89076 -0.963507,3.77807 -1.141492,5.71461 -0.02041,1.24204 1.145102,2.25086 2.359343,2.21416 0.753221,-0.0353 -0.333543,0.1467 -0.576799,0.23549 -5.184702,1.33743 -10.326074,2.59856 -15.538318,3.80209 -2.570833,0.64206 -5.170928,1.2059 -7.679154,2.0668 -0.369708,0.23053 -0.987197,0.34458 -0.980491,0.86661 -0.311844,1.82303 -0.313771,3.68602 -0.454918,5.52836 -0.528573,8.50186 0.05383,17.109998 2.187689,25.373481 1.050957,4.349004 2.733569,8.505024 4.25273,12.702824 0.80814,2.08403 1.509472,4.21572 2.451324,6.24413 0.08413,0.5686 0.58008,0.52936 1.038385,0.54566 1.067169,-0.008 2.100447,-0.39019 3.143625,-0.59386 7.383433,-1.81581 14.761444,-3.67229 22.043466,-5.86503 7.167217,-2.19177 14.294202,-4.5402 21.254302,-7.32726 -1.122897,0.7287 -2.237189,1.8136 -2.219017,3.25209 0.07776,2.04215 0.439055,4.0648 0.681966,6.09258 0.277656,2.28211 0.739736,4.53295 1.240641,6.77488 1.706779,-0.85795 3.422129,-1.70551 4.999929,-2.79054 4.67929,-3.0529 9.33781,-6.14486 13.8519,-9.43896 2.23964,-1.69464 4.51938,-3.36676 6.513156,-5.35247 0.58768,-0.54491 0.84248,-1.39965 0.51359,-2.15108 -0.61154,-1.806654 -1.39951,-3.554514 -1.84876,-5.415437 -1.183646,-4.3606 -1.591736,-8.877358 -1.888246,-13.370978 -0.0767,-0.93492 0.0325,-3.03212 -0.24913,-3.93298 -2.04727,-0.83176 -3.84162,0.42609 -5.954,-0.20765 -1.60042,-0.48894 -2.82774,-0.71494 -4.25989,-1.61621 -0.86322,-0.71396 -1.046,-2.81627 -1.74399,-4.13885 -0.42938,-1.93513 -0.55857,-3.46573 -0.32722,-5.39104 0.15111,-1.35607 1.79892,-2.53527 0.95013,-3.7418 -1.19768,-1.35238 -4.39819,-2.48661 -5.84534,-3.55022 -2.55157,-1.80034 -5.201204,-3.53108 -8.175039,-4.5507 -5.236309,-1.90033 -10.694986,-3.08745 -16.122861,-4.29425 -3.223502,-0.66645 -6.436829,-1.43472 -9.708031,-1.82955 -0.105862,-0.006 -0.211393,-0.0248 -0.31758,-0.0165 z m 14.587675,24.92033 c 2.381214,0.49699 2.407798,2.64335 4.829023,2.94932 1.941194,0.26941 5.94618,-1.85582 7.816395,-2.1442 1.01229,-0.21261 1.80282,0.60442 2.395419,1.301 0.0935,1.15345 -1.006829,2.30971 -0.22725,3.28273 2.371539,0.98607 2.911209,1.92863 3.136499,3.25514 0.13291,1.44139 -1.913319,1.59752 -2.931019,2.72092 -2.851057,0.19139 -2.872212,2.1536 -3.257991,4.023178 -0.903588,1.68524 -2.713854,2.72784 -4.534516,3.15012 -0.993898,0.20654 -2.077278,0.39279 -3.05976,0.0615 -1.51783,-0.97738 -2.739141,-2.36252 -3.820536,-3.79393 -1.236975,-1.817208 -1.769565,-4.060688 -1.639823,-6.245368 0.137325,-2.93192 0.622596,-5.66927 1.060851,-8.54185 -0.03088,-0.15139 0.171243,0.006 0.232736,-0.0193 z"
       sodipodi:nodetypes="ccccccccccccccccccccccccccccccccccccccccccccccccccccc" />
    <path
       id="path47845"
       style="fill:#f9cfbc;fill-opacity:1;stroke:none;stroke-width:2.05286;stroke-linecap:round;stroke-miterlimit:4;stroke-dasharray:none;stroke-dashoffset:2.38337;stroke-opacity:1;paint-order:markers stroke fill"
       d="m 94.683024,65.437335 c -1.25925,0.0846 -2.01167,1.31722 -2.21267,2.44965 -0.48828,1.65064 0.7934,3.53977 2.51324,3.66686 1.39744,0.0772 2.93904,0.0598 4.144,-0.74285 0.82417,-0.54296 1.072426,-1.74905 0.44887,-2.53508 -0.90436,-1.15119 -2.1581,-2.02853 -3.49812,-2.60422 -0.43804,-0.17979 -0.92121,-0.28323 -1.39532,-0.23439 z" />
    <path
       id="path52367"
       style="fill:#d9b100;fill-opacity:1;stroke:none;stroke-width:1.45158;stroke-linecap:round;stroke-miterlimit:4;stroke-dasharray:none;stroke-dashoffset:2.38337;stroke-opacity:1;paint-order:markers stroke fill"
       d="m 64.602798,75.098795 c -1.665495,-0.0571 -2.950727,1.19478 -3.958413,2.37013 -1.433007,1.67526 -1.896604,3.98954 -1.704487,6.13912 0.164901,0.59913 0.69432,1.05413 1.008872,1.59397 2.851125,-1.48358 5.283849,-3.75882 8.381166,-4.75934 1.070723,-0.21095 2.482581,-0.49947 2.901946,-1.69875 0.311243,-0.96312 -0.4109,-1.87686 -1.257187,-2.26143 -1.665716,-0.81223 -3.520544,-1.29684 -5.371897,-1.3837 z" />
    <path
       id="path52406"
       style="fill:#d9b100;fill-opacity:1;stroke:none;stroke-width:1.45158;stroke-linecap:round;stroke-miterlimit:4;stroke-dasharray:none;stroke-dashoffset:2.38337;stroke-opacity:1;paint-order:markers stroke fill"
       d="m 71.95579,82.226605 c -1.600472,0.20241 -3.130987,0.79715 -4.604061,1.4345 -2.061478,0.97788 -3.96823,2.36875 -5.339166,4.207138 -0.48152,0.63142 -0.492468,1.5309 0.0083,2.15482 0.869451,1.21023 2.153331,2.12584 3.619374,2.44533 1.52078,0.30341 3.140776,0.24432 4.624826,-0.2173 1.861473,-0.57119 3.019582,-2.3193 3.632417,-4.07279 0.436407,-1.309278 0.966488,-2.734148 0.60412,-4.120668 -0.302143,-1.10944 -1.396553,-1.89928 -2.545369,-1.83108 z m -1.645889,4.94332 c 0.329773,0.25066 0.125468,0.579028 -0.02785,0.0604 -0.0028,-0.0248 -0.04136,-0.11581 0.02785,-0.0604 z" />
    <path
       style="fill:#f9cfbc;fill-opacity:1;stroke:none;stroke-width:0.729597px;stroke-linecap:butt;stroke-linejoin:miter;stroke-opacity:1"
       d="m 37.348128,44.614395 -3.708225,17.48163 -23.241333,-9.67957 0.414518,-16.87981 z"
       id="path47997"
       sodipodi:nodetypes="ccccc" />
    <path
       style="fill:#f9cfbc;fill-opacity:1;stroke:none;stroke-width:0.729597px;stroke-linecap:butt;stroke-linejoin:miter;stroke-opacity:1"
       d="m 96.812144,36.800645 c 0,0 -8.21108,-3.97311 -8.47594,1.45681 -0.265,5.42988 4.37039,9.40299 4.37039,9.40299 z"
       id="path39856" />
    <path
       id="path38756"
       style="fill:#000000;stroke-width:0.729597"
       d="m 102.07024,10.243461 c -3.44015,0.42298 -6.55416,2.14244 -9.46428,3.928202 -3.90623,2.53265 -7.54789,5.6644 -10.03468,9.6414 -1.48752,2.67187 -2.0994,5.71337 -2.85201,8.64824 -0.735854,3.113112 -0.700131,4.753653 0.519804,7.155642 0.32612,-1.39853 0.14278,-2.86829 0.4501,-4.27814 0.71255,-4.22221 2.04965,-8.3811 4.18857,-12.10272 1.71236,-2.80515 4.45384,-4.77121 7.11094,-6.61112 3.05933,-1.99644 6.33853,-3.829481 9.969756,-4.501671 0.86517,-0.290661 1.96656,-0.406401 2.53258,-1.193851 -0.6026,-1.0310598 -1.42985,-0.766142 -2.42078,-0.685982 z m 12.37666,-0.136308 c 2.30648,0.45034 4.66945,-0.01 7.00067,0.12765 3.26896,0.005 6.5116,1.72758 9.45634,3.104541 4.34831,1.853361 8.21294,4.810401 11.08344,8.571241 2.11055,2.41641 3.19174,5.51844 3.81228,8.61943 0.99011,4.88189 0.92393,9.93378 0.10829,14.83539 -0.37736,2.62691 -0.49556,5.5406 0.80827,7.99094 1.11466,2.34298 3.01541,4.44387 3.1303,7.15711 0.16935,2.7542 -1.71216,5.07751 -3.66552,6.79246 -0.87905,0.87314 -2.17342,2.06577 -3.85412,2.08022 -1.79545,4.02109 -3.83556,5.22128 -5.3788,5.65662 -1.05081,0.34066 -3.19155,0.47331 -4.81009,-0.0531 -2.03792,0.6348 -2.74357,0.43419 -4.9946,0.42414 -2.53251,0.0405 -4.45947,-1.2415 -6.27324,-2.56425 -0.32225,-0.23114 0.18199,-0.17971 0.48231,-0.40611 4.22861,-1.78845 8.54845,-3.57447 12.12968,-6.51898 1.87763,-1.44332 3.40711,-3.3047 4.43339,-5.44097 0.94475,-1.90657 1.89433,-3.93431 2.18294,-6.13414 0.0412,-0.31416 -0.0595,-0.85145 -0.38281,-0.93555 -1.03921,0.75112 -1.5436,1.91185 -2.18945,2.92969 -1.48634,2.86796 -3.23019,5.65786 -5.65589,7.83055 -4.13647,3.81427 -9.6015,5.8826 -15.08192,6.81174 -3.42662,0.46406 -6.50879,-0.80249 -9.78906,-1.62201 -2.7105,-0.70562 -5.44868,-1.64558 -7.588166,-3.5245 -2.68343,-2.10271 -5.2362,-4.72981 -6.31175,-8.0053 -1.01642,-2.7401 -1.19191,-5.67549 -1.64548,-8.5354 -0.38533,-2.09332 -1.05352,-4.12338 -1.9545,-6.04865 -0.70719,-1.83047 -1.04817,-4.07147 0.16153,-5.77752 1.15681,-1.8727 3.13073,-2.86294 3.79225,-0.79003 0.22218,1.12351 0.53278,1.66864 1.40877,-0.0348 1.42895,-2.1948 3.9763,-5.6535 5.489706,-7.80792 1.31178,-2.18099 3.06341,-4.03231 4.70966,-5.95516 0.31543,-0.46434 0.79025,-0.93853 0.81055,-1.51563 -0.64782,-0.40641 -1.31499,0.3091 -1.8617,0.60881 -2.55692,1.91212 -4.810676,4.26723 -6.550406,6.94783 -0.88968,1.45667 -1.45068,3.31097 -3.01563,4.20313 -1.06551,0.50274 -2.32302,0.0909 -3.38476,0.65039 -2.64351,1.17078 -3.99173,4.19904 -3.93437,6.9784 0.035,1.61152 0.18401,3.42286 1.29765,4.68175 0.85429,0.46158 1.53968,1.32645 1.44922,2.34571 -0.15366,1.12986 -0.41232,2.25929 -0.26319,3.41066 0.0413,1.9841 0.97823,3.87756 0.64795,5.8784 -0.36459,0.88261 -1.51007,0.4827 -2.02343,-0.043 -1.9184,-1.81061 -3.22641,-4.18508 -4.23785,-6.59699 -0.7972,-1.92611 -0.87777,-4.12416 -2.00434,-5.91473 -0.36542,0.14065 -0.38454,0.82034 -0.47887,1.1986 -0.36724,3.32915 0.62612,6.73805 2.39739,9.54749 1.23071,1.93086 3.00583,4.13553 5.28532,4.52028 2.42019,0.27814 3.331803,0.554793 3.847194,2.116588 0.515391,1.561795 2.151389,2.059341 0.291276,3.052032 -0.80459,0.79749 -1.15448,0.0749 -1.56228,-0.39767 -1.44452,-1.6738 -4.23773,-2.06794 -5.96801,-3.38776 -1.96542,-1.30737 -3.59254,-3.04126 -5.45655,-4.47182 -3.507019,-2.25104 -7.540007,-3.486 -11.486832,-4.72233 -5.913343,-1.71393 -11.915972,-3.11095 -17.900029,-4.6177 -3.561677,-0.90456 -7.16065,-1.65579 -10.718754,-2.56998 -8.023608,-2.19515 -15.788016,-5.25947 -23.568675,-8.13915 -1.915428,-0.68432 -3.823878,-1.35886 -5.759304,-1.91764 -0.122018,0.69076 0.04064,1.21446 0.765625,1.4082 6.182432,3.2227 12.658492,5.92863 19.188236,8.29837 1.429755,0.53353 2.914376,0.94072 4.34692,1.43991 0.541216,0.55848 0.161106,1.44981 0.11319,2.13662 -0.777797,4.27292 -2.096794,8.42244 -3.167877,12.62705 -7.017367,-3.23777 -14.187922,-6.12992 -21.246094,-9.27539 v 1.96485 c 3.77314,1.86892 7.377641,4.00207 11.357335,5.41238 3.49863,1.33632 5.156405,2.76084 8.758903,3.8149 -7.363409,1.81178 -12.819669,2.77674 -20.116238,4.76686 v 2.2207 c 2.932124,-0.32933 5.781396,-1.20128 8.714844,-1.49219 0.676955,0.57904 0.148291,1.54988 0.07541,2.28242 -0.662575,2.35312 -0.973874,4.78377 -1.102755,7.22149 -0.248429,4.69007 -0.193645,9.48122 0.27682,14.159618 0.681564,5.899673 2.36212,11.672787 4.748673,17.103487 1.075062,2.44654 2.419915,4.7916 4.132354,6.90318 0.406846,0.53667 0.813485,1.07349 1.219106,1.61108 -6.006805,0.8488 -12.04267,1.47569 -18.064453,2.20899 v 2.99219 c 6.687827,-0.77991 13.478541,-1.51594 20.050781,-2.60352 6.086806,-1.26125 12.024767,-3.13913 17.966247,-4.94489 6.784852,-2.11133 13.548588,-4.37925 20.168268,-6.89352 1.12159,-0.30462 2.343986,-0.80099 3.504157,-0.44675 0.738918,0.44677 0.604692,1.49136 0.82647,2.23154 0.868778,5.03169 1.030627,10.16886 2.096444,15.16772 0.32357,1.11903 0.572196,2.59829 1.793879,3.06559 1.537999,0.19195 2.919629,-0.76066 4.239569,-1.41521 2.22897,-1.16472 4.29749,-2.66313 6.65495,-3.56502 1.13709,-0.48144 2.34115,0.0294 3.25751,0.72881 2.71832,1.31716 5.70108,2.01146 8.662426,2.54048 3.09841,0.49748 6.24093,0.4305 9.23899,-0.17285 5.72582,-1.15373 11.08511,-3.71018 16.2728,-6.26604 4.10524,-2.05291 8.16987,-4.48004 12.73008,-5.47162 3.40764,-0.84439 6.93136,-0.88728 10.41198,-1.1465 1.71949,-0.25168 3.21185,-0.37606 4.40515,-1.78228 1.02978,-1.36048 0.21773,-3.4989 -1.40211,-3.82913 -0.78663,-0.16037 -1.20095,-0.49056 -4.69259,-0.94826 1.26712,-0.63294 4.81344,-1.83827 5.75835,-2.14309 1.66868,-0.41748 2.65195,-0.42875 3.95688,-1.649 0.80884,-0.93254 0.83387,-2.60162 -0.23847,-2.85557 -2.03469,-0.725294 -3.63741,-0.487174 -5.753,-0.566364 -0.96484,-0.0322 -4.12044,0.444214 -4.62334,0.520344 0.38008,-0.263464 2.73754,-1.341804 3.49891,-1.898434 1.46586,-1.07169 3.24889,-2.012503 4.41488,-3.431853 0.52185,-1.00692 0.085,-2.45424 -1.11328,-2.6836 -1.94616,-0.21106 -3.89332,0.28366 -5.80566,0.60201 -2.19253,0.38667 -4.24416,1.12116 -6.32004,1.96158 -1.07659,0.41174 -2.15314,0.82359 -3.22977,1.23524 -0.62328,-1.82993 -0.9947,-3.76184 -1.83203,-5.50977 -0.63199,-1.01639 -2.23222,-1.20971 -3.18554,-0.54882 -1.38411,1.28122 -1.75679,3.24746 -2.32956,4.96938 -0.6364,1.97054 -0.90586,4.100213 -1.96537,5.907577 -1.14531,1.66004 -3.12101,2.41247 -4.79933,3.40013 -3.63039,1.79723 -7.67116,2.80286 -11.72137,2.90848 -1.60638,-0.0138 -3.45652,-0.043 -4.61992,-1.33398 -2.14933,-2.27722 -3.32444,-5.26185 -4.4132,-8.148314 -1.82603,-5.147103 -2.908006,-10.611661 -3.018246,-16.051821 -0.1324,-2.46897 -0.29929,-4.74663 -0.69926,-7.16747 -0.18932,-1.13878 -0.33403,-1.94131 0.17607,-2.76917 0.56118,-0.91076 1.104106,-1.43778 2.030666,-1.28899 0.92655,0.14879 3.78362,1.35235 4.68218,1.54172 3.74293,1.00211 7.66759,1.71196 11.52207,1.31862 1.1907,-0.10218 2.63255,-0.0252 3.33777,1.10283 0.87854,1.31494 2.11403,3.00392 3.86856,3.55034 2.49244,0.57722 5.44483,-0.0834 7.50466,-1.26563 1.12356,0.40823 2.91524,1.23563 4.17279,1.3009 2.96262,0.34617 5.9629,-2.06485 6.55982,-4.86093 0.21313,-0.65756 0.27818,-1.05961 0.57338,-1.8215 1.06965,0.23426 2.236,-0.65079 3.10959,-1.15106 2.14309,-1.52049 4.38503,-3.33071 5.11854,-5.97315 0.99129,-3.25516 -0.23041,-6.65644 -1.80413,-9.50846 -1.07168,-1.89252 -1.85041,-4.01048 -1.74107,-6.21652 0.0995,-3.52174 0.62493,-7.02689 0.50781,-10.55741 -0.11912,-4.586 -0.59424,-9.32187 -2.63839,-13.49495 -1.6152,-2.87295 -3.92142,-5.30165 -6.34513,-7.50882 -2.34075,-2.13127 -5.14622,-3.916951 -8.20323,-4.933602 -3.71016,-1.29364 -7.70315,-2.8521804 -11.72819,-2.7861504 -1.81672,0.0175 -3.59424,0.25962 -5.3164,1.1290104 z m -3.68104,18.431892 c -2.2483,0.74937 -2.84129,1.21274 -4.46083,2.85671 -3.596,3.77169 -4.97112,9.57563 -4.61466,14.66901 0.49341,3.74825 3.25559,7.32312 7.06432,8.10103 1.63635,0.39642 3.29933,0.0472 4.91211,-0.26953 0.76226,-0.19835 3.96509,-3.07313 3.99324,-2.20892 0.10186,1.07317 -0.2482,1.61144 0.70127,1.41672 0.26303,0.77216 1.91936,2.73246 3.06341,3.42097 1.39466,0.83933 3.91876,0.83277 6.05315,0.43308 2.34773,-0.33753 4.40582,-1.69627 5.97995,-3.42122 1.81913,-2.81136 1.73263,-2.40211 3.10343,-5.73188 0.43344,-2.18726 1.11967,-4.35259 1.06346,-6.6095 0.0453,-3.33499 -1.14025,-6.99397 -4.06142,-8.87737 -2.38029,-1.58086 -5.56781,-1.3415 -7.98829,0.0215 -1.56459,0.80015 -2.96004,2.17033 -4.29256,3.39168 -0.57206,0.84432 -0.70873,0.16346 -0.84719,-0.50813 -0.4836,-1.89886 -1.01481,-3.86338 -2.34014,-5.37089 -0.94275,-1.20855 -2.28649,-1.60715 -3.68246,-1.84955 -0.62513,-0.0584 -1.92961,-0.036 -2.5261,0.16276 z m 3.13141,0.83965 c 1.64767,-0.0622 2.99445,1.13777 3.72589,2.51704 1.16361,1.98046 1.09649,4.39353 1.05927,6.61577 -0.2133,3.20943 -0.71738,6.51989 -2.30333,9.36389 -1.37923,2.198 -3.6185,3.98784 -6.20644,4.46423 -2.13198,0.3529 -3.96412,-1.3112 -4.88867,-3.07617 -1.92542,-3.71926 -1.92188,-8.2212 -0.66571,-12.15348 0.88584,-2.90232 2.58282,-5.88553 5.54462,-7.04574 1.19047,-0.43253 2.4673,-0.67467 3.73437,-0.68554 z m 15.67383,3.39843 c 2.19828,-0.0456 4.14316,1.51025 4.95312,3.49219 1.43314,3.44009 1.00549,7.32379 0.15357,10.85392 -0.83733,3.74724 -3.90758,6.75035 -7.44849,8.05038 -1.75415,0.64092 -4.0914,0.7063 -5.35858,-0.89543 -1.79909,-2.44696 -1.96575,-5.69583 -1.58925,-8.60914 0.55248,-3.86865 2.3195,-7.52644 4.77974,-10.53994 0.96281,-1.15886 2.2157,-2.28782 3.81067,-2.31778 0.23241,-0.0286 0.46539,-0.0318 0.69922,-0.0342 z m -90.353513,14.32032 c 1.603931,0.32073 5.353076,1.01365 4.974751,2.87324 -0.188876,1.15407 -0.536401,0.44986 -2.452678,0.058 -0.825058,-0.13277 -4.215502,-0.68916 -3.917433,-1.7006 0.105957,-0.52624 -0.07617,-1.45503 0.554885,-1.39869 z m 7.519532,2.06445 c 8.284684,1.74127 16.670354,3.15743 24.730468,5.80273 2.944499,0.97998 5.795728,2.30391 8.254437,4.21979 1.56145,1.16896 4.13093,2.42038 5.61291,3.68786 1.67047,0.75886 0.9931,1.20075 0.77338,2.65605 -0.36399,2.2052 -1.06567,6.13971 0.11816,8.24335 0.60834,1.24962 2.02341,3.32641 3.41011,3.76821 3.25059,1.15 4.3493,1.21528 8.24144,0.80493 0.15322,3.82974 0.14309,8.8448 0.85862,12.600978 0.58176,3.40533 1.513606,6.755123 2.939816,9.907377 0.39847,0.61099 0.40332,1.12793 -0.29901,1.47453 -2.456356,2.18067 -5.004796,4.25408 -7.698966,6.135 -4.80927,3.3855 -9.63621,6.76446 -14.67991,9.79586 -0.56736,0.26393 -1.26281,0.92115 -1.875229,0.51211 -0.59037,-1.01489 -0.57845,-2.27084 -0.83333,-3.39872 -0.414809,-2.78225 -0.860348,-5.57623 -0.941608,-8.39167 0.05839,-1.04374 1.176638,-1.53658 1.889938,-2.12565 1.319569,-0.96015 2.947199,-1.5228 4.031939,-2.78062 -2.24723,0.33325 -4.354359,1.31341 -6.427723,2.12159 -7.317159,3.02211 -14.914465,5.31526 -22.499245,7.56298 -7.349111,2.17086 -14.792589,3.9816 -22.254675,5.71584 -2.687805,-6.99349 -5.681955,-13.92049 -7.275416,-21.269827 -1.898025,-8.19018 -2.086476,-16.673278 -1.507327,-25.030358 0.114032,-1.08932 0.02156,-2.25037 0.298368,-3.29359 0.744777,-0.66114 1.84823,-0.73327 2.763385,-1.07171 7.225244,-1.9814 14.625107,-3.20758 21.793487,-5.4127 1.582148,-0.46641 3.191296,-0.85655 4.810316,-1.15231 0.521726,-0.17236 0.87422,-0.66084 0.884765,-1.20898 -2.005047,0.1159 -3.97137,0.89753 -6.039062,0.95312 -0.461387,0.0488 -1.367681,0.17218 -1.828454,0.11008 -0.03627,-0.41869 -5.8e-4,-1.19271 0.02963,-1.68235 0.09723,-2.06677 0.878465,-4.02656 1.34015,-6.0285 0.384849,-1.07061 0.489658,-2.01281 0.791124,-2.99021 -0.0089,-0.36775 0.382793,-0.21468 0.587476,-0.23518 z m -3.728516,3.09372 c 0.633687,0.58829 -0.03441,1.82234 -0.305461,1.85043 -1.591078,0.0736 -4.162067,-0.49266 -5.448058,-1.44851 -0.630644,-0.39443 -0.461096,-1.53468 0.148473,-2.01901 0.737288,-0.58581 4.479429,0.66684 5.605046,1.61709 z m -5.867496,2.21244 c 1.198305,0.26711 4.328455,0.64187 5.177523,1.5017 0.849068,0.85983 0.145014,2.91105 -0.892308,2.7904 -1.348755,-0.0458 -4.782305,-0.65879 -5.205109,-2.01966 -0.361723,-1.02034 -0.202239,-2.52258 0.919894,-2.27244 z m -0.493832,4.03365 c 0.767292,0.2038 1.94905,0.51894 2.923828,0.78906 3.977458,0.9418 0.755093,1.37789 -0.337109,1.51319 -1.127846,0.13972 -2.274225,0.35966 -3.66875,0.49658 -1.07032,-0.71721 -0.468995,-2.71848 0.824219,-2.77344 0.08605,-0.006 0.171557,-0.0246 0.257812,-0.0254 z m 50.843839,5.50104 c 0.18633,-0.2538 1.90428,-0.63686 4.06436,1.8017 -0.099,0.8697 -0.04011,1.545281 -0.920067,1.524631 -1.20735,0.0439 -2.7202,-0.32043 -3.73265,-0.67758 -0.26001,-0.91824 0.242007,-2.177001 0.588357,-2.648751 z m 7.60733,2.20209 c 1.35381,0.26628 2.45667,1.219 3.48381,2.08609 0.64218,0.47348 0.99691,0.86666 0.0162,1.97055 -1.24835,1.79427 -3.60639,1.41137 -4.48835,0.75246 -1.3435,-1.08404 -1.20527,-2.1558 -0.74955,-3.23908 0.20327,-0.81367 0.78375,-1.68114 1.7379,-1.57002 z m -4.55027,2.27328 c 0.74565,0.0879 0.577384,0.458297 0.619044,1.073907 0.0417,0.61562 -1.58653,0.94007 -2.25719,1.32931 -0.68657,0.40213 -2.15161,1.06515 -2.43347,0.096 -0.4075,-1.03251 -0.304834,-3.039677 0.850646,-3.017427 0.87676,0.0257 2.11213,0.40109 3.22097,0.51816 z m 0.9454,2.67238 c 0.63293,0.36825 0.8103,0.9346 0.40175,1.60707 -0.54284,1.044 -1.48512,2.74018 -2.69173,2.99861 -0.76385,0.18853 -1.52878,-0.75206 -1.96997,-1.96756 0.80873,-0.82376 3.06495,-2.52976 4.25995,-2.63812 z m -31.193056,1.23137 c -0.581164,0.34767 -0.598926,3.19611 -0.641596,4.6106 -1.557012,1.53755 -2.485559,5.39258 -1.650872,8.65532 0.674367,2.995148 3.139797,4.954278 5.644573,6.640588 0.647636,0.43398 3.943542,1.2405 5.358185,0.9314 2.308235,-0.63841 4.886575,-2.1388 5.419243,-4.56772 0.23193,-0.65539 0.604451,-2.406848 0.749218,-2.800918 1.044716,0.2342 2.161286,-0.19575 2.964905,-0.56233 1.61318,-0.73591 2.34613,-2.48602 2.0859,-3.62625 -0.37468,-2.55654 -2.073,-2.87652 -3.373309,-3.13458 1.033259,-1.16287 0.81799,-2.72272 0.23785,-3.61486 -0.77831,-1.33443 -2.588604,-2.02822 -4.079426,-1.51588 -1.40633,0.42135 -2.480162,1.05376 -3.723098,1.78509 -1.164989,-0.62052 -3.324976,-1.01921 -4.879038,-0.62156 -1.220788,-0.70619 -3.289046,-2.60065 -4.112531,-2.1789 z m 36.809566,0.51302 c 0.55999,0.0746 0.54747,1.05284 0.53157,4.16795 0.0611,0.2498 -1.200237,0.897964 -2.076737,0.301974 0.11679,-1.39968 0.48,-2.75631 0.72412,-4.01507 0.11135,-0.27005 0.261067,-0.529484 0.821047,-0.454854 z m -3.568718,-0.02618 c 1.29781,0.15431 1.308428,0.07021 1.002388,3.013859 -0.2949,0.98958 -0.68282,1.50397 -1.88031,1.41107 -0.84852,-0.0408 -1.418348,0.03798 -1.370778,-0.645499 0.0476,-0.68347 0.91113,-2.51384 1.41164,-2.96124 0.30249,-0.27601 0.4205,-0.85022 0.83706,-0.81819 z m -18.964403,1.759959 c 0.992921,-0.16837 1.730242,0.81844 1.602982,1.74443 -0.04401,1.12812 -1.605015,2.88603 -2.878204,2.9274 -0.187288,-0.29314 -0.644117,-0.78744 -0.884793,-1.14281 0.251758,-0.28745 1.925384,-1.09639 1.644347,-1.56578 -0.304195,-0.50806 -1.642857,0.56149 -2.224719,0.91618 -0.315088,-0.41395 -0.646422,-0.62217 -1.167817,-1.15091 0.574188,-0.596 1.299608,-0.95972 1.994608,-1.31891 0.613597,-0.22428 1.259553,-0.37762 1.913596,-0.4096 z m -5.136021,2.45604 c 0.847893,0.62768 0.935483,0.49909 0.999417,0.82567 -1.122387,0.006 -4.313133,0.62734 -5.104497,1.08541 -2.570636,1.15864 -3.997088,3.14124 -5.869328,4.80895 0.0919,-1.78241 0.06555,-2.98294 1.02248,-4.59647 0.788459,-1.4346 1.988987,-2.89632 3.668027,-3.23781 1.707618,-0.15952 3.39098,-0.28704 5.283901,1.11425 z m 6.73563,2.53028 c 1.144683,0.048 2.615792,0.63761 2.896412,1.87793 0.14275,2.61058 -3.717913,3.58452 -4.154225,2.88965 -0.285192,-0.46648 -0.226358,-1.08095 -0.255694,-1.51756 -0.03318,-0.49386 2.31528,-0.37271 2.30568,-0.87482 0.12631,-0.59869 -2.280195,0.10673 -2.448311,-0.7051 -0.2987,-1.27746 0.760971,-1.63555 1.656138,-1.6701 z m -2.849534,3.22262 c 0.278685,0.54783 0.674192,1.49003 0.427659,2.56449 -0.288444,1.846 -0.904859,3.321178 -2.191406,4.718148 -1.78518,1.49637 -4.433905,2.04151 -6.552873,1.25618 -0.966113,-0.42227 -1.931465,-1.07769 -2.458846,-2.00753 -0.330339,-1.08923 0.831064,-1.81452 1.445312,-2.525388 3.012983,-2.41761 4.212712,-3.19609 7.496295,-3.8021 z m -2.912185,3.86332 c -0.491149,0.0894 -1.152319,0.953358 -0.490234,1.240238 0.481919,0.0468 1.250872,-0.33051 1.212581,-0.859128 -0.110304,-0.28763 -0.413959,-0.47755 -0.722347,-0.38111 z m 63.699217,3.693358 c 1.03621,0.18147 1.15472,1.45854 1.32818,2.3031 0.27282,1.69002 0.13816,3.53213 1.12494,5.028933 0.76896,0.20815 1.61457,-0.21527 2.37695,-0.39246 2.52185,-0.873593 4.88487,-2.154033 7.4375,-2.951293 1.65465,-0.52469 3.37631,-1.1348 5.13477,-0.99219 0.78473,0.0484 1.03568,1.04097 0.48633,1.54297 -1.49233,1.52949 -3.49068,2.430083 -5.34502,3.438673 -2.10254,1.10037 -6.28062,2.968755 -6.15889,3.498835 0.0116,0.45749 2.78064,0.25155 4.07247,-0.13259 2.82919,-0.61737 5.6809,-1.11227 8.57424,-0.94485 0.65019,0.0489 1.89018,0.11911 1.64821,1.02446 -0.64909,0.82744 -1.85903,1.10351 -2.80078,1.3401 -2.49496,0.44274 -6.80938,2.32179 -9.05977,3.57471 -0.55219,0.22972 -0.0213,0.77168 0.61399,1.15537 2.10166,1.26925 5.75355,0.0281 7.56883,1.73673 0.53275,0.59174 -0.0935,1.31378 -0.73164,1.42377 -2.37353,0.70223 -4.85821,0.41285 -7.28097,0.70271 -4.8467,0.33223 -9.66235,1.48815 -13.99405,3.72309 -5.72996,2.92864 -11.38797,6.17915 -17.62733,7.91383 -3.99436,1.14032 -8.24079,1.03973 -12.276926,0.17505 -2.12015,-0.49832 -4.3059,-0.80529 -6.35275,-1.5654 -0.68607,-0.19457 -0.90103,-1.12927 -0.28356,-1.54007 4.08389,-2.93406 8.250796,-5.80108 11.941756,-9.23532 1.07115,-1.06643 2.08892,-2.51867 3.69727,-2.72852 2.42641,0.42134 4.89547,-0.12866 7.28848,-0.54251 3.92105,-0.82342 7.89523,-1.83037 11.34335,-3.94575 0.83236,-0.46031 2.24104,-1.13672 2.71319,-1.98124 1.00253,-3.476895 1.47905,-6.459348 2.85224,-9.817638 0.36483,-0.71784 0.76178,-1.79192 1.70899,-1.8125 z m -31.66993,13.259788 c 1.30426,0.17442 2.1902,1.36614 2.80274,2.42969 0.57176,1.1495 -0.44642,2.23713 -1.29553,2.89307 -0.69354,0.66388 -1.94819,0.67269 -2.43494,-0.24072 -0.62235,-1.22212 -0.91833,-2.72698 -0.50977,-4.0625 0.20074,-0.60308 0.78261,-1.0794 1.4375,-1.01954 z m -4.417956,4.24805 c 1.39195,-0.0216 2.523066,1.15574 2.958976,2.38867 0.11184,1.13981 -1.076156,1.77332 -1.761366,2.48576 -0.65067,0.5148 -1.44328,1.52494 -2.36168,1.01229 -0.78428,-0.81027 -1.01733,-2.01354 -1.19531,-3.09375 -0.24074,-1.40765 0.91832,-2.81194 2.35938,-2.79297 z m -4.70118,3.50586 c 1.17465,0.0922 1.55748,1.42939 2.06199,2.2961 0.43943,0.68969 0.54615,1.74447 -0.25331,2.22289 -0.89892,0.52896 -1.83431,1.18066 -2.90047,1.26226 -1.0881,-0.10694 -1.52646,-1.32649 -1.92188,-2.18554 -0.42424,-1.27232 0.82023,-2.20214 1.65278,-2.93298 0.39072,-0.31798 0.83316,-0.66299 1.36089,-0.66273 z m -5.25586,3.85352 c 1.38717,0.0836 2.20222,1.55221 2.41602,2.78125 0.0345,1.28062 -1.34214,1.86377 -2.25672,2.44419 -0.81027,0.37453 -1.63708,1.19644 -2.59094,0.88393 -0.75398,-0.55278 -0.7644,-1.62224 -0.91973,-2.46673 -0.1553,-1.58453 1.19558,-2.84813 2.50958,-3.47858 0.26738,-0.10504 0.55371,-0.17095 0.84179,-0.16406 z m -5.28124,3.375 c 1.08736,0.22807 1.26027,1.55417 1.36632,2.47519 0.12901,1.33069 -0.8232,3.01889 -2.32531,2.84512 -1.37344,-0.28849 -2.0793,-1.92447 -1.91016,-3.21289 0.37067,-1.15142 1.6737,-2.08202 2.86915,-2.10742 z m -5.04102,2.15625 c 0.78796,0.2921 1.22269,1.14265 1.73633,1.77148 0.58754,0.82958 0.61043,2.22152 -0.44336,2.68555 -0.89324,0.54729 -1.844149,-0.31773 -1.966799,-1.21289 -0.17583,-0.93264 -0.21892,-1.92457 -0.0156,-2.85352 0.1194,-0.24999 0.40511,-0.47488 0.689449,-0.39062 z"
       sodipodi:nodetypes="ccccccccccccccccccccccccccccscccccccccccccccccccccccccccccczcscccccccccccccccccccccccccccccccccccccccccccsccccccscccccccccccccccssccccccccccccccccccsccccccsccccccccccssccccccccccccccccccsccccsscccccccccccccccccccccccccccccccssscccscszccsccscsscscccsccccsscczcccccccccczcccccscccccccczscczsscscssccssccsscccccsccccccccccccccccccccccccccccccccsccccccccccccccccccccccccccccccscccccscccccscccsccccssccc" />
    <path
       style="fill:#000000;stroke:#000000;stroke-width:0.550784px;stroke-linecap:butt;stroke-linejoin:miter;stroke-opacity:1"
       d="m 23.776006,64.882215 c 0,0 -15.3848026,8.14588 6.339459,55.148705 -6.37018,1.53148 -26.5536376,3.97164 -26.5536376,3.97164 l 0.16912,-56.203155 z"
       id="path39680"
       sodipodi:nodetypes="ccccc" />
    <path
       style="fill:none;stroke:#000000;stroke-width:0.729597px;stroke-linecap:butt;stroke-linejoin:miter;stroke-opacity:1"
       d="m 103.16909,102.62162 4.10555,5.16504 c 0,0 -22.911546,18.01136 -29.003626,19.6006 -3.443335,-3.17847 -2.383862,-7.28399 -2.383862,-7.28399 z"
       id="path39858" />
    <path
       style="fill:none;stroke:#000000;stroke-width:0.729597px;stroke-linecap:butt;stroke-linejoin:miter;stroke-opacity:1"
       d="m 36.95082,45.806335 -3.840661,16.95186 9.667868,-1.98653 2.913605,-12.84636 z"
       id="path39860" />
    <path
       style="fill:#000000;stroke:#000000;stroke-width:0.729597px;stroke-linecap:butt;stroke-linejoin:miter;stroke-opacity:1"
       d="m 128.52748,36.387985 c -1.3093,1.95498 -0.0921,4.24445 -0.63511,6.10617 -0.40007,1.92911 -1.52387,3.90569 -0.83523,5.90203 0.36032,1.10566 1.50614,2.03589 2.71145,1.70545 1.58658,-0.30062 2.68455,-1.68229 3.23669,-3.11915 1.25729,-2.60499 2.59834,-5.4214 2.2026,-8.3949 -0.18806,-1.19702 -1.0395,-2.3465 -1.88893,-2.90859 -1.49757,-0.99098 -3.69127,-1.056 -4.79147,0.70899 z"
       id="path61832"
       sodipodi:nodetypes="ccccccsc" />
    <path
       style="fill:#000000;stroke:#000000;stroke-width:0.741239px;stroke-linecap:butt;stroke-linejoin:miter;stroke-opacity:1"
       d="m 117.34268,33.647405 c -0.85738,-1.10864 -2.9587,-1.64013 -4.17243,-0.92813 -1.05423,0.61846 -1.36217,2.38014 -1.27392,3.54668 0.20598,2.19291 -0.28742,4.00971 -1.17982,5.98457 -0.41909,1.15262 -0.7844,2.44011 -0.13594,3.58444 0.56924,0.99591 1.46883,1.26137 2.56183,0.91263 1.00675,-0.25204 1.74141,-1.01058 2.3572,-1.77646 1.63849,-1.95992 2.65608,-4.35519 2.99707,-7.50825 0.10821,-1.81045 -0.45206,-2.90781 -1.15399,-3.81548 z"
       id="path61834"
       sodipodi:nodetypes="ssccccccs" />
    <ellipse
       style="display:inline;fill:#f9cfbc;fill-opacity:1;stroke:#000000;stroke-width:3.87894;stroke-linecap:round;stroke-miterlimit:4;stroke-dasharray:none;stroke-opacity:1;paint-order:markers stroke fill"
       id="path2451-6-0-7"
       cx="116.2179"
       cy="53.797775"
       rx="0.86488062"
       ry="0.90137428"
       inkscape:export-filename="C:\Users\megha\Desktop\mmmm.png"
       inkscape:export-xdpi="75"
       inkscape:export-ydpi="75" />
    <path
       style="display:inline;fill:none;stroke:#000000;stroke-width:2.09908;stroke-linecap:round;stroke-linejoin:miter;stroke-miterlimit:4;stroke-dasharray:none;stroke-opacity:1"
       d="m 130.36091,25.801725 c 2.22619,-0.37282 4.33749,-0.0276 5.79672,1.63819"
       id="path36366-7"
       sodipodi:nodetypes="cc"
       inkscape:export-filename="C:\Users\megha\Desktop\mmmm.png"
       inkscape:export-xdpi="75"
       inkscape:export-ydpi="75" />
    <path
       style="display:inline;fill:none;stroke:#000000;stroke-width:2.09908;stroke-linecap:round;stroke-linejoin:miter;stroke-miterlimit:4;stroke-dasharray:none;stroke-opacity:1"
       d="m 110.97104,23.902195 c 0.37794,-0.18889 0.73314,-0.43343 1.13414,-0.56711 1.25476,-0.41821 2.79518,-0.28651 4.03251,0.12602"
       id="path36370-2"
       inkscape:export-filename="C:\Users\megha\Desktop\mmmm.png"
       inkscape:export-xdpi="75"
       inkscape:export-ydpi="75" />
    <path
       style="fill:#000000;stroke:#000000;stroke-width:0.729597px;stroke-linecap:butt;stroke-linejoin:miter;stroke-opacity:1"
       d="m 107.51648,63.558155 c 0.61347,0.47427 1.56404,0.70808 2.08398,0.68051 0.37723,-0.0609 1.1056,-0.20682 1.1463,-0.52416 0.008,-0.36432 -0.71,-0.26968 -1.41649,-0.42992 -0.69255,-0.15691 -1.65959,-0.80007 -2.03111,-1.42603 -0.35746,-0.53714 -0.39998,-1.45728 -0.78587,-1.64121 -0.78438,-0.26334 -0.62467,0.75736 -0.4401,1.45452 0.20681,0.78135 0.92556,1.46298 1.44329,1.88629 z"
       id="path63689"
       sodipodi:nodetypes="cccsccsc" />
    <ellipse
       style="fill:#000000;stroke-width:1;stroke-linecap:square;stroke-dashoffset:2.38337;paint-order:markers stroke fill"
       id="path13435"
       cx="27.988203"
       cy="108.4651"
       rx="1.3753936"
       ry="1.0103199"
       transform="rotate(-24.469448)" />
  </g>
</svg>
