<?xml version="1.0" encoding="UTF-8" standalone="no"?>
<!-- Created with Inkscape (http://www.inkscape.org/) -->

<svg
   width="180mm"
   height="200mm"
   viewBox="0 0 180 200"
   version="1.1"
   id="svg932"
   inkscape:version="1.1 (c68e22c387, 2021-05-23)"
   sodipodi:docname="sitting-waving1.svg"
   xmlns:inkscape="http://www.inkscape.org/namespaces/inkscape"
   xmlns:sodipodi="http://sodipodi.sourceforge.net/DTD/sodipodi-0.dtd"
   xmlns="http://www.w3.org/2000/svg"
   xmlns:svg="http://www.w3.org/2000/svg">
  <sodipodi:namedview
     id="namedview934"
     pagecolor="#ffffff"
     bordercolor="#666666"
     borderopacity="1.0"
     inkscape:pageshadow="2"
     inkscape:pageopacity="0.0"
     inkscape:pagecheckerboard="0"
     inkscape:document-units="mm"
     showgrid="false"
     inkscape:zoom="0.42909308"
     inkscape:cx="129.34257"
     inkscape:cy="385.69721"
     inkscape:window-width="1920"
     inkscape:window-height="991"
     inkscape:window-x="-9"
     inkscape:window-y="-9"
     inkscape:window-maximized="1"
     inkscape:current-layer="layer14"
     inkscape:snap-nodes="false"
     inkscape:snap-others="false"
     inkscape:snap-global="false"
     height="200mm" />
  <defs
     id="defs929" />
  <g
     inkscape:groupmode="layer"
     id="layer14"
     inkscape:label="sitting-waving2"
     style="display:inline">
    <g
       id="g57846-9-8"
       transform="matrix(0.94825116,0,0,0.94825116,-162.19265,8.4041652)"
       style="display:inline">
      <path
         style="display:inline;fill:#dbb200;fill-opacity:1;stroke:#000000;stroke-width:0.415928px;stroke-linecap:butt;stroke-linejoin:miter;stroke-opacity:1"
         d="m 236.81462,49.345894 c 0,0 0.52849,7.24794 -5.58696,8.30493 -6.11545,1.057 -7.66319,-5.43596 -7.66319,-6.49294 1.13248,-0.0376 3.39746,-0.33975 3.39746,-0.33975 z"
         id="path110063-0-3-7"
         inkscape:export-filename="C:\Users\megha\Desktop\Portfolio\images\cartoon-meghans\sitting-chill.png"
         inkscape:export-xdpi="100"
         inkscape:export-ydpi="100" />
      <path
         style="display:inline;fill:#dbb200;fill-opacity:1;stroke:#000000;stroke-width:0.415928px;stroke-linecap:butt;stroke-linejoin:miter;stroke-opacity:1"
         d="m 211.97192,87.496424 0.11853,4.12762 c 0,0 -16.34757,4.04075 -20.95304,-3.66019 0.8305,-3.62398 1.50188,-4.92972 1.50188,-4.92972 0,0 5.6638,6.56186 19.33258,4.46229 0.90938,-0.21207 0,0 0,0"
         id="path106206-9-1-7"
         inkscape:export-filename="C:\Users\megha\Desktop\Portfolio\images\cartoon-meghans\sitting-chill.png"
         inkscape:export-xdpi="100"
         inkscape:export-ydpi="100" />
      <path
         style="display:inline;fill:#dbb200;fill-opacity:1;stroke:none;stroke-width:0.420202px;stroke-linecap:butt;stroke-linejoin:miter;stroke-opacity:1"
         d="m 268.04502,69.77442 c 0,0 -8.11898,4.208173 -8.04192,18.628543 -1.38707,1.13251 -1.42438,2.278871 -1.42438,2.278871 l -4.73287,-5.51145 c 0,0 4.2157,-13.54689 11.0243,-18.74012 0.41271,0.31825 3.17487,3.344156 3.17487,3.344156 z"
         id="path103909-5-6-6"
         inkscape:export-filename="C:\Users\megha\Desktop\Portfolio\images\cartoon-meghans\sitting-chill.png"
         inkscape:export-xdpi="100"
         inkscape:export-ydpi="100"
         sodipodi:nodetypes="cccccc" />
      <path
         id="path95830-2-8-8"
         style="display:inline;fill:#a8d6cd;fill-opacity:1;stroke:none;stroke-width:0.399493;stroke-linecap:round;stroke-miterlimit:4;stroke-dasharray:none"
         d="m 237.36471,67.011114 c -0.94769,0.0712 -1.89492,0.40513 -2.64912,0.98864 -0.92856,0.7388 -1.18065,1.9835 -1.21165,3.10894 -0.005,0.75019 -0.0422,1.51596 0.11177,2.25306 0.10198,0.4244 0.55039,0.66733 0.96233,0.70079 0.64928,-0.006 1.27924,-0.2551 1.85892,-0.53142 0.56032,-0.30224 1.02285,-0.80958 1.20068,-1.42813 0.16008,0.59194 0.64596,1.05949 1.24562,1.19146 0.92658,0.31224 2.12114,-0.0125 2.54249,-0.95134 0.40306,-0.8284 -0.0204,-1.73971 -0.4087,-2.48794 -0.62818,-1.14187 -1.46715,-2.32869 -2.76853,-2.73763 -0.28657,-0.084 -0.58574,-0.11713 -0.88384,-0.10643 z"
         inkscape:export-filename="C:\Users\megha\Desktop\Portfolio\images\cartoon-meghans\sitting-chill.png"
         inkscape:export-xdpi="100"
         inkscape:export-ydpi="100" />
      <path
         id="path95869-1-6-6"
         style="display:inline;fill:#a8d6cd;fill-opacity:1;stroke:none;stroke-width:0.399493;stroke-linecap:round;stroke-miterlimit:4;stroke-dasharray:none"
         d="m 230.83901,69.431134 c -1.3923,0.0778 -2.89864,0.26432 -3.99516,1.21075 -1.04538,0.84756 -1.59468,2.29308 -1.24868,3.61144 0.28187,1.19996 0.69581,2.3947 1.38204,3.42641 0.30586,0.48904 0.99274,0.82754 1.52126,0.48291 0.75294,-0.49491 1.36894,-1.17624 1.94978,-1.85892 0.31521,-0.42656 0.66526,-0.93296 0.5451,-1.49069 0.48269,0.40129 1.24234,0.31485 1.6361,-0.16978 0.60087,-0.66491 0.59174,-1.63755 0.54901,-2.48025 -0.0826,-0.81487 -0.20292,-1.71782 -0.78946,-2.33706 -0.39937,-0.41128 -1.01835,-0.39795 -1.54999,-0.39481 z"
         inkscape:export-filename="C:\Users\megha\Desktop\Portfolio\images\cartoon-meghans\sitting-chill.png"
         inkscape:export-xdpi="100"
         inkscape:export-ydpi="100" />
      <path
         id="path101834-2-0-8"
         style="display:inline;fill:#dbb200;fill-opacity:1;stroke:none;stroke-width:0.399493;stroke-linecap:round;stroke-miterlimit:4;stroke-dasharray:none"
         d="m 236.31919,74.483214 c 0.0741,1.89564 0.0923,3.81823 0.61263,5.65805 0.56397,2.13965 1.65322,4.19162 3.31835,5.67472 0.52123,0.47791 1.34402,0.64119 1.95783,0.24176 0.75906,-0.49961 1.29609,-1.26446 1.81888,-1.99273 1.09689,-1.63605 1.78587,-3.62174 1.55886,-5.60835 -0.11413,-0.89169 -0.5698,-1.70137 -1.06191,-2.43833 -0.91652,-1.32835 -2.47043,-2.08323 -4.04336,-2.28097 -1.38985,-0.19836 -2.79835,-0.0933 -4.19703,-0.12009 0.0126,0.28867 0.0238,0.57732 0.0357,0.86596 z m 4.85386,2.71168 c 0.69437,0.12999 0.99225,0.97861 0.84649,1.60603 -0.0703,0.13472 -0.10061,0.57766 -0.30083,0.4552 -0.58629,-0.41686 -1.06423,-1.14587 -0.95346,-1.88983 0.0125,-0.21323 0.26064,-0.1698 0.4078,-0.1714 z"
         inkscape:export-filename="C:\Users\megha\Desktop\Portfolio\images\cartoon-meghans\sitting-chill.png"
         inkscape:export-xdpi="100"
         inkscape:export-ydpi="100" />
      <path
         id="path101873-6-8-0"
         style="display:inline;fill:#dbb200;fill-opacity:1;stroke:none;stroke-width:0.399493;stroke-linecap:round;stroke-miterlimit:4;stroke-dasharray:none"
         d="m 229.45962,77.237124 c -1.00515,1.51327 -2.11737,3.03866 -2.48554,4.85574 -0.34921,1.51959 0.006,3.17174 0.95326,4.41079 0.95428,1.24068 2.2186,2.32641 3.75634,2.74257 0.9215,0.24988 1.91513,0.43081 2.85797,0.19966 0.23732,-0.081 0.50746,-0.21813 0.62983,-0.43537 0.0971,-0.23627 0.16715,-0.47418 0.0622,-0.7212 -0.32909,-0.73266 -1.09039,-1.14529 -1.48918,-1.8365 -1.08779,-1.69721 -1.77415,-3.62384 -2.26231,-5.57061 -0.37987,-1.59371 -0.46664,-3.23637 -0.69234,-4.85515 -0.0534,-0.15672 -0.0141,-0.70217 -0.12765,-0.60687 -0.4009,0.60566 -0.80179,1.21128 -1.20269,1.81694 z"
         inkscape:export-filename="C:\Users\megha\Desktop\Portfolio\images\cartoon-meghans\sitting-chill.png"
         inkscape:export-xdpi="100"
         inkscape:export-ydpi="100" />
      <path
         id="path73670-0-7-5"
         style="display:inline;fill:#f9cfbc;fill-opacity:1;stroke:none;stroke-width:0.564968;stroke-linecap:round;stroke-miterlimit:4;stroke-dasharray:none"
         d="m 231.64812,48.048184 c -1.08234,0.24833 -3.45143,-0.19967 -4.49921,0.16821 -0.59696,0.18877 0.0948,1.42019 0.0808,2.10151 -0.0111,0.83683 0.19459,2.46862 0.63525,3.14229 0.54888,0.78175 1.60934,0.69884 2.63888,0.70198 0.99168,0.0222 1.84773,-0.8088 2.00135,-1.76462 0.19838,-1.09221 0.2449,-2.21434 0.18116,-3.32174 -0.0307,-0.39255 0.37886,-1.1444 -0.0312,-1.2771 -0.14714,-0.12609 -0.83221,0.21704 -1.00692,0.24949 z"
         inkscape:export-filename="C:\Users\megha\Desktop\Portfolio\images\cartoon-meghans\sitting-chill.png"
         inkscape:export-xdpi="100"
         inkscape:export-ydpi="100"
         sodipodi:nodetypes="cccccccccc" />
      <path
         id="path73592-1-2-1"
         style="display:inline;fill:#f9cfbc;fill-opacity:1;stroke:none;stroke-width:0.564968;stroke-linecap:round;stroke-miterlimit:4;stroke-dasharray:none"
         d="m 194.72876,92.089524 c -0.27059,-0.006 -0.52501,0.0758 -0.70665,0.28296 -0.40902,0.5055 -0.41414,1.20723 -0.53019,1.82313 -0.3684,2.91118 -0.56391,5.841036 -0.81242,8.764236 -0.56401,7.17674 -1.08079,14.35798 -1.4595,21.5469 -0.14179,2.7745 -0.18524,5.55515 -0.40358,8.32511 -0.0157,0.347 -0.44572,0.40221 -0.68564,0.54997 -2.12884,0.84844 -4.31922,1.5321 -6.46778,2.32872 -0.93857,0.3649 -1.92089,0.65864 -2.78339,1.188 -0.43033,0.25533 -0.63647,0.85332 -0.37602,1.28989 0.35997,0.58129 1.12087,0.54644 1.72151,0.57825 1.15787,0.0619 2.35162,-0.0367 3.40889,-0.54914 0.56724,-0.23427 1.17935,-0.34996 1.79,-0.39047 -1.1312,0.74228 -2.24782,1.51671 -3.23478,2.4475 -1.21251,1.14665 -2.19674,2.52371 -3.00019,3.98182 -0.27598,0.56126 -0.65402,1.22644 -0.38485,1.85573 0.17623,0.42565 0.6906,0.63166 1.12461,0.50598 0.87656,-0.29977 1.59076,-0.92798 2.34083,-1.45216 1.3738,-1.03069 2.65314,-2.17712 4.01305,-3.22507 0.23638,-0.17563 0.57302,-0.43435 0.85406,-0.63348 0.66926,-0.47355 1.35316,-0.94246 2.11187,-1.26175 -1.00032,1.22129 -2.03544,2.41632 -2.95262,3.70353 -0.56491,0.80823 -1.19673,1.5922 -1.5828,2.50616 -0.24511,0.62777 0.22356,1.41579 0.91475,1.42678 0.79353,0.0272 1.47229,-0.48158 2.12198,-0.87188 2.50198,-1.66557 4.69786,-3.73148 7.04306,-5.60049 0.45764,-0.35703 0.98493,-0.77482 1.49799,-1.117 1.63739,0.68904 3.04886,1.8545 4.75652,2.38299 0.58075,0.20106 1.35579,0.0477 1.61107,-0.56861 0.29531,-0.64169 -0.13504,-1.28881 -0.4243,-1.84558 -0.7118,-1.31454 -1.63805,-2.50358 -2.30713,-3.84103 -0.37036,-1.24536 -0.28919,-2.56796 -0.25359,-3.85131 0.17964,-3.31548 0.6725,-6.56824 1.2,-9.85237 1.24833,-7.72468 2.91561,-15.37238 4.39646,-23.053516 0.40054,-2.0783 0.77224,-4.16269 1.04306,-6.26247 -2.79814,-0.11776 -5.60202,-0.18352 -8.38601,-0.51235 -0.52762,-0.0582 -1.04316,-0.11776 -1.53573,-0.18707 -1.21745,-0.15829 -2.43391,-0.37067 -3.66254,-0.41191 z"
         inkscape:export-filename="C:\Users\megha\Desktop\Portfolio\images\cartoon-meghans\sitting-chill.png"
         inkscape:export-xdpi="100"
         inkscape:export-ydpi="100" />
      <path
         id="path73631-6-2-6"
         style="display:inline;fill:#f9cfbc;fill-opacity:1;stroke:none;stroke-width:0.564968;stroke-linecap:round;stroke-miterlimit:4;stroke-dasharray:none"
         d="m 297.27713,38.862804 c -0.78328,0.11602 -1.35361,0.74343 -1.90761,1.25732 -1.75768,1.77501 -3.26636,3.77854 -4.71424,5.80893 -0.83261,1.15279 -1.57281,2.36827 -2.38073,3.5375 -0.7736,-1.20711 -1.44351,-2.54819 -2.60118,-3.44198 -0.51295,-0.40503 -1.33953,-0.49523 -1.8075,0.0235 -0.58751,0.64676 -0.49187,1.59938 -0.43392,2.40615 0.22314,2.18561 0.75337,4.32865 1.40322,6.42323 0.40352,1.38661 0.40288,2.85212 0.31585,4.28132 -0.12655,0.87152 -0.61012,1.63601 -1.0036,2.40793 -1.2899,2.22282 -2.93044,4.24414 -4.56603,6.19064 -0.47812,0.56066 -0.96667,1.12077 -1.49482,1.67292 -1.26193,1.29306 -2.67127,2.59837 -4.46399,3.07077 -1.25127,0.29624 -2.57691,0.15547 -3.80222,-0.19462 -0.76086,-0.20031 -1.41393,-0.64455 -2.09742,-1.01275 -0.48202,-0.25271 -1.12882,-0.45296 -1.59173,-0.055 -0.70145,0.92275 -1.19282,1.98345 -1.75666,2.99173 -0.93597,1.77896 -1.86799,3.56849 -2.53919,5.46795 -0.82843,2.16582 -1.56847,4.36372 -2.33707,6.55114 0.64988,0.68798 1.29187,1.39696 2.09976,1.90538 1.4518,0.96461 2.98107,1.83947 4.62091,2.44237 1.41211,0.50462 2.95933,0.68126 4.43053,0.33969 1.93527,-0.43808 3.71738,-1.35329 5.47731,-2.24144 1.04273,-0.50997 1.85954,-1.35625 2.57996,-2.24726 3.25466,-3.90988 6.28787,-8.00172 9.15455,-12.20344 1.32926,-1.95241 2.59577,-3.95015 3.69928,-6.04 1.1403,-2.11678 2.50764,-4.10327 4.02337,-5.9678 3.08999,-3.86034 6.39556,-7.54268 9.48536,-11.40286 0.36146,-0.50969 0.87987,-1.00176 0.91764,-1.65702 -0.0157,-0.43489 -0.34387,-0.82273 -0.77406,-0.89988 -0.76358,-0.11461 -1.48186,0.29032 -2.15255,0.60038 -1.90359,1.06192 -3.56798,2.48638 -5.3757,3.69333 -0.26538,0.20994 -0.3646,0.18348 -0.17193,-0.13017 0.3302,-0.68051 0.76772,-1.33889 1.16266,-1.92991 1.52219,-2.28509 3.29406,-4.39574 4.75286,-6.72339 0.52117,-0.85961 1.06884,-1.89262 0.74259,-2.92058 -0.20448,-0.68967 -1.01114,-1.03892 -1.67589,-0.82293 -1.06273,0.32309 -1.86272,1.16439 -2.58722,1.96617 -1.96227,2.38915 -3.58128,5.03184 -5.42687,7.50787 -0.0788,0.0628 0.13614,-0.36602 0.18212,-0.5007 1.21583,-2.72664 3.0625,-5.14755 4.03385,-7.98638 0.19829,-0.58178 0.31255,-1.34772 -0.21657,-1.79444 -0.3321,-0.27371 -0.77575,-0.40879 -1.20312,-0.3737 z"
         inkscape:export-filename="C:\Users\megha\Desktop\Portfolio\images\cartoon-meghans\sitting-chill.png"
         inkscape:export-xdpi="100"
         inkscape:export-ydpi="100" />
      <path
         id="path73746-5-3-2"
         style="display:inline;fill:#f9d349;fill-opacity:1;stroke:none;stroke-width:0.564968;stroke-linecap:round;stroke-miterlimit:4;stroke-dasharray:none"
         d="m 243.8441,48.492524 c -1.43855,0.0482 -2.89487,0.0163 -4.312,0.30139 -0.77402,0.2062 -1.56983,0.51159 -2.1414,1.09182 -0.52918,0.58872 -0.49836,1.43095 -0.72299,2.15026 -0.25939,1.14285 -0.71085,2.25101 -1.4441,3.17458 -0.79657,1.10661 -1.8117,2.15201 -3.15554,2.54901 -1.30882,0.38967 -2.70985,0.34282 -4.04728,0.14164 -1.28488,-0.19616 -2.32438,-1.10138 -3.08683,-2.10372 -0.51293,-0.7296 -1.00483,-1.52379 -1.16275,-2.41379 0.0262,-0.69919 -0.2378,-1.45812 -0.88196,-1.80825 -0.90878,-0.48601 -1.97303,-0.50041 -2.97412,-0.62126 -3.5868,-0.33156 -7.3317,0.0126 -10.59933,1.62044 -2.63434,1.27461 -4.84026,3.33991 -6.43728,5.77955 -2.1476,3.24622 -3.73642,6.82034 -5.20561,10.41286 -1.90044,4.67439 -3.43206,9.4853 -5.03356,14.26712 0.74365,0.67371 1.47973,1.37247 2.37837,1.83914 1.7985,0.9932 3.71166,1.79954 5.70328,2.31274 3.15275,0.76265 6.44605,1.05768 9.66931,0.60926 0.53393,-0.0618 1.07341,-0.11177 1.58161,-0.29886 1.10532,-3.59369 1.90659,-7.28611 3.28357,-10.79303 -0.61029,2.34377 -1.30407,4.66581 -1.83827,7.02923 -0.45602,2.02884 -0.93548,4.06371 -1.12523,6.13834 -0.0298,0.58607 0.011,1.19454 -0.20146,1.75307 -0.78731,0.17785 -1.57286,0.47017 -2.22506,0.95291 -0.70033,0.60214 -0.84747,1.57141 -1.06274,2.42064 -0.28739,1.39506 -0.62528,2.8159 -0.49944,4.24965 0.32398,2.500686 1.11723,4.910076 1.92062,7.290566 1.6184,4.6017 3.532,9.10483 5.79872,13.42568 1.27528,2.31886 2.51877,4.65515 3.79067,6.97562 0.83853,1.46533 1.64841,2.97736 2.79832,4.22788 0.60322,0.66203 1.43626,1.18749 2.36208,1.14514 1.354,-0.0527 2.64338,-0.52872 3.93933,-0.88181 4.03666,-1.17511 7.93992,-2.77115 11.709,-4.62707 6.28659,-3.07577 12.37975,-6.62937 17.83043,-11.04054 3.38414,-2.76552 6.55625,-5.87917 8.90054,-9.59252 0.52574,-0.88244 1.07377,-1.76472 1.44708,-2.72454 0.27284,-0.66234 0.10846,-1.46694 -0.43568,-1.94249 -0.73166,-0.64987 -1.57921,-1.15582 -2.31769,-1.799686 -2.5355,-2.10118 -4.88054,-4.43438 -7.0076,-6.94784 -1.97162,-2.35009 -3.48062,-5.04204 -4.90134,-7.74837 -1.90272,-3.71844 -3.58041,-7.5661 -4.80697,-11.56305 -0.34665,-1.175 -0.66398,-2.36435 -0.82456,-3.58089 1.38485,3.54059 2.85594,7.04942 4.4549,10.49902 0.31097,0.60168 0.54579,1.26634 1.00092,1.77657 0.16816,0.15802 0.4316,0.26015 0.64301,0.29461 0.35446,-0.12277 0.67874,-0.33339 0.82072,-0.69741 0.32046,-0.65391 0.53616,-1.35231 0.76782,-2.04077 0.0533,-0.14368 0.16165,-0.44893 0.24145,-0.65151 1.12517,-2.81237 2.61145,-5.4738 4.30657,-7.98078 0.85034,-1.27484 1.82566,-2.4615 2.89803,-3.55553 0.33564,-0.35922 0.67142,-0.71829 1.00737,-1.07724 -2.03203,-2.48107 -4.06065,-4.96555 -5.99512,-7.52408 -1.98837,-2.5712 -3.84983,-5.2505 -6.04071,-7.65758 -1.29899,-1.28833 -2.98425,-2.1851 -4.79241,-2.4897 -1.30869,-0.24274 -2.64709,-0.27509 -3.97469,-0.26637 z m -6.17638,18.50236 c 0.61716,-0.017 1.23868,0.19176 1.66371,0.65231 0.86704,0.87109 1.57438,1.93604 1.93018,3.11865 0.0959,0.52669 0.06,1.07904 0.26812,1.58513 0.27866,0.84325 0.84093,1.61959 1.65474,2.01088 1.14995,0.79914 1.87938,2.07645 2.33601,3.37412 0.24757,0.95233 0.15689,1.95125 0.16072,2.9253 0.0183,0.76954 -0.18445,1.52325 -0.5424,2.20133 -0.54067,1.07935 -1.20705,2.12398 -2.15955,2.88697 -1.8009,1.48457 -3.88079,2.62357 -6.07143,3.42002 -1.6139,0.54327 -3.37806,0.9415 -5.06378,0.48924 -1.15697,-0.26695 -2.20135,-0.85052 -3.30721,-1.25909 -1.128,-0.36046 -2.31518,-0.0488 -3.45543,0.078 -0.3983,0.0158 -0.88403,0.25345 -1.20993,-0.083 -0.17776,-0.13912 -0.34772,-0.29033 -0.48912,-0.46705 0.68197,-1.66473 1.77276,-3.11279 2.66347,-4.66449 0.2545,-0.43258 0.46283,-0.89317 0.55043,-1.38801 0.44806,-1.30757 1.05631,-2.55224 1.59526,-3.82337 -0.77281,-0.75874 -1.62563,-1.44239 -2.32717,-2.26971 -0.48728,-0.66551 -0.66097,-1.51151 -0.74229,-2.31783 -0.11602,-1.25891 0.44694,-2.56678 1.50531,-3.27873 0.63517,-0.45957 1.3919,-0.74689 2.17916,-0.77079 1.12876,-0.13393 2.27502,0.0175 3.39809,-0.16237 0.98175,-0.17665 1.59815,-1.04715 2.46971,-1.45513 0.92097,-0.47824 1.94879,-0.80062 2.9934,-0.80248 z"
         inkscape:export-filename="C:\Users\megha\Desktop\Portfolio\images\cartoon-meghans\sitting-chill.png"
         inkscape:export-xdpi="100"
         inkscape:export-ydpi="100"
         sodipodi:nodetypes="cccccccccccccccccccccccccccccccccccccccccccccccccccccccccccccccccccccccccccccccccc" />
      <path
         style="display:inline;fill:#020201;stroke-width:0.415928"
         d="m 253.77019,51.008474 c 0.59354,0.57709 1.69556,1.96278 2.449,3.07932 0.7534,1.11651 3.19969,4.32386 5.43622,7.12743 2.23651,2.80357 4.83292,6.22039 5.76978,7.59289 3.33498,4.88574 7.01404,3.96459 12.80729,-3.20658 2.73792,-3.38917 4.25643,-6.21367 4.26263,-7.92874 0.002,-0.5719 -0.38486,-2.25641 -0.85984,-3.74335 -0.97167,-3.04174 -1.17041,-7.56626 -0.3745,-8.52529 0.87821,-1.05813 2.72279,-0.76281 3.88857,0.62263 0.57746,0.68629 1.14285,1.24777 1.25641,1.24777 0.1135,0 1.33884,-1.56853 2.72282,-3.48564 2.94141,-4.07448 4.91765,-5.28182 6.30993,-5.28182 1.21003,0 2.55206,0.633669 1.96293,3.061986 0.53165,-0.350572 0.43772,-0.417389 1.70645,-1.509035 0.50843,-0.35611 1.24676,-0.688121 1.9885,-0.688121 2.81593,0 2.6878,2.76106 -0.32717,7.05052 -1.71415,2.43873 -1.79119,2.99461 -0.27755,2.00282 2.53306,-1.65971 4.79812,-1.11477 4.26103,1.02516 -0.241,0.96019 -4.48444,6.60547 -9.2952,12.3659 -2.0182,2.41661 -3.83616,5.03129 -5.93932,8.5423 -3.62004,6.04322 -11.44683,16.74478 -13.46069,18.40476 -2.14334,1.76675 -6.48101,3.43152 -8.941,3.43152 -2.40101,0 -5.92194,-1.22445 -7.33313,-2.55023 -1.99581,-1.679575 -1.89657,0.810583 -2.67911,1.292174 -0.20446,0.115059 6.33438,6.945976 11.26379,9.298202 2.6976,1.28724 2.72436,1.29075 12.16566,1.598 15.12565,0.49224 30.74638,3.44933 38.21608,7.23451 6.93126,3.51234 9.26079,10.77809 6.65884,20.76889 -2.10037,6.95123 -5.55044,9.03111 -9.91527,14.66103 -2.3168,3.00842 -5.48221,5.92746 -6.42773,5.92746 -0.39723,0 -1.5281,-0.93979 -2.51303,-2.08841 -0.98491,-1.14865 -3.46145,-3.44145 -5.5034,-5.09515 -4.24301,-3.43624 -4.8139,-3.96598 -4.8139,-4.46685 0,-0.1985 0.76161,-1.24091 1.69246,-2.31642 2.37325,-2.74208 2.75543,-3.44629 3.06554,-5.64866 0.24739,-1.75679 0.15515,-2.07264 -0.98353,-3.36958 -3.26067,-3.71371 -11.58957,-5.13504 -23.82242,-4.06533 l -6.11432,0.53468 -1.91821,2.44153 c -2.1352,2.71775 -2.11251,3.27445 0.13379,3.28488 3.36619,0.0157 12.40783,2.99299 19.21216,6.32644 14.9355,7.31692 26.94412,20.56297 38.37022,42.32402 l 2.28993,4.36117 1.61017,-0.20188 c 0.88558,-0.11098 4.04334,-0.20187 7.01723,-0.20187 4.81605,0 5.62132,0.10547 7.36706,0.96535 2.34644,1.15569 3.65506,3.07264 3.65506,5.35415 0,3.51172 -4.44501,5.53996 -19.13272,8.73015 -7.29045,1.58351 -9.563,1.68629 -10.67642,0.48287 l 8e-5,3e-5 c -0.49616,-0.53624 -2.33527,-3.31459 -4.08695,-6.17411 -1.75167,-2.85952 -4.20638,-6.53844 -5.45488,-8.17543 -2.44737,-3.20885 -16.53869,-18.26485 -20.02173,-21.39242 -4.12488,-3.70389 -10.56501,-6.3959 -19.86176,-8.30231 -3.20265,-0.65675 -7.88184,-1.66974 -10.39821,-2.25107 -2.51637,-0.58135 -7.47631,-1.42018 -11.02211,-1.86405 -7.16875,-0.89743 -9.48233,-1.57727 -14.9134,-4.38232 -4.35424,-2.24887 -5.65181,-3.42801 -9.80014,-8.90572 -7.43217,-9.81396 -12.21227,-19.14585 -15.36293,-29.99209 -1.16019,-3.99406 -1.1374,-4.01822 -2.3537,2.49557 -0.49122,2.63075 -1.16653,6.07036 -1.50067,7.64357 -1.06829,5.02959 -2.2283,13.28045 -2.23285,15.88136 -0.003,2.046 0.26968,3.07691 1.45133,5.47551 2.03062,4.12188 1.8757,6.3535 -0.44106,6.3535 -0.94148,0 -3.78679,-1.70746 -4.62019,-2.77259 -0.41152,-0.52597 -1.04904,-0.13534 -4.15927,2.54808 -5.52277,4.76497 -9.18896,6.24662 -9.90152,4.00154 -0.13189,-0.41561 -0.0493,-1.25673 0.18352,-1.86915 l 0.42337,-1.11351 -1.34861,1.0103 c -2.79454,2.09351 -4.46807,1.89172 -4.46807,-0.53877 0,-1.03574 0.41217,-2.16911 1.23169,-3.38693 l 1.23167,-1.83028 -1.83466,-0.27447 c -1.00907,-0.15092 -2.03124,-0.39598 -2.27149,-0.54448 -0.77388,-0.47827 -0.46611,-1.80122 0.61731,-2.65341 1.22543,-0.96393 6.28119,-3.13068 9.00433,-3.85902 l 1.8802,-0.50288 0.27385,-7.31295 c 0.15059,-4.02213 0.44808,-8.71671 0.66098,-10.43242 0.46691,-3.76215 1.20763,-13.23447 1.47484,-18.860096 l 0.19449,-4.09462 -1.2406,-1.2406 c -1.38852,-1.38854 -1.95945,-3.00541 -1.3352,-3.7813 0.22767,-0.28297 0.91372,-2.19904 1.52455,-4.25786 3.84658,-12.96524 8.26163,-22.89965 12.0493,-27.11243 3.54968,-3.94811 9.14839,-5.34149 22.12005,-4.8901 2.90477,-0.0287 1.59017,2.6483 3.48303,3.35396 1.07551,0.40096 2.07647,0.31127 2.7523,-0.26293 1.22846,-1.04374 0.18552,-2.75994 1.12528,-3.61217 0.43631,-0.39566 4.96643,-1.42202 7.40374,-1.91416 2.43732,-0.49214 6.79584,-0.0632 7.58797,0.053 0.79211,0.11629 1.49938,0.29779 2.15465,0.55062 0.65528,0.25285 1.25854,0.57701 1.84266,0.97864 0.58411,0.40164 1.14906,0.88072 1.72772,1.44337 z m -60.31774,92.234356 c 4.99687,-4.39538 4.82959,-4.29063 5.67769,-3.55539 1.29789,1.12517 4.54237,2.84323 4.82867,2.55693 0.57367,-0.57369 0.22663,-1.53272 -1.38712,-3.83329 -1.45755,-2.07787 -1.66371,-2.65859 -1.66371,-4.68636 0,-4.2375 2.76002,-20.27498 6.21664,-36.122696 0.42413,-1.94447 0.68518,-3.67577 0.58012,-3.84735 -0.10504,-0.17156 -2.00484,-0.31585 -4.22175,-0.32062 -2.21692,-0.006 -5.19814,-0.25328 -6.62492,-0.55229 l -2.59414,-0.54362 -0.19541,1.28017 c -0.10752,0.7041 -0.28411,2.68392 -0.39252,4.39962 -0.10848,1.71573 -0.60603,8.079446 -1.10583,14.141596 -0.49979,6.06216 -0.96467,13.3301 -1.03306,16.151 -0.0684,2.82087 -0.18986,5.19437 -0.26994,5.27447 -0.08,0.08 -2.38779,0.91273 -5.12827,1.85033 -6.12152,2.09439 -7.25426,2.93383 -3.93288,2.9145 1.33542,-0.008 2.60573,-0.26509 3.08013,-0.62388 0.82912,-0.62713 3.56641,-0.85736 3.55164,-0.29873 -0.005,0.17156 -0.96079,0.87346 -2.125,1.55974 -2.211,1.30334 -5.35348,5.1274 -5.35348,6.5146 0,1.38367 0.92834,0.86689 5.55578,-3.09274 4.59952,-3.93575 6.65325,-4.39841 3.72433,-0.83896 -5.55138,6.74637 -4.00212,7.66775 2.81303,1.67297 z m 37.94937,-13.24279 c 9.23738,-3.13235 15.98833,-6.73739 24.61673,-13.14538 5.72397,-4.25102 8.39022,-7.0107 10.97749,-11.36219 1.69014,-2.84262 1.77052,-3.10535 1.0726,-3.50603 -1.3403,-0.76942 -7.08031,-5.916446 -8.88673,-7.968656 -5.29853,-6.01947 -11.49247,-19.93703 -11.19366,-25.1518 l 0.12767,-2.22754 1.00377,2.89994 c 1.47451,4.25979 5.09691,12.67427 5.45621,12.67427 0.17064,0 0.4412,-0.69806 0.60126,-1.55127 0.4936,-2.63104 4.40782,-9.69234 6.6644,-12.02264 l 2.07963,-2.14758 -3.6568,-4.51313 c -2.01126,-2.48223 -4.21141,-5.34214 -4.88927,-6.35535 -3.64372,-5.44633 -5.39825,-6.45491 -11.25027,-6.46718 -4.61818,-0.008 -6.61292,0.54161 -6.61746,1.82879 -0.0141,4.14383 -3.88114,7.90434 -8.15076,7.9272 -2.97139,0.0158 -5.85839,-2.59005 -6.27014,-5.65971 l -0.22071,-1.64553 -3.80412,-0.10229 c -12.20838,-0.32822 -17.38548,5.31986 -24.03656,26.22314 -1.64467,5.16893 -1.67761,5.38004 -0.92669,5.93874 3.36824,2.50606 10.14457,4.18332 14.93419,3.69653 l 2.5096,-0.25505 1.0888,-4.25062 c 1.16755,-4.55811 2.70837,-8.54673 3.30164,-8.54673 0.59526,0 0.41466,1.26608 -0.66093,4.63364 -0.55828,1.74784 -1.31996,4.83611 -1.69266,6.86283 -0.3727,2.0267 -0.8026,4.33872 -0.95533,5.13778 -0.22899,1.19793 -0.4937,1.49006 -1.50869,1.66488 -1.12455,0.19371 -1.27757,0.42775 -1.76949,2.70644 -0.68001,3.1498 -0.4263,5.378436 1.14138,10.026436 1.7903,5.30799 3.92144,10.55937 4.52465,11.85256 2.35809,4.01048 7.91337,15.03438 9.48948,14.62856 0.69295,0 4.13021,-0.88363 6.90077,-1.8231 z m 29.10982,-20.58063 c 0.2359,-1.22718 0.70601,-2.54776 0.70601,-5.28276 0,-4.373096 0.0754,-4.910316 0.62388,-4.454996 0.47744,0.396226 0.61418,1.409046 0.58245,4.314206 -0.0434,3.96812 -2.05266,6.15347 -1.91234,5.42355 z M 229.76511,89.509644 c -1.75058,-0.88663 -2.32905,-1.00273 -3.25052,-0.65239 -3.98038,1.51333 -4.81427,-0.88835 -1.63219,-4.70085 0.53972,-0.64664 0.98542,-1.48889 0.99044,-1.87167 0.005,-0.38279 0.36065,-1.47007 0.79027,-2.41619 l 0.78114,-1.72025 -1.1478,-0.84859 c -1.2409,-0.91743 -2.17009,-3.60909 -1.78947,-5.18361 0.5568,-2.30316 3.4628,-3.90245 6.38009,-3.51116 1.14115,0.15311 1.75249,0.0293 2.13515,-0.43209 0.76667,-0.92453 2.97642,-1.76549 4.63901,-1.76549 2.25637,0 4.81829,3.35509 4.34188,5.68611 -0.10672,0.52251 0.30505,1.02245 1.31493,1.59631 2.79908,1.59049 4.01621,6.54473 2.37326,9.66008 -1.86466,3.53574 -7.16087,6.79879 -11.50169,7.08633 -1.84333,0.12214 -2.71398,-0.0602 -4.4245,-0.92654 z m 4.8331,-1.01356 c 0,-0.20428 -0.28938,-0.48248 -0.6431,-0.6182 -0.99676,-0.38251 -3.18969,-5.4862 -3.48045,-8.10017 l -0.26118,-2.34823 -1.19711,1.77791 c -1.83088,2.71921 -1.91681,5.26927 -0.24479,7.26338 1.24922,1.48984 2.88478,2.27881 4.89078,2.35922 0.51473,0.0206 0.93585,-0.12968 0.93585,-0.33391 z m 8.88552,-4.95349 c 3.13914,-4.52974 0.89393,-9.23259 -4.4078,-9.23259 h -1.98214 v 2.01355 c 0,2.74143 0.87823,5.4465 2.50266,7.70846 1.5706,2.18704 2.07668,2.1233 3.88728,-0.48942 z m -2.79009,-4.17021 c -1.10852,-1.2249 -0.91002,-2.98274 0.33684,-2.98274 1.235,0 2.06084,1.32765 1.70579,2.74228 -0.29943,1.19295 -1.09577,1.2867 -2.04263,0.24046 z m -11.29191,-2.98549 c 0.92815,-0.96879 1.08625,-1.36236 0.70169,-1.74691 -0.54831,-0.54832 -0.67917,-1.9937 -0.18049,-1.9937 0.17374,0 0.54967,0.37432 0.83539,0.83184 1.23555,1.97845 2.23087,0.34483 1.48578,-2.43865 -0.24083,-0.89969 -0.43438,-0.96645 -2.28613,-0.78853 -3.50598,0.33688 -4.60076,2.51241 -2.97741,5.91661 0.85037,1.78329 0.91703,1.78933 2.42117,0.21934 z m 7.06815,-3.68695 c 0.22877,-0.14382 0.43465,-0.49559 0.45753,-0.78154 0.1223,-1.52986 0.20214,-1.76769 0.5927,-1.76769 0.23447,0 0.53863,0.56148 0.67588,1.24778 0.20785,1.03921 0.44944,1.24779 1.44536,1.24779 1.48248,0 1.6037,-1.11348 0.34327,-3.15289 -0.94939,-1.53617 -2.0093,-2.03621 -3.41074,-1.60913 -1.79691,0.54759 -2.3916,1.44442 -2.3916,3.60673 0,1.92642 0.0535,2.02684 0.93584,1.75689 0.51471,-0.15745 1.12301,-0.40403 1.35176,-0.54794 z m -36.08656,17.2074 c 0.39648,-1.29181 0.36206,-1.45576 -0.30544,-1.45576 -0.74791,0 -1.85033,2.17208 -1.35423,2.66818 0.60101,0.601 1.24822,0.12827 1.65967,-1.21242 z m 3.02023,0.20796 c 0,-0.94912 -0.18937,-1.24778 -0.79119,-1.24778 -0.5051,0 -0.9484,0.45112 -1.22614,1.24778 -0.41923,1.20261 -0.39059,1.24779 0.79118,1.24779 1.0851,0 1.22615,-0.14351 1.22615,-1.24779 z m 2.67384,0.59418 c 0.97009,-0.97009 0.80834,-1.84196 -0.34174,-1.84196 -0.96273,0 -1.50026,0.68277 -1.50026,1.90569 0,0.78578 1.02804,0.75021 1.842,-0.0637 z m 2.90718,0.40114 c 0.36184,-0.1388 0.65791,-0.70035 0.65791,-1.24777 0,-0.78441 -0.22035,-0.99533 -1.03981,-0.99533 -0.81207,0 -1.03983,0.21258 -1.03983,0.97049 0,1.38576 0.33812,1.68843 1.42173,1.27261 z m 2.18115,-1.51522 c -0.11538,-0.28596 -0.20978,-0.052 -0.20978,0.5199 0,0.5719 0.0944,0.80585 0.20978,0.51991 0.11538,-0.28596 0.11538,-0.75386 0,-1.03981 z m -13.5795,0.41591 c 0.003,-0.28595 0.11852,-0.94103 0.25648,-1.45574 0.36391,-1.35798 -0.83148,-1.21899 -1.46447,0.17026 -0.40273,0.8839 -0.39524,1.17507 0.0372,1.44938 0.77248,0.48996 1.16423,0.43514 1.17078,-0.1639 z m 76.15576,-0.71847 c 1.46139,-0.68111 3.04917,-1.57665 3.5284,-1.99007 2.04123,-1.76103 11.39225,-14.73926 13.42803,-18.63671 2.11284,-4.04497 5.49105,-8.45269 12.00815,-15.66758 2.18469,-2.41863 3.27639,-4.47608 2.37501,-4.47608 -0.72766,0 -3.98498,2.008 -5.4852,3.38138 -1.77863,1.62828 -3.02477,2.06539 -3.02477,1.061 0,-0.52968 1.18842,-2.27892 5.13742,-7.56184 2.77642,-3.71423 3.02712,-6.01787 0.51124,-4.69766 -1.16596,0.61184 -4.23627,4.42893 -6.19055,7.6963 -1.23374,2.06264 -2.03946,2.6552 -2.53036,1.86093 -0.11538,-0.18675 0.90297,-2.18777 2.26307,-4.4467 2.60296,-4.32318 3.15459,-6.44385 1.67621,-6.44385 -1.02297,0 -4.81271,4.30718 -7.20787,8.19202 l -1.842,2.98763 -1.41963,-2.1581 c -2.00596,-3.04941 -2.87539,-3.09579 -2.87539,-0.15343 0,1.25086 0.35366,3.46382 0.78592,4.91766 1.28735,4.32985 1.31534,4.63402 0.62962,6.84393 -1.25747,4.05252 -8.95693,12.53641 -12.09118,13.32306 -1.51731,0.38083 -3.91051,-0.12733 -5.24441,-1.1135 -0.90622,-0.66999 -1.31457,-0.76397 -1.74988,-0.40271 -1.30154,1.08018 -6.0661,12.2924 -6.02516,14.17871 0.017,0.78445 3.18458,3.14226 5.22663,3.89051 2.66952,0.97819 5.14575,0.79972 8.1167,-0.58493 z m -78.06547,-1.06836 c 0.4716,-1.87901 -0.55641,-2.54945 -1.32447,-0.86374 -0.32706,0.71782 -0.32257,1.11676 0.0164,1.45575 0.70899,0.70898 1.01643,0.56984 1.30804,-0.59201 z m -1.99531,-3.04125 c -0.576,-0.74553 -1.32976,0.8006 -0.91598,1.87887 0.24977,0.6509 0.34431,0.61748 0.81741,-0.28898 0.37914,-0.72643 0.40784,-1.18958 0.0986,-1.58989 z m 64.0138,-1.71078 c 0,0 -0.88838,-0.754238 -1.13489,-0.670338 -0.2465,0.0839 -0.63877,1.601578 -0.63877,1.601578 -0.23021,0.382401 0.48896,0.733472 1.11172,1.327752 1.34269,1.281297 1.74249,0.665235 2.03711,-2.84e-4 0.73855,-1.668351 0.0599,-1.143144 -1.37517,-2.258708 z m 0.5829,-3.626815 c -1.39136,-1.303311 -1.09601,-2.537452 0.23603,-1.286082 0,0 1.73649,1.930143 2.03668,1.838153 0.30019,-0.09199 0.60945,-1.046406 0.60945,-1.046406 0.2281,-0.90884 -0.64421,-1.16883 -1.40947,-1.7575 -1.32705,-1.02096 -1.18137,-0.483136 -2.01166,1.40936 -0.9746,2.221424 -0.78642,2.183958 0.35525,3.301453 1.60176,1.567845 1.43776,1.114306 1.77482,0.512016 0.26938,-0.48134 0.92557,-0.61359 -1.59109,-2.970994 z m 3.72351,-3.090495 c 0.63805,-1.019842 0.13676,-1.053816 -0.61038,-1.801796 0,0 -0.946,-1.219746 -1.33603,-1.163314 -0.39003,0.05643 -0.63629,0.892669 -0.63629,0.892669 -0.42041,0.78552 -0.21169,1.102791 0.58819,1.954201 1.15491,1.22936 1.36424,1.125631 1.99451,0.11824 z m 1.09937,-2.46338 c 1.15344,-1.551838 0.89783,-0.91846 -1.44802,-2.822934 -0.92068,-1.40509 -0.36245,-2.104724 0.77544,-0.964614 1.13788,1.14011 2.00097,2.121401 2.39374,1.464774 0.6537,-1.092837 0.2918,-0.964764 -0.57186,-1.973731 -0.66295,-0.77449 -0.60557,-0.894925 -1.16022,-0.836299 -0.55465,0.05862 -1.23562,1.805474 -1.23562,1.805474 -1.10807,1.59896 -1.61553,1.905876 -0.47101,2.71525 0.96574,0.680356 1.28377,1.3139 1.7175,0.61208 z m 1.33581,-6.585643 c -0.44375,0.3683 -0.30228,0.561378 0.78939,1.899277 0.77975,0.955614 0.55518,0.926787 1.10437,0.596669 0.39434,-0.237039 0.50303,0.09389 -0.58249,-1.40914 -0.93493,-1.398565 -0.79526,-1.418881 -1.31127,-1.086806 z M 229.60752,56.057024 c 0,-1.43966 -3.25874,-2.83221 -3.9626,-1.69332 -0.14761,0.23878 -0.0383,0.71143 0.24304,1.05031 0.44862,0.54054 0.60998,0.52696 1.31478,-0.11084 0.77831,-0.70433 0.79453,-0.69167 0.51919,0.40545 -0.25499,1.01593 -0.17257,1.1325 0.80065,1.1325 0.78557,0 1.08494,-0.21631 1.08494,-0.784 z m 2.76817,0.16014 c 0.23224,-0.74421 -0.52924,-1.49076 -1.24171,-1.21738 -1.07978,0.41437 -0.9008,1.92947 0.20864,1.76621 0.49679,-0.0732 0.96168,-0.32006 1.03307,-0.54883 z m 1.79127,-1.22958 c 0.56605,-0.68203 0.24969,-1.47396 -0.58882,-1.47396 -0.52431,0 -1.05977,0.85781 -1.05977,1.69774 0,0.5963 1.09088,0.44825 1.64859,-0.22378 z m -7.70716,-1.84737 c 0.55756,-0.21835 0.65209,-0.40899 0.30822,-0.62151 -0.60095,-0.3714 -2.15229,0.0662 -2.15229,0.60701 0,0.45312 0.70974,0.4587 1.84407,0.0142 z m 8.97007,-0.0425 c 0,-0.82489 -0.19427,-1.03735 -0.81957,-0.89631 -0.86019,0.19407 -0.97546,0.34736 -0.65328,0.86865 0.34675,0.56107 1.47285,0.58223 1.47285,0.0275 z m -1.24778,-1.87166 c 0,-0.11444 -0.0935,-0.20799 -0.20796,-0.20799 -0.11445,0 -0.20797,0.0935 -0.20797,0.20799 0,0.11444 0.0935,0.20795 0.20797,0.20795 0.11444,0 0.20796,-0.0935 0.20796,-0.20795 z m 1.55107,-0.45927 c -0.13819,-0.13819 -0.49694,-0.15295 -0.7972,-0.0329 -0.33181,0.13283 -0.23324,0.23133 0.25128,0.25127 0.43847,0.018 0.68414,-0.0802 0.54592,-0.21843 z m 58.96658,125.141946 c -6.78579,-0.88665 -16.0607,-4.44206 -17.79969,-6.82327 -1.95185,-2.67268 -1.26286,-6.94545 1.50453,-9.33018 3.41875,-2.94603 6.16741,-1.58751 15.6686,7.74422 8.17298,8.0272 8.50178,8.65972 4.47389,8.60657 -1.42975,-0.019 -3.16105,-0.10768 -3.84733,-0.19734 z"
         id="path2864-8-5-0"
         sodipodi:nodetypes="sssssccsssssccssssscssccsssccsssssscscscssccssssccssssssssssscssscsscssscccsscssscsscscssszsssssccsssccscccsssscscsssssccsssscsssscsscccsccscscsssssssssccccsccsssscscsscssccscsscscsscscscsscssssscscssssccsssssssccsscsssssscssscssscsccscsscccscsssssssssssscssssssssssscscccssssssczsssccczcssssscsszscscczsszscsccssccccssscsccsccsccscccscccscccscccscccsssccss"
         inkscape:export-filename="C:\Users\megha\Desktop\Portfolio\images\cartoon-meghans\sitting-chill.png"
         inkscape:export-xdpi="100"
         inkscape:export-ydpi="100" />
      <path
         style="display:inline;fill:none;stroke:#000000;stroke-width:1.15149;stroke-linecap:butt;stroke-linejoin:miter;stroke-miterlimit:4;stroke-dasharray:none;stroke-opacity:1"
         d="m 226.91778,47.902734 0.30197,3.91919"
         id="path32011-7-7-3-0-6"
         inkscape:export-filename="C:\Users\megha\Desktop\Portfolio\images\cartoon-meghans\standing2.png"
         inkscape:export-xdpi="99.938736"
         inkscape:export-ydpi="99.938736" />
      <path
         style="display:inline;fill:none;stroke:#000000;stroke-width:1.0803;stroke-linecap:butt;stroke-linejoin:miter;stroke-miterlimit:4;stroke-dasharray:none;stroke-opacity:1"
         d="m 232.91242,47.331074 0.25225,4.22528"
         id="path32013-2-3-0-6-2"
         inkscape:export-filename="C:\Users\megha\Desktop\Portfolio\images\cartoon-meghans\standing2.png"
         inkscape:export-xdpi="99.938736"
         inkscape:export-ydpi="99.938736"
         sodipodi:nodetypes="cc" />
      <path
         style="display:inline;fill:#a6743f;fill-opacity:0.996078;stroke:none;stroke-width:0.452471px;stroke-linecap:butt;stroke-linejoin:miter;stroke-opacity:1"
         d="m 242.58339,42.791394 c 0,0 2.79252,3.03892 7.39194,-0.41066 4.59943,-3.44957 -0.2464,-3.12105 5.83142,-7.63833 1.14986,-0.82132 1.64264,-4.27089 -0.0821,-6.57061 -0.82132,-1.14985 1.80692,-4.59943 1.72479,-8.049 -0.0821,-3.44957 -5.17435,-5.42075 -6.57061,-6.15993 -1.39627,-0.73921 -6.40634,-14.70175946 -15.44093,-15.3587995 -9.03458,-0.65707 -10.1023,-3.20318 -21.84728,4.27089 -11.74495,7.4740605 -14.70173,19.4654295 -13.71613,23.2435295 0.98558,3.7781 1.39625,5.50288 3.36743,7.96685 0.24639,3.28531 3.20317,11.74498 11.82709,9.77378 0,1.06774 27.51442,-1.06772 27.51442,-1.06772 z"
         id="path78830-0-2-5"
         inkscape:export-filename="C:\Users\megha\Desktop\Portfolio\images\cartoon-meghans\sitting-chill.png"
         inkscape:export-xdpi="100"
         inkscape:export-ydpi="100" />
      <path
         style="display:inline;fill:#f9cfbc;fill-opacity:1;stroke:none;stroke-width:0.452471px;stroke-linecap:butt;stroke-linejoin:miter;stroke-opacity:1"
         d="m 245.8687,25.215024 c 0,0 6.24207,19.87609 -13.05909,22.34007 -19.30115,2.46397 -22.09367,-8.78819 -22.34006,-11.17004 -3.28531,-1.23199 -5.09222,-2.46397 -4.84582,-5.17436 0.24639,-2.71038 1.80692,-5.01009 4.59942,-2.38185 -0.7392,-4.10663 -0.57493,-12.56627 1.88904,-13.38761 2.46399,-0.82133 5.58503,-2.71037 5.58503,-2.71037 l 1.88905,3.69597 4.0245,0.82132 3.12104,2.5461 2.5461,-5.17435 5.25648,-1.14985 5.33863,4.59942 1.88904,5.09223 0.65707,2.54611 z"
         id="path73837-0-9-4"
         inkscape:export-filename="C:\Users\megha\Desktop\Portfolio\images\cartoon-meghans\sitting-chill.png"
         inkscape:export-xdpi="100"
         inkscape:export-ydpi="100" />
      <ellipse
         style="display:inline;fill:#ffffff;fill-opacity:1;stroke:none;stroke-width:1.25926;stroke-linecap:round;stroke-miterlimit:4;stroke-dasharray:none"
         id="path87011-3-0-7"
         transform="matrix(0.99076096,-0.13561979,0.16680362,0.98599014,0,0)"
         inkscape:export-filename="C:\Users\megha\Desktop\Portfolio\images\cartoon-meghans\sitting-chill.png"
         inkscape:export-xdpi="100"
         inkscape:export-ydpi="100"
         ry="11.294333"
         rx="8.0425587"
         cy="55.909058"
         cx="226.51375" />
      <ellipse
         style="display:inline;fill:#ffffff;fill-opacity:1;stroke:none;stroke-width:1.20703;stroke-linecap:round;stroke-miterlimit:4;stroke-dasharray:none"
         id="path87011-4-6-9-8"
         cx="210.42743"
         cy="78.196022"
         rx="7.2262902"
         ry="11.549049"
         transform="matrix(0.97191863,-0.2353172,0.22468614,0.97443119,0,0)"
         inkscape:export-filename="C:\Users\megha\Desktop\Portfolio\images\cartoon-meghans\sitting-chill.png"
         inkscape:export-xdpi="100"
         inkscape:export-ydpi="100" />
      <path
         style="display:inline;fill:none;stroke:#000000;stroke-width:1.5;stroke-linecap:round;stroke-linejoin:miter;stroke-miterlimit:4;stroke-dasharray:none;stroke-opacity:1"
         d="m 228.13179,41.846524 c 0.56701,0.71885 1.52455,1.25888 2.37265,1.00553 0.78646,-0.23496 1.71926,-1.26137 1.983,-2.03684"
         id="path1446-4-4-4"
         sodipodi:nodetypes="csc"
         inkscape:export-filename="C:\Users\megha\Desktop\Portfolio\images\cartoon-meghans\sitting-chill.png"
         inkscape:export-xdpi="100"
         inkscape:export-ydpi="100" />
      <ellipse
         style="display:inline;fill:#f9cfbc;fill-opacity:1;stroke:#000000;stroke-width:2.19994;stroke-linecap:round;stroke-miterlimit:4;stroke-dasharray:none;stroke-opacity:1;paint-order:markers stroke fill"
         id="path2451-3-8-3"
         cx="229.30446"
         cy="36.397873"
         rx="0.5691117"
         ry="0.59312534"
         inkscape:export-filename="C:\Users\megha\Desktop\Portfolio\images\cartoon-meghans\sitting-chill.png"
         inkscape:export-xdpi="100"
         inkscape:export-ydpi="100" />
      <path
         style="display:inline;fill:#000000;stroke:#000000;stroke-width:0.29656px;stroke-linecap:butt;stroke-linejoin:miter;stroke-opacity:1"
         d="m 224.39099,25.723086 c 0.25803,-2.273737 -0.1481,-5.609702 -1.51754,-7.082718 -1.22566,-1.16884 -3.41929,-1.217761 -4.24302,0.143962 -0.46836,0.762716 -0.40346,1.741008 0.0159,2.512067 0.44496,0.96815 0.92934,1.867255 1.1832,2.939468 0.33973,1.434665 0.27197,2.71094 0.77776,4.003107 0.31723,0.810418 1.145,1.660382 2.25967,1.011553 1.40967,-0.82056 1.3231,-2.345469 1.52398,-3.527437 z"
         id="path5874-7-1-2"
         sodipodi:nodetypes="ccccsssc"
         inkscape:export-filename="C:\Users\megha\Desktop\Portfolio\images\cartoon-meghans\sitting-chill.png"
         inkscape:export-xdpi="100"
         inkscape:export-ydpi="100" />
      <path
         d="m 219.00889,13.797904 c 0.33607,0.685295 0.76345,0.394174 1.81614,0.394174 0.41089,0 2.06902,0.304748 3.25761,0.936728 1.18859,0.63198 1.98608,1.522582 2.49545,2.204897 0.0496,-0.072 0.2987,-0.640009 0.85216,-1.560669 2.05907,-3.42513 6.22618,-3.994509 9.48741,-2.02011 2.1659,1.31124 3.24361,3.31562 4.74784,7.05513 1.05913,2.633 1.14229,3.62438 1.25719,4.01362 0.80801,0.005 1.08317,-0.058 2.612,-0.2208 1.02305,-0.0472 2.25511,0.009 2.25511,0.243 0,0.23377 -0.60806,0.48106 -0.96908,0.52136 -0.0581,0.007 0.0901,1.06897 0.44252,2.37549 2.17949,8.07894 -1.79445,18.41733 -14.14993,20.7398 -8.29219,1.09425 -12.77835,0.0151 -13.83904,-0.52596 -2.24184,-1.14373 -6.97901,-5.51992 -7.89768,-7.29589 -1.25656,-2.4292 -0.43657,-3.08178 0.88106,-0.70117 1.07639,1.94476 4.94371,5.00823 8.21029,6.50372 2.48462,1.13751 2.90134,1.18953 7.65086,0.95519 4.46155,-0.22012 5.42585,-0.42553 8.62555,-1.83708 1.98135,-0.87409 4.25801,-2.11234 5.05926,-2.75167 1.95608,-1.5608 4.79946,-6.36633 4.75964,-9.57945 -0.0449,-3.62602 -0.45012,-7.64919 -0.97073,-7.6795 -0.3817,-0.0222 -2.20078,0.24905 -2.42928,0.24905 -0.22851,0 -0.24303,0.47276 -0.24303,1.05057 0,3.48792 -3.08625,8.14304 -6.11078,9.14122 -0.90839,0.29979 -2.79297,0.59015 -3.89648,0.43889 -1.54751,0.0536 -2.97401,-0.7874 -2.97401,-0.7874 -0.62741,-0.83061 -2.1978,0.76056 -3.50044,1.49794 -4.90078,2.7742 -8.89744,-0.25274 -10.85949,-4.05816 -3.4522,-6.69558 -2.62077,-16.557159 1.99575,-18.111569 0.40595,-0.13664 0.18204,-0.408371 -0.27391,-2.381891 0.62318,-1.411009 1.38729,0.536477 1.70804,1.19054 z m -8.26431,12.76034 c 0,3.33435 -0.30204,3.9247 -1.35741,2.65305 -0.79379,-0.95644 -1.64299,-0.84373 -2.46294,0.32692 -1.60742,2.29492 -0.46507,4.48017 3.14164,6.00987 1.70715,0.72403 1.75406,0.79374 0.82633,1.22827 -1.36943,0.64144 -4.16956,-0.79358 -5.26552,-2.69849 -1.66075,-2.88656 0.13596,-7.20534 2.83276,-6.80951 1.20219,0.17645 1.23318,0.12997 0.89951,-1.34947 -0.47086,-2.08773 0.18917,-7.1971 1.45823,-9.52674 1.33263,-2.44635 2.55733,-1.68408 2.00782,-1.22572 -1.3388,1.34007 -2.08042,6.56664 -2.08042,11.39182 z m 14.79648,9.3252 c 2.3591,-1.43844 3.06272,-2.00269 3.06988,-6.71432 0.007,-4.40276 -0.41186,-6.923073 -2.76325,-9.997503 -1.97586,-2.58347 -3.59492,-3.871201 -5.80296,-3.467421 -5.65597,1.03427 -6.88318,10.142704 -2.22524,17.022294 2.35401,3.47675 5.10384,4.75306 7.72157,3.15695 z m 12.57937,-2.5367 c 3.3875,-3.16161 4.73458,-7.33023 1.49301,-13.83934 -2.86993,-5.76285 -7.52349,-7.399079 -10.37094,-3.40022 -1.43448,2.01455 -1.6465,2.50015 -0.6423,4.23814 1.24407,2.15312 2.20882,7.92263 1.87613,10.75328 -0.26496,2.25442 -0.37649,2.82357 0.80413,3.48861 1.81718,1.02364 5.36676,0.13449 6.83997,-1.24047 z m 6.98335,11.2141 c -0.68932,-0.83058 0.04,-1.52896 1.61228,-1.54392 1.59379,-0.0153 3.73773,-1.67767 4.35115,-3.37403 0.73549,-2.034 1.54811,-1.82392 1.47757,0.38198 -0.11099,3.46998 -5.56592,6.79527 -7.441,4.53597 z m -37.57272,-0.76938 c -2.31293,-1.5497 -4.4785,-5.0328 -4.4785,-7.20322 0,-2.37877 0.78009,-2.0628 1.84709,0.74811 1.1017,2.90233 3.22958,5.03288 5.91852,5.92601 2.97039,0.98661 3.1439,1.55921 0.47249,1.55921 -1.56029,0 -2.68006,-0.30682 -3.7596,-1.03011 z m 45.56392,-6.13775 c -0.12946,-0.20941 0.45998,-1.0547 1.3098,-1.87837 2.13094,-2.0654 2.39122,-3.6153 1.00876,-6.00719 -1.19194,-2.06227 -1.18389,-2.2925 0.18134,-5.18491 2.08443,-4.41618 1.45653,-7.02741 -1.82311,-7.58151 -2.02294,-0.34177 -4.7432,-2.91503 -6.29773,-5.957419 -1.2285,-2.4043005 -3.97999,-6.4593405 -5.43194,-8.0054305 -5.20672,-5.54423 -19.37399,-5.57241 -26.61042,-0.0528 -1.65858,1.26506 -2.42475,1.40962 -2.42475,0.45749 0,-1.47793 5.95641,-4.82935 9.95438,-5.60091 5.03416,-0.97156 7.08855,-1.03988 10.95828,-0.36443 6.56435,1.14579 8.92653,2.78712001 12.99172,9.02708 4.60103,7.0625095 5.16416,7.7087695 7.87278,9.0350395 1.39818,0.68463 2.75092,1.63485 3.00606,2.11163 1.19121,2.22578 0.0587,8.73382 -1.6327,9.38291 -0.44465,0.17067 -0.32018,0.59237 0.48851,1.65522 1.4482,1.90331 1.80236,3.539 1.1767,5.43473 -0.88402,2.67856 -3.87393,4.91037 -4.72768,3.52899 z m -51.53363,-4.82441 c -3.01997,-3.78487 -3.73472,-10.5476 -1.60186,-15.15602 1.28352,-2.77326 4.91831,-7.7870195 6.39533,-8.8215395 2.11828,-1.48371 1.77759,0.21607 -0.69768,3.4808895 -3.18876,4.2059 -3.78905,5.42888 -4.4648,9.09632 -0.4987,2.70648 -0.45266,3.38439 0.48848,7.19507 0.57145,2.31387 1.22286,4.56338 1.44754,4.99888 0.6942,1.34557 -0.23609,0.87445 -1.56701,-0.7936 z m 35.7755,-22.088823 c -0.78061,-0.65685 -1.84833,-1.2167799 -2.3727,-1.2442899 -1.31819,-0.0691 -1.5113,-1.012 -0.33611,-1.64094 1.77679,-0.95091 4.96363,1.22228 4.96363,3.3848599 0,1.00138 -0.63933,0.85972 -2.25482,-0.49963 z"
         style="display:inline;fill:#020201;stroke-width:0.119716"
         id="path51970-5-9-6"
         sodipodi:nodetypes="sssccssccsscccsssssssssssccssccsssssssssscsscscsscssssscscssscssssccssssscsscssscssscccscsssscscsss" />
      <path
         style="display:inline;fill:#000000;stroke:#000000;stroke-width:0.278749px;stroke-linecap:butt;stroke-linejoin:miter;stroke-opacity:1"
         d="m 230.82988,20.719563 c -0.31916,-2.16679 -0.0897,-3.005251 0.67634,-3.986327 0.59145,-0.757511 2.30642,-1.04905 3.19502,-0.433311 1.24928,0.86565 1.06039,2.746142 0.75408,4.068718 -0.30635,1.322588 0.57864,4.099418 0.45792,5.483921 -0.12532,0.875586 -1.074,1.50632 -2.0095,1.356754 -0.5864,-0.09375 -1.2391,-1.018556 -1.67169,-1.644674 -0.5986,-0.866439 -1.08301,-2.678295 -1.40207,-4.845109 z"
         id="path6069-6-2-9"
         sodipodi:nodetypes="zsszssszz"
         inkscape:export-filename="C:\Users\megha\Desktop\Portfolio\images\cartoon-meghans\sitting-chill.png"
         inkscape:export-xdpi="100"
         inkscape:export-ydpi="100" />
      <path
         d="m 216.99893,11.168677 c -0.93068,0.41788 -1.89877,1.13646 -2.15128,1.59685 -0.63474,1.15737 -1.56795,0.92181 -1.62408,-0.40991 -0.0849,-2.01346 3.25671,-3.9402297 5.20469,-3.0010097 0.90201,0.4348997 0.49674,0.9492597 -1.42933,1.8140697 z"
         style="display:inline;fill:#020201;stroke-width:0.0316749"
         id="path54749-4-0-3" />
      <path
         style="fill:#dbb200;fill-opacity:1;stroke:none;stroke-width:0.119477;stroke-linecap:round;stroke-miterlimit:4;stroke-dasharray:none;stroke-dashoffset:2.38337;paint-order:markers stroke fill"
         d="m 257.73934,89.217806 c -0.70665,-0.612612 -0.62297,-0.681209 -1.07008,-1.283517 -0.66596,-0.883078 -0.89922,-1.227932 -1.25972,-1.913397 0.34284,-0.138354 0.89266,0.451981 1.16616,0.597535 0.53938,0.469213 1.80258,1.005258 1.61625,1.647575 -0.12813,0.324386 -0.0625,0.590252 -0.45261,0.951804 z"
         id="path78963"
         sodipodi:nodetypes="cccccc" />
    </g>
    <path
       d="m 77.867414,83.613442 c -0.295472,-0.831251 -0.707403,-3.045893 -0.608828,-4.891416 0.08147,-1.525394 -0.202293,-3.10802 -0.554155,-1.863576 -1.076149,3.806119 -0.09608,9.657168 3.07694,11.706905 0.960467,-0.992442 -0.7494,-1.67574 -1.91396,-4.951912 z"
       style="display:inline;fill:#020201;stroke-width:0.109811"
       id="path66861"
       sodipodi:nodetypes="ssscs" />
    <path
       id="path66955"
       style="display:inline;fill:#020201;stroke-width:0.200898"
       d="m 78.080004,114.66491 c 1.814665,-1.28533 3.771511,-4.11251 4.447192,-6.59058 0.496516,-2.41755 1.095839,-6.38222 0.145736,-6.63004 -1.088274,-0.30351 0.885534,5.59639 -4.638639,11.10308 -1.860258,1.65288 -1.806054,2.85623 0.04577,2.11753 z"
       sodipodi:nodetypes="cccccc" />
    <path
       id="path69092-9"
       style="color:#000000;display:inline;fill:#000000;stroke-width:0.582413;stroke-linecap:round;-inkscape-stroke:none"
       d="m 46.541946,122.78592 c -0.385986,0.23391 -0.226347,0.46405 -0.08896,0.83274 0.573887,1.98684 2.06733,3.60204 3.827906,4.63045 1.088931,0.62891 2.285827,1.09945 3.532262,1.28858 0.710468,0.0788 1.608572,0.0407 2.03768,-0.62641 0.204904,-0.45666 -0.189999,-0.96794 -0.63565,-1.08822 -0.416459,-0.13409 -0.85793,-0.016 -1.28529,-0.0848 -2.068452,-0.15344 -4.514348,-1.27033 -5.844943,-2.87206 -1.025293,-1.06715 -1.170313,-2.09876 -1.543007,-2.08028 z"
       sodipodi:nodetypes="ccccccccc" />
  </g>
</svg>
