<?xml version="1.0" encoding="UTF-8" standalone="no"?>
<!-- Created with Inkscape (http://www.inkscape.org/) -->

<svg
   width="160mm"
   height="260mm"
   viewBox="0 0 160 260"
   version="1.1"
   id="svg932"
   inkscape:version="1.1 (c68e22c387, 2021-05-23)"
   sodipodi:docname="standing1.svg"
   xmlns:inkscape="http://www.inkscape.org/namespaces/inkscape"
   xmlns:sodipodi="http://sodipodi.sourceforge.net/DTD/sodipodi-0.dtd"
   xmlns="http://www.w3.org/2000/svg"
   xmlns:svg="http://www.w3.org/2000/svg">
  <sodipodi:namedview
     id="namedview934"
     pagecolor="#ffffff"
     bordercolor="#666666"
     borderopacity="1.0"
     inkscape:pageshadow="2"
     inkscape:pageopacity="0.0"
     inkscape:pagecheckerboard="0"
     inkscape:document-units="mm"
     showgrid="false"
     inkscape:zoom="1.2136585"
     inkscape:cx="176.32637"
     inkscape:cy="332.05387"
     inkscape:window-width="1167"
     inkscape:window-height="1020"
     inkscape:window-x="750"
     inkscape:window-y="18"
     inkscape:window-maximized="0"
     inkscape:current-layer="layer13"
     inkscape:snap-nodes="false"
     inkscape:snap-others="false"
     inkscape:snap-global="false"
     height="200mm" />
  <defs
     id="defs929" />
  <g
     inkscape:groupmode="layer"
     id="layer13"
     inkscape:label="standing1"
     style="display:inline">
    <path
       style="fill:#d9b100;fill-opacity:1;stroke:#000000;stroke-width:0.264583px;stroke-linecap:butt;stroke-linejoin:miter;stroke-opacity:1"
       d="m 116.8126,92.184073 2.28905,4.796104 c 0,0 -12.64427,3.379073 -15.15133,11.881263 -1.30802,-5.01412 -2.39805,-9.047197 -2.39805,-9.047197 0,0 10.79123,-6.540148 15.26033,-7.63017 z"
       id="path46133" />
    <path
       id="path44492"
       style="fill:#d9b100;fill-opacity:1;stroke:none;stroke-width:0.18951;stroke-linecap:round;stroke-miterlimit:4;stroke-dasharray:none;stroke-dashoffset:2.38337;paint-order:markers stroke fill"
       d="m 73.620639,85.347824 c -0.38028,0.01016 -0.71335,0.240877 -1.03037,0.429271 -0.90417,0.650142 -1.51794,1.615469 -2.03509,2.583436 -0.62149,1.168644 -1.02432,2.534807 -0.73301,3.858475 0.23408,1.142592 0.97531,2.097309 1.80797,2.879537 0.70683,0.658947 1.49493,1.326372 2.47093,1.513319 0.42102,0.09284 0.92822,-0.135467 1.01353,-0.585103 0.0447,-0.439089 -0.11833,-0.869241 -0.21962,-1.291394 -0.25217,-0.827042 -0.49194,-1.661586 -0.61495,-2.519225 -0.0167,-0.124761 -0.0472,-0.344871 -0.0627,-0.50588 -0.032,-0.303565 -0.0502,-0.60833 -0.065,-0.913154 -0.007,-0.170434 -0.0141,-0.426125 -0.0176,-0.629039 -0.0146,-1.28329 0.0198,-2.567922 0.13396,-3.846364 0.0331,-0.347531 -0.0455,-0.778725 -0.40769,-0.924216 -0.0745,-0.03015 -0.15925,-0.0552 -0.24041,-0.04966 z" />
    <path
       id="path41385"
       style="fill:#a8d6cd;fill-opacity:1;stroke:none;stroke-width:0.379018;stroke-linecap:round;stroke-miterlimit:4;stroke-dasharray:none;stroke-dashoffset:2.38337;paint-order:markers stroke fill"
       d="m 73.049099,77.636667 c -0.59307,0.0502 -1.1437,0.343411 -1.61127,0.698149 -0.76641,0.610507 -1.35748,1.565447 -1.2523,2.575673 0.0772,1.056151 0.5062,2.127716 1.33653,2.813661 0.29354,0.227005 0.68245,0.136097 0.99012,-0.0083 0.49314,-0.182396 0.65619,-0.751453 0.67179,-1.2285 0.0186,-0.536842 0.0131,-1.085268 0.18501,-1.601301 0.3946,0.553929 0.65735,1.256028 1.28438,1.598661 0.38696,0.235349 0.94146,0.113212 1.16414,-0.289899 0.29768,-0.532495 0.24125,-1.187966 0.0969,-1.758977 -0.26864,-0.964797 -0.85116,-1.877792 -1.70931,-2.416794 -0.35526,-0.198014 -0.73662,-0.400423 -1.156,-0.382405 z" />
    <path
       style="fill:#d9b100;fill-opacity:1;stroke:#000000;stroke-width:0.264583px;stroke-linecap:butt;stroke-linejoin:miter;stroke-opacity:1"
       d="m 84.438899,61.990413 c 0,0 -2.50706,7.303159 -7.63017,7.412162 -5.12311,0.109003 -8.72019,-5.777127 -8.72019,-5.777127 0,0 2.28905,-3.27007 4.5781,-2.725057 1.09002,2.180047 3.92408,4.905105 6.86715,0 2.94306,0.436009 4.90511,1.090022 4.90511,1.090022 z"
       id="path46135" />
    <path
       id="path41346"
       style="fill:#a8d6cd;fill-opacity:1;stroke:none;stroke-width:0.379018;stroke-linecap:round;stroke-miterlimit:4;stroke-dasharray:none;stroke-dashoffset:2.38337;paint-order:markers stroke fill"
       d="m 80.498769,76.594355 c -1.07886,0.0268 -2.17033,0.63205 -2.63289,1.631039 -0.43814,0.905333 -0.41387,1.942315 -0.36176,2.92217 0.0162,0.384593 0.25853,0.77547 0.65629,0.849561 0.46497,0.05468 1.0058,0.09242 1.39344,-0.220983 0.46558,-0.400796 0.54937,-1.04934 0.81914,-1.572527 0.0654,-0.243189 0.11686,-0.07655 0.14187,0.08059 0.11408,0.574371 0.11847,1.174211 0.30172,1.733071 0.22535,0.487276 0.83133,0.585735 1.31332,0.557911 0.71224,-0.03808 1.49873,-0.293729 1.87408,-0.946517 0.35525,-0.581266 0.18176,-1.301393 -0.0714,-1.88586 -0.4189,-0.922129 -0.88513,-1.876833 -1.69131,-2.524723 -0.48962,-0.396169 -1.10855,-0.637046 -1.74253,-0.623734 z" />
    <path
       id="path44453"
       style="fill:#d9b100;fill-opacity:1;stroke:none;stroke-width:0.18951;stroke-linecap:round;stroke-miterlimit:4;stroke-dasharray:none;stroke-dashoffset:2.38337;paint-order:markers stroke fill"
       d="m 82.030459,83.764976 c -0.55134,-0.0096 -1.07206,0.30141 -1.35366,0.770525 -0.44494,0.710281 -0.4521,1.581422 -0.49952,2.391886 -0.0322,1.341763 -0.0434,2.686481 0.0348,4.026873 0.0929,1.192557 0.32701,2.373937 0.66239,3.521247 0.1615,0.480261 0.30528,1.008494 0.6858,1.365753 0.3958,0.356952 0.9794,0.248452 1.42559,0.0555 1.13874,-0.445315 2.13506,-1.210167 2.90511,-2.155515 0.83058,-1.022429 1.48241,-2.186477 1.97215,-3.407302 0.33478,-0.83726 0.4537,-1.788236 0.16398,-2.656501 -0.36832,-1.16419 -1.11619,-2.233411 -2.18228,-2.855545 -1.02188,-0.610817 -2.20641,-0.884166 -3.3756,-1.03809 -0.1457,-0.01525 -0.29225,-0.02307 -0.43876,-0.01883 z m 2.33319,2.90835 c 0.18308,0.05059 0.22827,0.290129 0.29714,0.443383 0.1226,0.4371 0.19359,0.93702 -5.2e-4,1.362708 -0.30288,-0.03637 -0.65201,-0.245441 -0.65169,-0.58623 -0.0284,-0.37542 -0.0429,-0.802785 0.18557,-1.122785 0.042,-0.04985 0.10026,-0.09991 0.1695,-0.09708 z" />
    <path
       id="path42932"
       style="fill:#f9d349;fill-opacity:1;stroke:none;stroke-width:0.18951;stroke-linecap:round;stroke-miterlimit:4;stroke-dasharray:none;stroke-dashoffset:2.38337;paint-order:markers stroke fill"
       d="m 86.106699,62.247427 c -0.5561,-0.0052 -1.14433,0.155368 -1.51516,0.594796 -0.52928,0.627288 -0.84008,1.402316 -1.33356,2.056024 -0.69962,0.971754 -1.57415,1.800569 -2.44804,2.612769 -0.33549,0.302694 -0.74316,0.637236 -1.14457,0.904756 -0.69443,0.449238 -1.43108,0.848357 -2.21561,1.115396 -0.80206,0.270793 -1.63377,-0.03965 -2.39854,-0.286758 -1.48289,-0.50273 -2.98101,-1.082125 -4.19553,-2.099286 -1.2879,-1.065184 -2.33227,-2.380356 -3.44035,-3.622324 -1.66591,0.863196 -3.29239,1.800593 -4.93807,2.701084 -2.71765,1.521116 -5.4517,3.019324 -8.07654,4.697997 -1.48263,0.962689 -2.94014,2.029148 -4.01176,3.455578 -0.78293,0.956294 -1.31463,2.085175 -1.73572,3.2395 -0.87679,2.387179 -1.59245,4.828929 -2.38563,7.244386 -1.44916,4.474927 -2.90534,8.948947 -4.39153,13.411105 -0.10194,0.455695 0.28246,0.838017 0.66491,1.014196 0.74219,0.363837 1.57728,0.450977 2.35413,0.716374 2.34086,0.70905 4.59227,1.67163 6.88096,2.52631 0.37836,0.11894 0.75428,0.32862 1.16261,0.25717 0.18614,0.0365 0.17177,-0.21649 0.25508,-0.32854 0.11567,-0.37252 0.0735,-0.77662 0.0627,-1.16227 -0.12553,-1.27662 -0.49058,-2.521484 -0.96841,-3.708302 -0.35233,-0.836866 -0.77867,-1.669333 -0.88212,-2.583304 0.40763,0.462259 0.67652,1.030904 1.09812,1.480529 0.19928,0.186063 0.51217,0.238143 0.74368,0.08218 0.37587,-0.285451 0.34459,-0.811252 0.43314,-1.230717 0.14037,-0.952455 0.23523,-1.927723 0.36449,-2.859106 0.17653,-1.255858 0.36685,-2.517672 0.74486,-3.731422 0.028,-0.07935 0.0896,-0.268726 0.13877,-0.387741 0.13251,-0.292079 0.24544,-0.645332 0.53354,-0.816835 0.0901,0.06286 0.0496,0.247034 0.0716,0.355867 0.0147,0.768546 -0.0736,1.505834 -0.13051,2.261074 -0.2111,2.304886 -0.35611,4.61618 -0.3883,6.93085 -0.0626,3.632307 -0.10012,7.265427 -0.0769,10.898297 0.0224,4.0671 0.23708,8.13044 0.55333,12.1845 0.36694,4.68881 0.75537,9.37746 1.30652,14.04877 0.1535,1.164 0.27216,2.33796 0.54894,3.48089 0.0654,0.29566 0.23837,0.58307 0.54402,0.67326 0.86282,0.2861 1.78036,0.36709 2.68431,0.40278 1.75373,0.0406 3.51117,0.0346 5.26169,-0.0864 3.0903,-0.2683 6.1264,-0.95962 9.11707,-1.76135 5.44216,-1.48577 10.75009,-3.4244 15.97174,-5.55041 4.88122,-1.99305 9.665531,-4.21331 14.424991,-6.47868 0.54227,-0.27019 1.10223,-0.50933 1.62261,-0.82061 0.30139,-0.2915 0.21978,-0.73862 0.12705,-1.10213 -0.48,-1.82839 -1.07188,-3.62495 -1.5904,-5.44258 -1.37884,-4.73768 -2.60855,-9.52265 -3.55048,-14.37558 -0.20546,-1.06338 -0.40751,-2.18943 -0.58005,-3.257647 -0.54477,-3.365577 -0.92376,-6.762277 -1.0207,-10.171909 -0.006,-0.367033 -0.019,-0.796703 -0.0189,-1.18803 -0.006,-0.769898 5e-4,-1.57816 0.0298,-2.323383 0.009,-0.197673 0.0202,-0.394639 0.0336,-0.551905 0.0462,-0.495027 0.0965,-1.008118 0.3328,-1.454692 0.26573,0.894821 0.25685,1.839124 0.33176,2.762107 0.1155,1.836801 0.15467,3.68731 0.35967,5.523177 0.0898,0.600469 0.15845,1.255382 0.55059,1.744403 0.21332,0.232016 0.61141,0.239612 0.82659,0.0074 0.36691,-0.372782 0.47912,-0.907608 0.67615,-1.376143 0.19969,-0.530905 0.37169,-1.072972 0.56142,-1.58646 0.20086,-0.531289 0.40134,-1.071179 0.71838,-1.546164 -0.208,1.075571 -0.51835,2.119011 -0.80508,3.16543 -0.39415,1.453388 -0.84357,2.895047 -1.13643,4.373417 -0.0664,0.345064 -0.11156,0.799661 0.2311,1.01604 0.28054,0.194442 0.6299,0.02428 0.89593,-0.12287 1.41923,-0.774528 2.69145,-1.780334 4.09217,-2.585908 0.91566,-0.538565 1.80617,-1.062543 2.76201,-1.527604 1.24864,-0.627906 2.53506,-1.178893 3.7745,-1.824479 0.15292,-0.06527 0.25642,-0.168077 0.2689,-0.340154 0.0874,-0.3151 -0.13449,-0.612579 -0.26429,-0.886835 -0.40075,-0.723906 -0.87024,-1.424001 -1.25352,-2.138932 -0.41789,-0.740902 -0.81127,-1.496462 -1.21432,-2.258147 -1.77914,-3.413416 -3.46911,-6.918971 -5.21943,-10.365192 -1.06304,-2.06244 -2.11539,-4.136295 -3.35781,-6.098405 -0.54912,-0.862095 -1.16083,-1.707909 -1.98697,-2.326831 -1.591837,-1.242835 -3.401001,-2.177417 -5.249811,-2.974136 -2.25736,-0.935707 -4.6009,-1.661718 -6.98367,-2.20041 -1.0546,-0.228515 -2.12408,-0.419531 -3.20744,-0.39788 z m -5.18418,13.139766 c 1.44538,0.104238 2.71067,1.081043 3.40722,2.317692 0.35873,0.622578 0.60121,1.313741 0.66452,2.031815 0.15092,1.043035 0.10676,2.117024 0.39051,3.138365 0.17986,0.444852 0.53556,0.790282 0.83497,1.157113 0.76748,0.897536 1.73096,1.663539 2.21878,2.767394 0.58789,1.176814 0.68585,2.558664 0.37374,3.828166 -0.48234,2.035477 -1.66158,3.917476 -3.35845,5.156189 -1.55951,1.154573 -3.44823,1.799519 -5.3552,2.078988 -1.19493,0.132794 -2.3863,0.171175 -3.57975,0.183451 -0.97851,-2.35e-4 -2.01979,0.02525 -2.89823,-0.47543 -1.30266,-0.722868 -2.48286,-1.64171 -3.75236,-2.417966 -0.99013,-0.602107 -2.04592,-1.081601 -3.09631,-1.56637 -0.78256,-0.393658 -1.59969,-0.760143 -2.26417,-1.3422 -0.17651,-0.147198 -0.32021,-0.377105 -0.2177,-0.610221 0.21641,-0.615905 0.75697,-1.03995 1.25425,-1.428824 0.76579,-0.570302 1.64301,-0.978136 2.36694,-1.607431 0.86259,-0.709901 1.53201,-1.621833 2.1345,-2.554463 0.25603,-0.436821 0.59756,-0.919405 0.46756,-1.453213 -0.22787,-0.876464 -0.72286,-1.652333 -1.02206,-2.503707 -0.34031,-0.899446 -0.55951,-1.92033 -0.21555,-2.853208 0.31471,-0.907847 1.0259,-1.63879 1.84274,-2.120146 0.37582,-0.207 0.78367,-0.387721 1.22313,-0.361844 0.59858,0.0062 1.23497,-0.0757 1.78859,0.206367 0.58939,0.248568 1.15954,0.569962 1.78866,0.705802 0.40747,0.04523 0.74535,-0.263657 1.02955,-0.516625 0.66122,-0.65818 1.48142,-1.143379 2.33709,-1.504445 0.51772,-0.205594 1.08107,-0.296241 1.63703,-0.255249 z m 18.10122,37.102127 c 0.12965,0.62737 0.09,1.2756 0.1176,1.91274 0.0266,1.37586 0.0287,2.75272 -0.0334,4.12772 -0.0169,0.34874 -0.0442,0.80463 -0.0693,1.14928 -0.0288,0.35769 -0.056,0.65456 -0.0941,1.00758 -0.11145,0.87203 -0.21118,1.7648 -0.55314,2.58229 -0.12543,0.27793 -0.2696,0.54765 -0.43121,0.80625 0.10522,-1.74806 0.31326,-3.48825 0.45031,-5.23398 0.18963,-2.03091 0.28347,-4.07207 0.55506,-6.09473 0.0177,-0.068 0.0327,-0.25467 0.0581,-0.25715 z m -40.53603,7.27191 c 0.2933,0.27464 0.42239,0.68279 0.58712,1.0424 0.54902,1.38245 0.98075,2.8087 1.54311,4.18635 0.86541,2.23423 1.99432,4.35978 3.30044,6.36646 0.61467,0.97732 1.29669,1.91087 1.89602,2.89796 -0.90725,-0.53928 -1.66377,-1.30183 -2.26537,-2.16428 -1.28155,-1.80461 -2.30675,-3.77776 -3.22858,-5.78581 -0.59703,-1.32945 -1.15127,-2.68215 -1.57384,-4.07812 -0.0882,-0.30488 -0.1878,-0.67419 -0.263,-1.00873 -0.0821,-0.42346 -0.2041,-0.85553 -0.16695,-1.2888 0.0261,-0.0747 0.0811,-0.16762 0.17105,-0.16743 z m 5.94434,5.45703 c 0.5982,0.63755 1.04314,1.39941 1.50618,2.13622 0.51054,0.84895 0.99817,1.71328 1.42077,2.60974 -1.1325,-1.15379 -2.11755,-2.48598 -2.7216,-3.99411 -0.0959,-0.25313 -0.18384,-0.51084 -0.23274,-0.77769 l 0.0192,0.0182 z" />
    <path
       style="fill:#d9b100;fill-opacity:1;stroke:#000000;stroke-width:0.264583px;stroke-linecap:butt;stroke-linejoin:miter;stroke-opacity:1"
       d="m 40.946949,99.269228 -2.39806,5.232112 c 0,0 13.08029,2.72506 15.58735,7.84817 -0.10901,-4.6871 -0.10901,-7.95717 -0.10901,-7.95717 z"
       id="path44616" />
    <path
       id="path29252"
       style="fill:#f9cfbc;fill-opacity:1;stroke:none;stroke-width:0.379018;stroke-linecap:round;stroke-miterlimit:4;stroke-dasharray:none;stroke-dashoffset:2.38337;paint-order:markers stroke fill"
       d="m 78.301164,57.715856 c -1.884297,0.02675 -3.768596,0.05302 -5.652887,0.0801 0.159973,0.942461 0.218454,1.917308 0.600827,2.805922 0.358185,0.85735 0.843402,1.708068 1.598522,2.274903 0.760423,0.550452 1.838161,0.567796 2.632014,0.0768 0.54297,-0.330422 1.048417,-0.825349 1.148565,-1.480563 0.146658,-0.873752 0.12619,-1.764869 0.183467,-2.64695 0.01703,-0.372647 0.03393,-0.745302 0.0507,-1.11796 -0.187069,0.0026 -0.374137,0.0052 -0.561205,0.0078 z" />
    <path
       id="path29330"
       style="fill:#f9cfbc;fill-opacity:1;stroke:none;stroke-width:0.379018;stroke-linecap:round;stroke-miterlimit:4;stroke-dasharray:none;stroke-dashoffset:2.38337;paint-order:markers stroke fill"
       d="m 115.48597,99.136582 c -0.55812,0.161923 -1.04524,0.50156 -1.53089,0.81112 -1.70988,1.173428 -3.27202,2.547228 -4.78778,3.958188 -1.1041,1.05435 -2.21032,2.12154 -3.13191,3.34338 -0.5167,0.70599 -0.88164,1.61348 -0.66901,2.49592 0.2307,0.96783 0.79586,1.80836 1.30904,2.64571 0.92429,1.43335 1.88549,2.84269 2.80041,4.2823 2.74023,4.21971 5.28864,8.56332 8.13818,12.71167 1.42167,2.06172 2.96806,4.03402 4.39697,6.09084 1.4706,2.1626 3.1255,4.19161 4.77559,6.21797 2.18465,2.63924 4.40538,5.25304 6.7714,7.73262 0.69315,0.70002 1.37422,1.4175 2.13555,2.04456 0.15273,0.0984 0.33789,0.20586 0.51832,0.11575 0.3421,-0.0662 0.48077,-0.46509 0.42891,-0.77928 -0.0847,-0.62774 -0.3321,-1.21896 -0.47879,-1.83324 -0.11955,-0.46723 -0.26449,-0.94987 -0.31547,-1.42031 1.15547,0.1671 2.26694,0.54648 3.37283,0.90865 1.18134,0.40425 2.41224,0.87315 3.62158,1.29891 1.16705,0.4019 2.32465,0.84823 3.53001,1.12402 0.58596,0.11499 1.18623,0.028 1.77863,0.0417 0.26013,-0.004 0.52026,-0.007 0.78039,-0.0112 -0.6959,-0.55913 -1.36484,-1.153 -2.07882,-1.68887 -2.01398,-1.41763 -4.23749,-2.51223 -6.21912,-3.97796 -0.13499,-0.10372 -0.26687,-0.21193 -0.38991,-0.3297 0.59778,-6.4e-4 1.15744,0.2583 1.70894,0.46095 2.44748,0.99808 4.74285,2.33753 7.21727,3.27194 0.32504,0.13778 0.76057,0.18479 1.01644,-0.10841 0.27282,-0.29343 0.14155,-0.74483 -0.10449,-1.01224 -0.60885,-0.6922 -1.38097,-1.21476 -2.13268,-1.73839 -1.44192,-0.98395 -3.0478,-1.71299 -4.42331,-2.79678 -0.28154,-0.22675 -0.56754,-0.45897 -0.78206,-0.75288 0.92102,0.0347 1.81701,0.28398 2.71697,0.46364 0.97986,0.1949 1.97162,0.40044 2.9753,0.38217 0.35189,2.9e-4 0.78292,-0.13585 0.88069,-0.51348 0.11624,-0.39937 -0.2248,-0.73151 -0.53198,-0.92764 -0.87197,-0.54817 -1.84545,-0.92132 -2.83269,-1.20351 -0.9408,-0.23493 -1.90914,-0.33246 -2.86685,-0.47424 -1.07398,-0.15013 -2.15096,-0.27698 -3.22654,-0.41515 -0.28505,-0.0393 -0.61656,-0.0823 -0.90095,-0.12613 -0.86863,-0.13962 -1.7481,-0.24638 -2.59616,-0.48557 -0.50334,-0.25424 -0.85076,-0.72563 -1.20104,-1.15232 -1.11097,-1.46432 -2.0059,-3.0767 -2.90204,-4.67728 -2.28615,-4.17923 -4.36946,-8.46501 -6.45565,-12.74634 -2.33363,-4.84471 -4.66922,-9.68934 -6.89193,-14.58626 -0.94879,-2.06267 -1.80303,-4.16704 -2.73553,-6.236748 -0.0761,-0.147582 -0.12802,-0.325221 -0.31058,-0.365694 -0.10902,-0.07482 -0.25327,-0.06557 -0.37724,-0.04238 z" />
    <path
       id="path29291"
       style="fill:#f9cfbc;fill-opacity:1;stroke:none;stroke-width:0.379018;stroke-linecap:round;stroke-miterlimit:4;stroke-dasharray:none;stroke-dashoffset:2.38337;paint-order:markers stroke fill"
       d="m 42.169519,105.85814 c -0.148178,0.014 -0.286332,0.10943 -0.38748,0.20733 -0.383138,0.9766 -0.6863,1.98296 -1.032388,2.97322 -2.486578,7.39301 -4.880041,14.81765 -7.405672,22.19771 -0.690176,2.00295 -1.396008,4.02524 -2.167072,5.98365 -0.664718,1.71186 -1.459029,3.37032 -2.338859,4.9815 -0.285604,0.53489 -0.571206,1.06977 -0.85681,1.60466 -2.838585,0.83124 -5.742907,1.55431 -8.381401,2.9285 -1.077574,0.56284 -2.084726,1.25768 -2.982313,2.07832 -0.599248,0.55295 -1.219668,1.10306 -1.682518,1.77984 -0.171156,0.249 -0.211223,0.62165 0.02284,0.84273 0.207395,0.21963 0.563269,0.2209 0.802645,0.0478 1.095261,-0.68367 2.060384,-1.55529 3.165481,-2.22548 0.833507,-0.51322 1.685686,-1.02724 2.626202,-1.31814 0.217615,-0.0974 0.04398,0.16453 -0.02499,0.23729 -0.355063,0.40298 -0.802819,0.70768 -1.22661,1.0324 -0.113521,0.0801 -0.300641,0.21659 -0.442373,0.3183 -1.569747,1.13046 -3.088051,2.33907 -4.50909,3.65309 -0.291021,0.30598 -0.677589,0.58305 -0.774285,1.01693 -0.01609,0.22621 0.09591,0.44569 0.297173,0.55443 0.410175,0.20872 0.864541,-0.0312 1.247952,-0.19373 1.506937,-0.73355 2.907975,-1.66112 4.330824,-2.54178 1.152803,-0.71274 2.290155,-1.45961 3.508364,-2.05787 0.238833,-0.0956 0.483767,-0.24097 0.747885,-0.22486 -0.320821,0.57307 -0.856635,0.98288 -1.344104,1.40767 -1.380547,1.12496 -2.913296,2.0459 -4.288268,3.17832 -0.501999,0.42878 -1.051298,0.83504 -1.409059,1.39969 -0.197691,0.31428 -0.09763,0.78791 0.257761,0.93679 0.42658,0.17809 0.885328,-0.0374 1.293928,-0.17253 1.651297,-0.64672 3.227843,-1.46528 4.828427,-2.22502 1.154507,-0.54144 2.305109,-1.10056 3.504826,-1.53597 0.269664,-0.10126 0.453393,0.21284 0.523825,0.42695 0.327901,0.87255 0.0033,1.85913 0.401942,2.71293 0.182171,0.39413 0.662461,0.60354 1.072803,0.45423 0.621993,-0.2291 1.079717,-0.74914 1.474044,-1.26173 1.315008,-1.74539 2.505768,-3.58012 3.711096,-5.40178 2.979447,-4.55167 5.839616,-9.1799 8.651767,-13.83636 2.335101,-3.8669 4.694208,-7.72079 6.927564,-11.64807 0.979654,-1.75935 1.976443,-3.52258 2.690447,-5.41064 0.420076,-1.1025 0.62814,-2.27563 0.669695,-3.45255 0.038,-0.73409 0.07673,-1.46814 0.114218,-2.20225 -0.777293,-0.71449 -1.502413,-1.49365 -2.375643,-2.09534 -1.792608,-1.27494 -3.677394,-2.41598 -5.585696,-3.50838 -0.998664,-0.55284 -1.990587,-1.13312 -3.057181,-1.54689 -0.190632,-0.0645 -0.396885,-0.13155 -0.599892,-0.0949 z" />
    <path
       style="fill:#000000;stroke-width:0.479249"
       d="m 37.810171,254.52703 c -3.026726,-1.3191 -3.679949,-4.00287 -1.738811,-7.14373 1.208234,-1.95494 8.108633,-6.51484 12.422822,-8.20922 l 2.536597,-0.99621 0.216057,-9.58499 c 0.392046,-17.39266 0.713757,-24.83142 1.399059,-32.34936 0.372429,-4.0856 0.819884,-11.24871 0.994333,-15.91802 0.174432,-4.66928 0.400596,-9.30603 0.50252,-10.30386 0.197327,-1.93165 0.842996,-10.35386 1.660779,-21.66313 0.419488,-5.80108 0.376323,-7.6329 -0.269092,-11.42175 -0.422785,-2.48193 -1.038893,-7.13665 -1.369136,-10.34382 l -0.600458,-5.83124 -1.541883,2.8755 c -1.382757,2.57871 -4.907765,8.63611 -11.044612,18.97908 -1.157065,1.95011 -2.443766,3.93769 -2.85936,4.41682 -0.792786,0.91404 -2.234212,3.20828 -3.861355,6.14593 -1.560485,2.81728 -4.07769,5.06096 -5.472938,5.20377 -1.243691,-0.12069 -1.43582,-1.05962 -2.05261,-3.834 -0.113028,0 -1.921123,0.86264 -4.018126,1.91701 -4.281839,2.15286 -6.653224,2.47528 -7.049889,0.95848 -0.166462,-0.63623 0.272827,-1.09473 -0.659147,-0.95848 -2.315405,-0.2619 -1.929502,-2.47419 -0.504989,-3.86861 -1.566501,-0.27737 -0.599811,-2.3233 -0.225771,-2.96724 0.75866,-1.26715 2.137233,-2.52561 3.307045,-3.25512 0.846116,-0.52129 3.355684,-1.64272 5.576836,-2.49207 l 4.038468,-1.54426 2.061102,-4.35105 c 1.133608,-2.39308 2.829762,-6.81655 3.769231,-9.82991 0.93945,-3.01337 2.80261,-8.84478 4.140319,-12.95868 2.431992,-7.47913 2.432137,-7.47996 1.548766,-8.86612 -0.48591,-0.76247 -1.069504,-1.51879 -1.296882,-1.68072 -0.227377,-0.16194 0.03731,-1.17774 0.587997,-2.25735 0.732773,-1.52464 1.550742,-3.031897 2.079723,-4.521603 1.163802,-1.731784 3.119793,-6.950609 5.880888,-15.690983 2.156342,-6.826007 3.544407,-9.395643 6.125526,-11.339824 2.303967,-1.735395 11.594118,-7.07343 14.462443,-8.30999 1.059687,-0.456832 2.990844,-1.333018 4.291493,-1.947079 1.300649,-0.61406 2.436231,-0.912282 2.523538,-0.662718 0.617213,1.764379 1.523425,2.872582 2.458582,3.006606 1.423639,0.204031 2.477693,-0.703074 2.477693,-2.132282 0.0156,-1.038344 0.199592,-1.795336 0.756484,-1.094323 0,0.204671 1.543319,0.498623 2.718078,0.738009 4.523599,0.921793 13.41779,2.403058 18.157734,4.77553 3.276515,1.639975 5.235565,4.274736 9.556115,12.852125 2.63875,6.047108 6.57462,11.406972 9.82524,16.54559 1.31293,1.983958 1.19941,2.818985 -0.67507,4.965637 -0.68946,0.789595 -0.66592,1.034685 0.27639,2.875495 0.56657,1.10678 2.24489,4.81595 3.7296,8.24259 1.48471,3.42663 2.97209,6.55374 3.30528,6.94912 0.3332,0.39538 2.16908,4.06163 4.07973,8.14723 1.91065,4.08562 4.32336,8.5606 5.36156,9.94444 1.8142,2.41816 1.97637,2.51606 4.16767,2.51606 4.34169,0 11.47816,2.79774 11.47816,4.32725 0,0.38926 -0.68695,1.57243 -1.57,1.61479 l -1.2975,0.0623 1.83552,1.19129 c 2.99057,1.94093 3.77786,5.11781 1.36267,4.78566 -2.17967,-0.29976 -0.91276,-0.14986 -1.26667,1.07831 -0.28079,1.97711 -3.21565,1.72965 -10.64856,-1.35441 -1.86838,-0.77523 -1.56311,-0.81405 -1.29594,0.25042 0.23141,2.50925 -1.10871,3.57697 -2.78276,2.89029 -0.85885,-0.35575 -2.34791,-1.65611 -3.91495,-3.53959 -1.55521,-1.86925 -4.17778,-4.97911 -5.82792,-6.91081 -2.6849,-3.14302 -6.23463,-7.94578 -9.72903,-13.16332 -0.66996,-1.00031 -1.91016,-2.75446 -2.75604,-3.89812 -0.84586,-1.14366 -2.27859,-3.28678 -3.18382,-4.76248 -0.90524,-1.47572 -1.72641,-2.60258 -1.82483,-2.50417 -0.0984,0.0984 0.56213,2.62864 1.46787,5.62273 0.90574,2.99409 1.8005,6.62993 1.98838,8.07967 0.18785,1.44972 1.40025,9.21357 2.69423,17.25299 1.29397,8.0394 2.56303,17.36558 2.82011,20.72482 0.51985,6.79273 4.98319,35.46497 7.25562,46.60975 1.50727,7.39221 4.54758,20.36579 4.82231,20.57775 0.0849,0.0656 1.77009,0.50343 3.74474,0.97309 6.29715,1.49774 10.60707,3.64262 12.67694,5.55968 1.68059,1.55652 1.64869,3.77541 0.98256,5.03829 -1.33811,2.53682 -6.73611,2.93301 -19.55667,2.1019 -8.95355,-0.58045 -12.12769,-1.20931 -12.51127,-2.47878 -0.10325,-0.34139 -1.19206,-3.96346 -2.41979,-8.04906 -1.2277,-4.08562 -4.03363,-13.25126 -6.23535,-20.36811 -2.20172,-7.11687 -6.842274,-22.21323 -10.312344,-33.54749 -10.647404,-34.77752 -10.475562,-34.26634 -11.519599,-34.26634 -0.565228,0 -1.020598,0.41876 -1.172551,1.07831 -0.136575,0.59306 -4.137385,22.17325 -8.890551,47.95593 -4.753149,25.78271 -8.904246,47.29745 -9.224671,47.81053 -6.676842,2.83847 -23.494631,6.89377 -26.943899,5.52978 -2.7e-5,-1e-5 3.6e-5,-8e-5 3.6e-5,-8e-5 z M 23.813061,153.96201 c 2.05422,-1.04284 3.531339,-1.93903 4.215062,-1.57369 1.288604,0.79424 -0.02498,3.6295 1.305695,3.69124 1.131833,0 6.142155,-7.92392 15.18783,-22.85738 7.342582,-12.1218 8.864323,-15.20971 8.864323,-17.98734 0,-2.27517 -0.09238,-2.43926 -2.276435,-4.04177 -2.381148,-1.74716 -8.708838,-5.25735 -8.965233,-4.97333 -0.170265,0.18854 -4.223912,12.37959 -7.863251,23.6477 -1.362126,4.21739 -3.28189,9.16093 -4.266134,10.98562 l -1.789566,3.31762 -3.655768,1.04025 c -3.947556,1.12327 -6.5344,2.50999 -8.364937,4.48415 -1.846296,1.99113 -1.343741,2.19406 0.893532,0.36078 2.84063,-2.32769 5.946658,-3.43578 4.904631,-1.74977 -0.180409,0.29181 -1.1185,1.04766 -2.084795,1.67969 -0.966294,0.63203 -2.619556,1.90917 -3.673899,2.8381 -2.979451,2.62499 -0.930991,2.11196 3.637347,-0.91096 2.190903,-1.44972 4.263634,-2.63586 4.606104,-2.63586 1.394838,0 0.467995,1.40473 -2.014262,3.05286 -3.1852,2.11485 -4.551818,3.25438 -4.551818,3.79543 0,0.59191 1.677769,-0.0241 5.891574,-2.16334 z m 112.483129,-3.09336 c 0,-0.17896 -0.25703,-1.03622 -0.57117,-1.90497 -0.31414,-0.86873 -0.44516,-1.70555 -0.29114,-1.85957 0.28188,-0.28188 4.4571,0.99295 7.57179,2.31192 0.92257,0.39068 2.40527,0.86578 3.29489,1.05579 2.42638,0.51824 1.5439,-0.38663 -2.84722,-2.91942 -2.09132,-1.20628 -3.80241,-2.39003 -3.80241,-2.63054 0,-0.92978 2.10542,-0.35868 5.45502,1.4797 1.92107,1.05435 3.8853,1.91699 4.36494,1.91699 0.82489,0 0.82771,-0.0491 0.0522,-0.90599 -0.45095,-0.49828 -2.07331,-1.57403 -3.60525,-2.39055 -4.24159,-2.26075 -5.0745,-3.96619 -1.42597,-2.91982 0.83042,0.16514 4.36148,1.01431 4.50445,0.42298 0.14038,-0.58488 -1.40417,-1.03816 -2.02601,-1.36654 -0.62185,-0.32838 -3.28694,-0.79507 -6.01879,-1.04822 -2.31596,-0.21461 -4.50739,-0.55828 -4.86986,-0.76372 -1.46149,-0.82834 -4.55433,-6.20754 -9.72125,-16.90764 -6.91621,-14.32266 -7.92621,-16.49118 -9.89286,-21.24012 L 115.70951,99.368427 114.2,100.24044 c -0.83025,0.47961 -3.09944,2.34902 -5.04266,4.15427 -4.26895,3.96585 -4.39476,4.68381 -1.53147,8.73934 1.10092,1.55933 3.32111,4.99176 4.93376,7.62763 4.10087,6.70282 5.47768,8.7864 7.44206,11.26237 0.94106,1.18614 2.33123,3.1271 3.08924,4.31325 0.75801,1.18614 3.8364,5.01414 6.84082,8.50667 4.87855,5.67112 6.36445,7.0777 6.36445,6.02466 z m -62.134341,-14.248 c 6.98823,-1.76021 16.488261,-5.35249 26.430221,-9.99417 3.42663,-1.59981 6.28192,-2.9426 6.34508,-2.98399 0.0632,-0.0413 -0.52248,-2.11412 -1.30144,-4.60613 -1.85648,-5.93917 -3.64253,-13.41183 -4.62767,-19.361654 -1.059502,-6.399075 -1.387644,-14.207769 -0.65459,-15.577485 1.41825,-2.644835 1.33726,3.844832 1.38569,4.288624 0.1727,1.475657 0.11912,3.626145 0.29913,4.271199 0.30159,1.080662 0.42869,2.596875 1.57796,-1.254572 0.56882,-1.906247 1.32198,-2.877364 1.8307,-2.36865 0.13096,0.13096 -0.33307,2.111114 -1.03129,4.400228 -0.69822,2.289096 -1.16438,4.267113 -1.03592,4.395573 0.12842,0.128424 1.29748,-0.530776 2.59782,-1.464955 1.30033,-0.934198 3.79376,-2.367491 5.54094,-3.185111 l 3.17671,-1.486546 -1.23939,-1.963327 c -0.68167,-1.079829 -3.13097,-5.861633 -5.44291,-10.626266 -2.4386,-5.025628 -4.86435,-9.344179 -5.77737,-10.285449 -1.90544,-1.9644 -6.438748,-4.153131 -11.121056,-5.369375 -4.71924,-1.225841 -5.82278,-1.182119 -6.478339,0.256664 -0.90335,1.982627 -3.800276,4.852461 -5.815661,5.761276 -1.883012,0.849126 -1.967221,0.845214 -4.825313,-0.223637 -2.065015,-0.772265 -3.438407,-1.689427 -4.734274,-3.16162 l -1.825412,-2.073784 -5.227556,2.895955 c -11.207343,6.208609 -11.890018,6.884383 -14.038173,13.89627 -0.838577,2.737221 -2.389897,7.564707 -3.447392,10.727755 -1.057495,3.163048 -2.038896,6.101019 -2.180905,6.528839 -0.195606,0.589282 0.15976,0.856255 1.466042,1.101311 0.948344,0.177873 3.284698,0.959377 5.191928,1.736567 1.907229,0.77721 3.521602,1.41384 3.587498,1.41474 0.508841,0.007 -0.06593,-3.276017 -0.838685,-4.790839 -1.521016,-2.981461 -1.06983,-4.752026 0.536391,-2.104865 0.753988,1.24265 0.760201,1.232235 1.072729,-1.797173 0.440716,-4.272003 1.169327,-6.641468 2.042265,-6.641468 0.594988,0 0.682747,0.467688 0.472143,2.516075 -0.639873,6.223755 -0.770036,17.1599 -0.303761,25.52004 0.459826,8.24425 1.705899,21.13695 2.188584,22.64455 0.136394,0.42621 1.566372,0.59906 4.955638,0.59906 3.832138,0 6.032298,-0.3195 11.249638,-1.63366 z m -9.650082,-2.90604 c -2.643248,-2.22414 -7.506997,-13.16906 -6.361272,-14.31478 0.71709,-0.71707 1.206351,-0.0386 2.191954,3.03924 1.090407,3.40521 2.808968,6.85053 4.841379,9.70591 0.891631,1.25266 1.621129,2.38488 1.621129,2.51607 0,0.56137 -0.98381,0.15541 -2.29319,-0.94644 z m 1.960592,-4.23262 c -1.575356,-1.79422 -2.839779,-4.50953 -2.334995,-5.01431 0.404381,-0.4044 1.47624,0.96247 3.294297,4.201 1.540815,2.74464 1.079684,3.1356 -0.959302,0.81331 z m 31.168445,-6.14317 c 0.15976,-0.89024 0.436297,-3.937 0.614405,-6.77057 0.307221,-4.88765 0.67293,-6.09852 1.327077,-4.39385 0.491034,1.27962 0.250653,8.47654 -0.34957,10.46587 -0.741272,2.45681 -2.007288,3.01235 -1.591912,0.69855 z M 71.769597,96.796635 c -1.280814,-0.923981 -2.652251,-1.812623 -3.047647,-1.974756 -3.361933,-1.378645 -4.792491,-2.28109 -4.792491,-3.023267 0,-0.940139 1.037751,-1.979629 2.961862,-2.966844 0.706476,-0.362485 1.803875,-1.42603 2.438658,-2.363451 1.145979,-1.692297 1.147899,-1.716025 0.273059,-3.347262 -1.142772,-2.130821 -1.115965,-3.865828 0.08332,-5.390395 1.263082,-1.605751 3.351119,-2.050108 5.182726,-1.102941 1.29324,0.668763 1.484173,0.664724 2.071789,-0.04383 0.356001,-0.429269 1.348179,-1.073471 2.204833,-1.431572 3.247293,-1.35738 6.5897,1.468324 6.589664,5.570967 0,1.848325 0.231162,2.380659 1.528316,3.519592 2.114827,1.856875 2.811159,4.144177 2.068801,6.795577 -1.334576,4.766643 -5.626431,7.43813 -11.949611,7.43813 -2.992221,0 -3.491643,-0.149435 -5.613208,-1.679943 z m 2.97802,-1.516687 c -0.833487,-2.172029 -1.223431,-5.272785 -0.935791,-7.441155 0.313869,-2.366114 0.300809,-2.399316 -0.727234,-1.849122 -0.57577,0.308144 -1.499479,1.491853 -2.052662,2.630496 -1.212672,2.496042 -0.938236,4.113131 1.032463,6.08383 1.535814,1.535815 3.187609,1.890384 2.683224,0.575951 z m 9.604346,-0.592325 c 1.480695,-0.902898 3.539987,-4.376445 3.539987,-5.971147 0,-1.801502 -1.422353,-3.609543 -3.235701,-4.113131 -2.641491,-0.733591 -3.329546,-0.6254 -3.650986,0.574068 -0.83077,3.100031 0.105058,10.426076 1.331351,10.421874 0.287767,-9.96e-4 1.194668,-0.411228 2.015349,-0.911664 z m -0.599952,-6.51491 c -0.383677,-0.999841 0.183072,-2.276833 0.905252,-2.039693 0.94157,0.309159 1.06264,2.758576 0.136394,2.758576 -0.421172,0 -0.889892,-0.323505 -1.041609,-0.718883 z M 73.000148,82.242919 c -0.202345,-2.094612 0.664489,-2.811105 1.233176,-1.019312 0.167368,0.527172 0.611363,0.958487 0.986763,0.958487 1.213795,0 0.531428,-3.011855 -0.862161,-3.805475 -1.075916,-0.612721 -1.35325,-0.597995 -2.465629,0.130779 -1.332238,0.87292 -1.540977,1.897195 -0.789435,3.873889 0.51279,1.348758 2.030256,1.238013 1.897286,-0.138386 z M 83.94644,80.983985 c 0.07046,-0.52719 -0.303761,-1.659402 -0.831639,-2.516074 -1.763917,-2.862566 -5.287095,-1.593923 -5.287095,1.903824 0,1.769043 1.676701,1.874535 2.113795,0.132952 0.420701,-1.676212 1.240947,-1.49678 1.240947,0.271465 0,1.320429 0.133677,1.454196 1.317947,1.317929 0.891867,-0.102702 1.359355,-0.46151 1.446045,-1.110132 z M 52.023159,107.64485 c 0.102521,-1.56441 0.450456,-3.00165 0.0086,-3.17122 -1.160343,-0.44527 -1.398008,-0.26341 -1.713924,1.31151 -0.272461,1.35822 -0.342626,1.76314 1.026799,2.90114 0.410375,0.33165 0.664943,-0.19994 0.678505,-1.04143 z m -2.429549,-2.82803 c 0.219896,-1.07517 0.111216,-1.57041 -0.386304,-1.76136 -1.225551,-0.47028 -1.586315,-0.29123 -2.091714,1.03806 -0.405722,1.06713 -0.341872,1.41616 0.351906,1.92346 1.185756,0.86705 1.770891,0.53675 2.126112,-1.20016 z m -3.396385,-1.52408 c 0,-1.06463 -0.270686,-1.42543 -1.254677,-1.6724 -1.431989,-0.35941 -1.393552,-0.38095 -1.824433,1.02204 -0.255508,0.83193 -0.04384,1.19683 1.016921,1.75258 1.648897,0.86394 2.062189,0.64304 2.062189,-1.10222 z m 59.079305,-1.11091 c -0.81945,-1.80789 -1.83341,-2.496709 -1.39779,-0.94956 0.12988,0.46128 0.38245,1.56342 0.56126,2.44922 0.27634,1.3689 0.42429,1.51138 0.9861,0.94958 0.5618,-0.56181 0.53936,-0.92929 -0.14962,-2.44924 z m -62.913308,-0.11085 c 0,-1.33795 -1.160977,-1.65212 -1.626092,-0.44007 -0.486055,1.26665 -0.334663,1.6382 0.667604,1.6382 0.70289,0 0.958488,-0.31951 0.958488,-1.19813 z m 65.229888,0.43226 c 0.78755,-0.71273 0.79313,-0.87725 0.0804,-2.37184 -0.64031,-1.34271 -0.91132,-1.528119 -1.65332,-1.131019 -0.69473,0.371813 -0.78207,0.671934 -0.40212,1.381829 0.26694,0.49879 0.53852,1.23523 0.73583,1.74274 0.46246,1.18952 0.35081,1.05898 1.23918,0.37829 0.88837,-0.68069 3e-5,0 3e-5,0 z m 3.03463,-4.561133 c -0.61269,-1.184832 -0.86722,-1.321534 -1.66528,-0.894438 -1.10739,0.592651 -1.07611,0.422005 -0.42148,2.299909 0.50332,1.443762 0.55848,1.468392 1.66529,0.743192 1.08777,-0.712725 1.10872,-0.819648 0.42147,-2.148663 z m 2.92092,-0.239495 c 1.35526,-0.88799 1.41295,-1.122232 0.56273,-2.284966 -0.52465,-0.717507 -0.80887,-0.759204 -1.87234,-0.274653 -1.12783,0.513876 -1.20543,0.710044 -0.77232,1.952441 0.56311,1.615332 0.5494,1.611347 2.08193,0.607178 z m 3.57752,-2.061175 c 0,-0.858067 -1.40016,-2.168968 -1.83467,-1.71771 -0.70789,0.735222 0.20507,2.679421 1.0974,2.336988 0.40551,-0.155594 0.73727,-0.434286 0.73727,-0.619278 z M 75.462626,64.584042 c -0.590188,-0.08312 -1.349446,-0.545718 -1.687242,-1.027979 -0.593105,-0.846773 -0.653549,-0.844939 -1.763102,0.05353 -1.077112,0.872197 -1.483867,1.414373 -0.727199,2.171038 0.705008,0.70501 0.439231,0.490061 2.709112,-1.890305 0.799899,-0.838833 1.192175,-0.458644 0.730211,0.386016 -1.707615,3.122218 -1.850183,2.841324 -0.233909,3.445696 1.07559,0.402191 1.201895,0.308292 1.420197,-1.055926 0.203866,-1.273807 0.464722,-1.953496 -0.448068,-2.08207 z m 3.324908,2.980256 1.391469,-0.719562 -1.206586,-1.206598 c -1.474447,-1.474439 -2.103216,-1.176489 -2.103216,0.996631 0,1.883939 0.03749,1.902125 1.918333,0.929529 z m 3.277488,-2.691689 c 0.726528,-1.163362 0.381341,-1.658069 -1.477164,-2.117042 -1.685739,-0.416303 -2.294566,0.834541 -1.066624,2.191394 1.093124,1.20789 1.755096,1.188542 2.543788,-0.07436 z m -10.54673,-1.536613 c 0.575535,-0.612627 0.906357,-1.253931 0.735168,-1.425121 -0.518984,-0.518993 -2.983508,1.201969 -2.716771,1.897104 0.348121,0.907165 0.783349,0.803499 1.981603,-0.471983 z m 11.796825,-1.228518 c -0.250418,-0.233962 -0.994443,-0.555317 -1.653425,-0.714122 -1.003409,-0.241815 -0.964465,-0.176207 0.23964,0.403769 1.693818,0.815852 2.034965,0.890738 1.413785,0.310353 z"
       id="path22393"
       sodipodi:nodetypes="ssscssssssscsscsccccccccscsssssccscsscsccssccssssssssscsscsccssssssssssscsssscsssscscscsscssccsscssscscsssssssssssssssscczsssscssssssssssccsssccsssssccsssssssscsssscsccssssscsscsssscscssccssccssssscsscssssccssscssscssssccsccccsscscccsssscccsssccsscssscscscsssccsssssssssszsssssssssssscsscssssscscssscsssssssssssssss" />
    <path
       style="display:inline;fill:none;stroke:#000000;stroke-width:1.1551;stroke-linecap:butt;stroke-linejoin:miter;stroke-miterlimit:4;stroke-dasharray:none;stroke-opacity:1"
       d="m 72.475115,57.4822 0.411598,2.893344"
       id="path32011-7"
       inkscape:export-filename="C:\Users\megha\Desktop\Portfolio\images\cartoon-meghans\standing2.png"
       inkscape:export-xdpi="99.938736"
       inkscape:export-ydpi="99.938736" />
    <path
       style="display:inline;fill:none;stroke:#000000;stroke-width:1.1551;stroke-linecap:butt;stroke-linejoin:miter;stroke-miterlimit:4;stroke-dasharray:none;stroke-opacity:1"
       d="m 78.897627,56.814372 0.04169,3.712319"
       id="path32013-2"
       inkscape:export-filename="C:\Users\megha\Desktop\Portfolio\images\cartoon-meghans\standing2.png"
       inkscape:export-xdpi="99.938736"
       inkscape:export-ydpi="99.938736" />
    <path
       style="display:inline;fill:#a6743f;fill-opacity:1;stroke:none;stroke-width:0.459579px;stroke-linecap:butt;stroke-linejoin:miter;stroke-opacity:1"
       d="m 60.571546,52.909493 c 0,0 -7.66856,1.65169 -11.6798,-3.185402 -4.01124,-4.837075 -2.24158,-11.797762 -2.24158,-11.797762 0,0 -4.01123,-6.252828 -1.29776,-13.213515 2.7135,-6.960688 6.96069,-8.140471 9.55621,-9.20226 1.29774,-2.359549 23.12364,-21.7079002 37.28097,0.825836 2.92744,10.061019 14.275304,11.561826 14.865194,16.634871 0.5899,5.073045 -6.13484,6.606757 -6.13484,6.606757 0,0 4.95507,4.955051 0,8.612377 -0.82585,0.70786 -2.831474,7.432594 -7.196644,7.196641 -4.36519,-0.235971 -11.56183,-4.955068 -11.56183,-4.955068 z"
       id="path13702-1"
       inkscape:export-filename="C:\Users\megha\Desktop\Portfolio\images\cartoon-meghans\standing2.png"
       inkscape:export-xdpi="99.938736"
       inkscape:export-ydpi="99.938736"
       sodipodi:nodetypes="csccccsccscc" />
    <path
       id="path13533-3"
       style="display:inline;fill:#f9cfbc;fill-opacity:1;stroke:none;stroke-width:5.78589;stroke-linecap:round;stroke-miterlimit:4;stroke-dasharray:none;stroke-opacity:1;paint-order:markers stroke fill"
       d="m 61.419666,18.367213 c -0.0229,-0.259646 -2.7157,0.696656 -5.97557,7.194608 -4.49733,8.449134 -2.58233,19.625487 4.80354,26.030632 5.31898,4.878484 13.47543,6.63917 20.44736,4.322316 8.33138,-2.61982 14.18832,-10.518727 14.70837,-18.803871 0.71101,-6.657409 -4.80459,0.87402 -12.46093,-3.039426 -4.38368,-1.201009 -17.31839,-9.478442 -21.52277,-15.704259 z"
       sodipodi:nodetypes="ccccccc"
       inkscape:export-filename="C:\Users\megha\Desktop\Portfolio\images\cartoon-meghans\standing2.png"
       inkscape:export-xdpi="99.938736"
       inkscape:export-ydpi="99.938736" />
    <path
       style="display:inline;fill:#f9cfbc;fill-opacity:1;stroke:none;stroke-width:0.459579px;stroke-linecap:butt;stroke-linejoin:miter;stroke-opacity:1"
       d="m 93.428336,43.058362 4.3062,-3.126414 v -3.421355 l -1.71068,-1.592701 -2.47752,-0.05906 z"
       id="path13667-2"
       inkscape:export-filename="C:\Users\megha\Desktop\Portfolio\images\cartoon-meghans\standing2.png"
       inkscape:export-xdpi="99.938736"
       inkscape:export-ydpi="99.938736" />
    <path
       style="display:inline;fill:none;stroke:#000000;stroke-width:1.73699;stroke-linecap:round;stroke-linejoin:miter;stroke-miterlimit:4;stroke-dasharray:none;stroke-opacity:1"
       d="m 62.783656,20.505642 c 0,0 12.59685,15.766931 29.5317,13.681358"
       id="path32261-5"
       inkscape:export-filename="C:\Users\megha\Desktop\Portfolio\images\cartoon-meghans\standing2.png"
       inkscape:export-xdpi="99.938736"
       inkscape:export-ydpi="99.938736" />
    <ellipse
       style="display:inline;fill:#ffffff;fill-opacity:1;stroke:#000000;stroke-width:3.65116;stroke-linecap:round;stroke-miterlimit:4;stroke-dasharray:none;stroke-opacity:1;paint-order:markers stroke fill"
       id="path36146-8"
       cx="66.116394"
       cy="35.49004"
       rx="7.1527381"
       ry="10.475379"
       transform="rotate(-1.0398264)"
       inkscape:export-filename="C:\Users\megha\Desktop\Portfolio\images\cartoon-meghans\standing2.png"
       inkscape:export-xdpi="99.938736"
       inkscape:export-ydpi="99.938736" />
    <ellipse
       style="display:inline;fill:#ffffff;fill-opacity:1;stroke:#000000;stroke-width:3.65116;stroke-linecap:round;stroke-miterlimit:4;stroke-dasharray:none;stroke-dashoffset:0.6306;stroke-opacity:1;paint-order:markers stroke fill"
       id="path36146-3-9"
       cx="76.945412"
       cy="41.688065"
       rx="7.1527381"
       ry="10.475379"
       transform="rotate(-6.0940571)"
       inkscape:export-filename="C:\Users\megha\Desktop\Portfolio\images\cartoon-meghans\standing2.png"
       inkscape:export-xdpi="99.938736"
       inkscape:export-ydpi="99.938736" />
    <path
       style="display:inline;fill:none;stroke:#000000;stroke-width:1.5084;stroke-linecap:round;stroke-linejoin:miter;stroke-miterlimit:4;stroke-dasharray:none;stroke-opacity:1"
       d="m 73.027646,49.896088 c 0.42537,0.851509 1.24261,1.579014 2.0738,1.452057 0.77077,-0.117768 1.79467,-1.045722 2.15538,-1.819657"
       id="path1446-1-9-5"
       sodipodi:nodetypes="csc"
       inkscape:export-filename="C:\Users\megha\Desktop\Portfolio\images\cartoon-meghans\standing2.png"
       inkscape:export-xdpi="99.938736"
       inkscape:export-ydpi="99.938736" />
    <ellipse
       style="display:inline;fill:#f9cfbc;fill-opacity:1;stroke:#000000;stroke-width:2.9;stroke-linecap:round;stroke-miterlimit:4;stroke-dasharray:none;stroke-opacity:1;paint-order:markers stroke fill"
       id="path2451-6-0-5"
       cx="74.22007"
       cy="42.66806"
       rx="0.64661181"
       ry="0.67389554"
       inkscape:export-filename="C:\Users\megha\Desktop\Portfolio\images\cartoon-meghans\standing2.png"
       inkscape:export-xdpi="99.938736"
       inkscape:export-ydpi="99.938736" />
    <path
       style="display:inline;fill:#000000;stroke:#000000;stroke-width:0.291709px;stroke-linecap:butt;stroke-linejoin:miter;stroke-opacity:1"
       d="m 76.162936,31.396711 c -0.28473,-1.516239 -0.26915,-3.575513 0.59306,-4.904678 0.4105,-0.551547 0.97657,-1.072367 1.71961,-1.2082 0.64944,-0.184156 1.39359,-0.188846 2.0033,0.164146 0.9632,0.491708 1.68464,1.997524 1.42793,2.94125 -0.20691,1.021977 -0.78263,2.058459 -0.52533,3.12928 0.21923,1.275787 0.42634,2.198599 -0.021,3.445778 -0.2059,0.739316 -0.8904,1.824711 -2.19884,1.420964 -2.23473,-1.027066 -2.53911,-3.176595 -2.9987,-4.988609 z"
       id="path5874-0-6-4"
       sodipodi:nodetypes="ccccccccc"
       inkscape:export-filename="C:\Users\megha\Desktop\Portfolio\images\cartoon-meghans\standing2.png"
       inkscape:export-xdpi="99.938736"
       inkscape:export-ydpi="99.938736" />
    <path
       style="display:inline;fill:#000000;stroke:#000000;stroke-width:0.249707px;stroke-linecap:butt;stroke-linejoin:miter;stroke-opacity:1"
       d="m 69.904516,33.008623 c -0.46666,2.628002 -2.50143,4.400047 -3.54359,4.084314 -2.31995,-0.708676 -1.33222,-3.319793 -1.34745,-5.002019 -0.086,-0.96582 -0.75257,-2.423939 -0.68758,-3.414929 0.10579,-1.354837 0.7681,-2.749782 2.14272,-2.91325 4.23962,-0.110299 3.83952,4.391918 3.4359,7.245884 z"
       id="path8239-6-2"
       sodipodi:nodetypes="cccccc"
       inkscape:export-filename="C:\Users\megha\Desktop\Portfolio\images\cartoon-meghans\standing2.png"
       inkscape:export-xdpi="99.938736"
       inkscape:export-ydpi="99.938736" />
    <path
       style="display:inline;fill:none;stroke:#000000;stroke-width:1.38959;stroke-linecap:round;stroke-linejoin:miter;stroke-miterlimit:4;stroke-dasharray:none;stroke-opacity:1"
       d="m 79.570876,17.992839 c 1.47376,-0.246723 2.87145,-0.01946 3.83746,1.084491"
       id="path36366-03"
       sodipodi:nodetypes="cc"
       inkscape:export-filename="C:\Users\megha\Desktop\Portfolio\images\cartoon-meghans\standing2.png"
       inkscape:export-xdpi="99.938736"
       inkscape:export-ydpi="99.938736" />
    <path
       style="display:inline;fill:none;stroke:#000000;stroke-width:1.38959;stroke-linecap:round;stroke-linejoin:miter;stroke-miterlimit:4;stroke-dasharray:none;stroke-opacity:1"
       d="m 62.992216,19.379445 c 0.25027,-0.125063 0.48535,-0.286933 0.7508,-0.375416 0.83067,-0.276877 1.8504,-0.18961 2.66953,0.08338"
       id="path36370-1"
       inkscape:export-filename="C:\Users\megha\Desktop\Portfolio\images\cartoon-meghans\standing2.png"
       inkscape:export-xdpi="99.938736"
       inkscape:export-ydpi="99.938736" />
    <path
       d="m 55.208836,48.31705 c -1.20207,-2.324566 -2.6029,-8.80718 -2.63047,-12.173056 -0.0481,-5.8759 1.65666,-12.260914 3.27366,-12.260914 0.62259,0 0.58509,0.266455 -0.45283,3.217068 -1.81572,5.161718 -0.7796,16.654707 1.89262,20.993612 3.11442,5.056926 11.79544,8.777304 19.32738,8.283059 2.82927,-0.18565 4.10092,-0.534231 6.43412,-1.763673 3.97528,-2.094761 9.7837,-7.935801 10.54939,-10.608651 0.31009,-1.082408 1.14761,-2.784295 1.8612,-3.781988 1.34754,-1.883995 1.55948,-2.805645 0.88864,-3.864359 -0.32698,-0.516028 -0.58845,-0.496017 -1.52328,0.116551 -0.62072,0.406699 -1.26716,0.600861 -1.43657,0.43147 -0.7395,-0.739527 -0.2039,-2.023354 1.13242,-2.714382 1.35587,-0.701156 1.51097,-0.692523 2.64258,0.147122 1.69968,1.261128 2.2693,3.815619 1.30278,5.842431 -0.41451,0.869207 -1.27884,1.924518 -1.92075,2.345113 -0.64193,0.420595 -1.16712,1.058019 -1.16712,1.416519 0,3.015749 -6.6276,10.097957 -11.86062,12.67416 -2.71222,1.335228 -3.497,1.500659 -7.64489,1.611442 -3.74227,0.09988 -6.35908,-0.668533 -8.06926,-0.922411 -5.78476,-2.161045 -10.23341,-4.975495 -12.599,-8.98906 z m 36.69986,7.515535 c -0.76427,-0.583108 -0.79468,-0.744493 -0.21214,-1.126371 0.374,-0.245158 1.50078,-0.584412 2.50395,-0.753888 1.96105,-0.331314 4.39916,-2.35222 4.39916,-3.646366 0,-1.125728 1.12348,-0.558549 1.30152,0.657053 0.535674,3.657169 -5.08952,7.084412 -7.99249,4.869572 z m -40.21923,-2.502051 c -1.01759,-0.442466 -3.37406,-1.956496 -4.79025,-4.79841 -1.70795,-3.427399 -1.4347,-8.104184 0.4735,-8.104184 0.45261,0 0.67405,0.489466 0.67578,1.493639 0.007,3.499278 2.54702,8.478194 5.05529,9.905431 0.75376,0.428881 1.25377,1.0678 1.25537,1.383757 -1.01906,0.778817 -2.06539,0.253289 -2.66969,0.119854 z m 47.84805,-4.974836 c 0.15342,-0.327573 0.630704,-1.520304 1.378734,-2.395435 1.49163,-1.745104 1.73755,-3.268154 0.67069,-4.153585 -1.03083,-0.855504 -0.85863,-3.090614 0.31018,-4.02581 2.31267,-1.850438 3.09758,-2.860569 3.64654,-4.692801 0.39014,-1.302241 0.43326,-2.186875 0.13149,-2.698749 -0.24692,-0.418822 -2.18766,-1.608246 -4.3128,-2.643164 -4.565454,-2.223336 -6.289184,-4.001391 -9.151954,-9.440438 -5.00091,-9.5013692 -9.76065,-12.0950642 -20.14423,-10.9771012 -6.02897,0.649115 -9.33108,1.849273 -11.53612,4.1928402 -1.95405,2.076784 -2.52755,3.048472 -2.52755,1.548734 0,-1.731017 3.4657,-4.5899682 6.9289,-5.7158702 8.97308,-2.917158 16.61366,-2.527273 21.90616,1.11779 3.26319,2.2474602 5.1798,4.5539092 7.51657,9.0454442 2.58034,4.959793 4.42122,7.378996 7.729974,8.614865 5.91007,2.207493 7.57074,4.688618 4.97708,9.809292 -0.96658,1.908294 -1.33398,2.648143 -2.81506,3.396006 -1.88019,0.949389 -1.91105,1.000958 -1.0601,1.771073 1.80182,1.630619 1.55152,4.762106 -0.56088,7.017121 -0.86324,1.06005 -3.376534,0.840912 -3.087624,0.229788 z M 44.894966,35.222432 c -1.83779,-2.214407 -2.4054,-6.834443 -1.24082,-10.099399 1.13073,-3.170013 5.04522,-8.133645 6.41449,-8.133645 1.08663,0 0.89999,0.808068 -0.63402,2.744918 -2.69953,3.408434 -3.40991,5.717019 -3.43323,11.157368 -0.0122,2.717265 -0.15147,4.940477 -0.31079,4.940477 -0.15928,0 -0.51731,-0.274376 -0.79563,-0.609719 z m 18.65293,-12.889827 c -1.96555,-1.821618 -3.88636,-6.262363 -2.70875,-6.262363 0.21151,0 1.40067,1.499372 2.64259,3.331951 1.2419,1.832564 2.46481,3.483889 2.71758,3.669591 0.25276,0.185701 0.0245,0.340814 -0.50736,0.344687 -0.53182,0.0035 -1.49665,-0.483874 -2.14406,-1.083866 z"
       style="display:inline;fill:#000000;stroke:none;stroke-width:0.121597"
       id="path18113-0-6" />
  </g>
</svg>
