<?xml version="1.0" encoding="UTF-8" standalone="no"?>
<!-- Created with Inkscape (http://www.inkscape.org/) -->

<svg
   width="93"
   height="85"
   viewBox="0 0 24.60625 22.489583"
   version="1.1"
   id="svg932"
   inkscape:version="1.1 (c68e22c387, 2021-05-23)"
   sodipodi:docname="bee.svg"
   inkscape:export-filename="C:\Users\megha\Desktop\FALL 2023\FINAL\bee-name-2lines.png"
   inkscape:export-xdpi="516.12903"
   inkscape:export-ydpi="516.12903"
   xmlns:inkscape="http://www.inkscape.org/namespaces/inkscape"
   xmlns:sodipodi="http://sodipodi.sourceforge.net/DTD/sodipodi-0.dtd"
   xmlns:xlink="http://www.w3.org/1999/xlink"
   xmlns="http://www.w3.org/2000/svg"
   xmlns:svg="http://www.w3.org/2000/svg">
  <sodipodi:namedview
     id="namedview934"
     pagecolor="#ffffff"
     bordercolor="#666666"
     borderopacity="1.0"
     inkscape:pageshadow="2"
     inkscape:pageopacity="0.0"
     inkscape:pagecheckerboard="0"
     inkscape:document-units="mm"
     showgrid="false"
     inkscape:zoom="1.8101934"
     inkscape:cx="42.536892"
     inkscape:cy="106.61844"
     inkscape:window-width="1083"
     inkscape:window-height="1020"
     inkscape:window-x="829"
     inkscape:window-y="35"
     inkscape:window-maximized="0"
     inkscape:current-layer="layer5"
     inkscape:snap-nodes="false"
     inkscape:snap-others="false"
     inkscape:snap-global="false"
     height="200mm"
     units="px"
     width="100px" />
  <defs
     id="defs929">
    <linearGradient
       inkscape:collect="always"
       id="linearGradient7408">
      <stop
         style="stop-color:#f9d349;stop-opacity:1"
         offset="0"
         id="stop7404" />
      <stop
         style="stop-color:#dbb200;stop-opacity:1"
         offset="1"
         id="stop7406" />
    </linearGradient>
    <linearGradient
       inkscape:collect="always"
       xlink:href="#linearGradient7408"
       id="linearGradient1195"
       gradientUnits="userSpaceOnUse"
       gradientTransform="translate(46.66756,-45.582471)"
       x1="-15.145497"
       y1="-15.415265"
       x2="-15.068421"
       y2="-22.236519" />
    <mask
       maskUnits="userSpaceOnUse"
       id="mask284">
      <circle
         style="fill:#ffffff;stroke-width:0.199602"
         id="circle286"
         cx="112.07553"
         cy="146.11717"
         r="146.39159" />
    </mask>
    <linearGradient
       inkscape:collect="always"
       xlink:href="#linearGradient7408"
       id="linearGradient7562"
       gradientUnits="userSpaceOnUse"
       x1="-15.145497"
       y1="-15.415265"
       x2="-15.068421"
       y2="-22.236519"
       gradientTransform="translate(41.649275,17.867581)" />
    <linearGradient
       inkscape:collect="always"
       xlink:href="#linearGradient7408"
       id="linearGradient1297"
       gradientUnits="userSpaceOnUse"
       gradientTransform="matrix(0.61508321,0,0,0.61508321,-4.3638528,-0.37882186)"
       x1="-15.145497"
       y1="-15.415265"
       x2="-15.068421"
       y2="-22.236519" />
    <linearGradient
       inkscape:collect="always"
       xlink:href="#linearGradient7408"
       id="linearGradient1297-5"
       gradientUnits="userSpaceOnUse"
       gradientTransform="matrix(0.45405356,0,0,0.45405356,-5.4482501,-3.2325901)"
       x1="-15.145497"
       y1="-15.415265"
       x2="-15.068421"
       y2="-22.236519" />
    <filter
       inkscape:label="Bubbly Bumps"
       inkscape:menu="Bumps"
       inkscape:menu-tooltip="Flexible bubbles effect with some displacement"
       style="color-interpolation-filters:sRGB;"
       id="filter21641"
       x="-0.44334333"
       y="-0.3435056"
       width="1.8866867"
       height="1.6870112">
      <feGaussianBlur
         result="result0"
         stdDeviation="2.0565789473684206"
         id="feGaussianBlur21615" />
      <feTurbulence
         baseFrequency="0.2"
         seed="300"
         numOctaves="10"
         result="result1"
         type="fractalNoise"
         id="feTurbulence21617" />
      <feGaussianBlur
         stdDeviation="0.5"
         result="result8"
         id="feGaussianBlur21619" />
      <feDisplacementMap
         result="result7"
         in2="result8"
         scale="0"
         in="result0"
         xChannelSelector="R"
         id="feDisplacementMap21621" />
      <feComposite
         result="result2"
         operator="in"
         in2="result1"
         in="result7"
         id="feComposite21623" />
      <feComposite
         k3="3"
         in2="result2"
         in="result0"
         operator="arithmetic"
         id="feComposite21625" />
      <feBlend
         result="fbSourceGraphic"
         mode="multiply"
         in2="result2"
         id="feBlend21627" />
      <feColorMatrix
         values="1 0 0 -1 0 1 0 1 -1 0 1 0 0 -1 0 -1.8 -0.5 0 5.7 -3.5 "
         in="fbSourceGraphic"
         result="fbSourceGraphicAlpha"
         id="feColorMatrix21629" />
      <feGaussianBlur
         stdDeviation="0.5"
         in="fbSourceGraphicAlpha"
         result="result0"
         id="feGaussianBlur21631" />
      <feSpecularLighting
         result="result6"
         surfaceScale="5"
         specularExponent="3"
         id="feSpecularLighting21635">
        <feDistantLight
           azimuth="225"
           elevation="10"
           id="feDistantLight21633" />
      </feSpecularLighting>
      <feComposite
         in2="fbSourceGraphicAlpha"
         in="result6"
         result="result2"
         operator="in"
         id="feComposite21637" />
      <feComposite
         in="fbSourceGraphic"
         result="result4"
         operator="arithmetic"
         k2="1"
         k3="0.7"
         in2="result2"
         id="feComposite21639" />
    </filter>
    <filter
       inkscape:label="Bubbly Bumps"
       inkscape:menu="Bumps"
       inkscape:menu-tooltip="Flexible bubbles effect with some displacement"
       style="color-interpolation-filters:sRGB"
       id="filter21641-9"
       x="-0.18890281"
       y="-0.14636326"
       width="1.3778056"
       height="1.2927265">
      <feGaussianBlur
         result="result0"
         stdDeviation="0.30236842105263156"
         id="feGaussianBlur21615-8" />
      <feTurbulence
         baseFrequency="0.7857142857142857"
         seed="300"
         numOctaves="1"
         result="result1"
         type="turbulence"
         id="feTurbulence21617-3" />
      <feGaussianBlur
         stdDeviation="0.5"
         result="result8"
         id="feGaussianBlur21619-8" />
      <feDisplacementMap
         result="result7"
         in2="result8"
         scale="0"
         in="result0"
         xChannelSelector="R"
         id="feDisplacementMap21621-4"
         yChannelSelector="A" />
      <feComposite
         result="result2"
         operator="in"
         in2="result1"
         in="result7"
         id="feComposite21623-2" />
      <feComposite
         k3="3"
         in2="result2"
         in="result0"
         operator="arithmetic"
         id="feComposite21625-8"
         k1="0"
         k2="0"
         k4="0" />
      <feBlend
         result="fbSourceGraphic"
         mode="multiply"
         in2="result2"
         id="feBlend21627-8" />
      <feColorMatrix
         values="1 0 0 -1 0 1 0 1 -1 0 1 0 0 -1 0 -1.8 -0.5 0 5.7 -3.5 "
         in="fbSourceGraphic"
         result="fbSourceGraphicAlpha"
         id="feColorMatrix21629-2" />
      <feGaussianBlur
         stdDeviation="0.5"
         in="fbSourceGraphicAlpha"
         result="result0"
         id="feGaussianBlur21631-9" />
      <feSpecularLighting
         result="result6"
         surfaceScale="5"
         specularExponent="3"
         id="feSpecularLighting21635-1">
        <feDistantLight
           azimuth="225"
           elevation="10"
           id="feDistantLight21633-2" />
      </feSpecularLighting>
      <feComposite
         in2="fbSourceGraphicAlpha"
         in="result6"
         result="result2"
         operator="in"
         id="feComposite21637-5" />
      <feComposite
         in="fbSourceGraphic"
         result="result4"
         operator="arithmetic"
         k2="1"
         k3="0.7"
         in2="result2"
         id="feComposite21639-0"
         k1="0"
         k4="0" />
    </filter>
    <filter
       inkscape:label="Ink Paint"
       inkscape:menu="Textures"
       inkscape:menu-tooltip="Ink paint on paper with some turbulent color shift"
       height="3.2476475"
       y="-1.1238238"
       width="3.9009121"
       x="-1.450456"
       style="color-interpolation-filters:sRGB;"
       id="filter22933">
      <feTurbulence
         type="fractalNoise"
         baseFrequency="0.029000000000000019"
         numOctaves="8"
         result="result0"
         id="feTurbulence22921" />
      <feDisplacementMap
         in2="result0"
         in="SourceGraphic"
         xChannelSelector="R"
         yChannelSelector="G"
         scale="10.487804878048781"
         result="result2"
         id="feDisplacementMap22923" />
      <feBlend
         result="result5"
         in="result2"
         mode="normal"
         in2="result2"
         id="feBlend22925" />
      <feGaussianBlur
         stdDeviation="10"
         in="result2"
         result="result4"
         id="feGaussianBlur22927" />
      <feComposite
         operator="arithmetic"
         in2="result4"
         in="result0"
         k3="0.5"
         k1="2"
         result="result6"
         id="feComposite22929" />
      <feComposite
         operator="in"
         in2="result5"
         in="result6"
         result="result7"
         id="feComposite22931" />
    </filter>
    <filter
       inkscape:label="Bubbly Bumps"
       inkscape:menu="Bumps"
       inkscape:menu-tooltip="Flexible bubbles effect with some displacement"
       style="color-interpolation-filters:sRGB"
       id="filter21641-4"
       x="-0.44334333"
       y="-0.3435056"
       width="1.8866867"
       height="1.6870112">
      <feGaussianBlur
         result="result0"
         stdDeviation="2.0565789473684206"
         id="feGaussianBlur21615-5" />
      <feTurbulence
         baseFrequency="0.2"
         seed="300"
         numOctaves="10"
         result="result1"
         type="fractalNoise"
         id="feTurbulence21617-6" />
      <feGaussianBlur
         stdDeviation="0.5"
         result="result8"
         id="feGaussianBlur21619-4" />
      <feDisplacementMap
         result="result7"
         in2="result8"
         scale="0"
         in="result0"
         xChannelSelector="R"
         id="feDisplacementMap21621-6"
         yChannelSelector="A" />
      <feComposite
         result="result2"
         operator="in"
         in2="result1"
         in="result7"
         id="feComposite21623-8" />
      <feComposite
         k3="3"
         in2="result2"
         in="result0"
         operator="arithmetic"
         id="feComposite21625-0"
         k1="0"
         k2="0"
         k4="0" />
      <feBlend
         result="fbSourceGraphic"
         mode="multiply"
         in2="result2"
         id="feBlend21627-5" />
      <feColorMatrix
         values="1 0 0 -1 0 1 0 1 -1 0 1 0 0 -1 0 -1.8 -0.5 0 5.7 -3.5 "
         in="fbSourceGraphic"
         result="fbSourceGraphicAlpha"
         id="feColorMatrix21629-8" />
      <feGaussianBlur
         stdDeviation="0.5"
         in="fbSourceGraphicAlpha"
         result="result0"
         id="feGaussianBlur21631-2" />
      <feSpecularLighting
         result="result6"
         surfaceScale="5"
         specularExponent="3"
         id="feSpecularLighting21635-7">
        <feDistantLight
           azimuth="225"
           elevation="10"
           id="feDistantLight21633-1" />
      </feSpecularLighting>
      <feComposite
         in2="fbSourceGraphicAlpha"
         in="result6"
         result="result2"
         operator="in"
         id="feComposite21637-50" />
      <feComposite
         in="fbSourceGraphic"
         result="result4"
         operator="arithmetic"
         k2="1"
         k3="0.7"
         in2="result2"
         id="feComposite21639-3"
         k1="0"
         k4="0" />
    </filter>
    <filter
       inkscape:label="Bubbly Bumps"
       inkscape:menu="Bumps"
       inkscape:menu-tooltip="Flexible bubbles effect with some displacement"
       style="color-interpolation-filters:sRGB"
       id="filter21641-4-2"
       x="-0.44334333"
       y="-0.3435056"
       width="1.8866867"
       height="1.6870112">
      <feGaussianBlur
         result="result0"
         stdDeviation="2.0565789473684206"
         id="feGaussianBlur21615-5-3" />
      <feTurbulence
         baseFrequency="0.2"
         seed="300"
         numOctaves="10"
         result="result1"
         type="fractalNoise"
         id="feTurbulence21617-6-7" />
      <feGaussianBlur
         stdDeviation="0.5"
         result="result8"
         id="feGaussianBlur21619-4-8" />
      <feDisplacementMap
         result="result7"
         in2="result8"
         scale="0"
         in="result0"
         xChannelSelector="R"
         id="feDisplacementMap21621-6-0"
         yChannelSelector="A" />
      <feComposite
         result="result2"
         operator="in"
         in2="result1"
         in="result7"
         id="feComposite21623-8-1" />
      <feComposite
         k3="3"
         in2="result2"
         in="result0"
         operator="arithmetic"
         id="feComposite21625-0-0"
         k1="0"
         k2="0"
         k4="0" />
      <feBlend
         result="fbSourceGraphic"
         mode="multiply"
         in2="result2"
         id="feBlend21627-5-2" />
      <feColorMatrix
         values="1 0 0 -1 0 1 0 1 -1 0 1 0 0 -1 0 -1.8 -0.5 0 5.7 -3.5 "
         in="fbSourceGraphic"
         result="fbSourceGraphicAlpha"
         id="feColorMatrix21629-8-9" />
      <feGaussianBlur
         stdDeviation="0.5"
         in="fbSourceGraphicAlpha"
         result="result0"
         id="feGaussianBlur21631-2-7" />
      <feSpecularLighting
         result="result6"
         surfaceScale="5"
         specularExponent="3"
         id="feSpecularLighting21635-7-0">
        <feDistantLight
           azimuth="225"
           elevation="10"
           id="feDistantLight21633-1-5" />
      </feSpecularLighting>
      <feComposite
         in2="fbSourceGraphicAlpha"
         in="result6"
         result="result2"
         operator="in"
         id="feComposite21637-50-9" />
      <feComposite
         in="fbSourceGraphic"
         result="result4"
         operator="arithmetic"
         k2="1"
         k3="0.7"
         in2="result2"
         id="feComposite21639-3-0"
         k1="0"
         k4="0" />
    </filter>
    <filter
       inkscape:label="Bubbly Bumps"
       inkscape:menu="Bumps"
       inkscape:menu-tooltip="Flexible bubbles effect with some displacement"
       style="color-interpolation-filters:sRGB"
       id="filter21641-9-1"
       x="-0.18890281"
       y="-0.14636326"
       width="1.3778056"
       height="1.2927265">
      <feGaussianBlur
         result="result0"
         stdDeviation="0.30236842105263156"
         id="feGaussianBlur21615-8-3" />
      <feTurbulence
         baseFrequency="0.7857142857142857"
         seed="300"
         numOctaves="1"
         result="result1"
         type="turbulence"
         id="feTurbulence21617-3-4" />
      <feGaussianBlur
         stdDeviation="0.5"
         result="result8"
         id="feGaussianBlur21619-8-8" />
      <feDisplacementMap
         result="result7"
         in2="result8"
         scale="0"
         in="result0"
         xChannelSelector="R"
         id="feDisplacementMap21621-4-7"
         yChannelSelector="A" />
      <feComposite
         result="result2"
         operator="in"
         in2="result1"
         in="result7"
         id="feComposite21623-2-9" />
      <feComposite
         k3="3"
         in2="result2"
         in="result0"
         operator="arithmetic"
         id="feComposite21625-8-7"
         k1="0"
         k2="0"
         k4="0" />
      <feBlend
         result="fbSourceGraphic"
         mode="multiply"
         in2="result2"
         id="feBlend21627-8-6" />
      <feColorMatrix
         values="1 0 0 -1 0 1 0 1 -1 0 1 0 0 -1 0 -1.8 -0.5 0 5.7 -3.5 "
         in="fbSourceGraphic"
         result="fbSourceGraphicAlpha"
         id="feColorMatrix21629-2-1" />
      <feGaussianBlur
         stdDeviation="0.5"
         in="fbSourceGraphicAlpha"
         result="result0"
         id="feGaussianBlur21631-9-2" />
      <feSpecularLighting
         result="result6"
         surfaceScale="5"
         specularExponent="3"
         id="feSpecularLighting21635-1-0">
        <feDistantLight
           azimuth="225"
           elevation="10"
           id="feDistantLight21633-2-1" />
      </feSpecularLighting>
      <feComposite
         in2="fbSourceGraphicAlpha"
         in="result6"
         result="result2"
         operator="in"
         id="feComposite21637-5-0" />
      <feComposite
         in="fbSourceGraphic"
         result="result4"
         operator="arithmetic"
         k2="1"
         k3="0.7"
         in2="result2"
         id="feComposite21639-0-8"
         k1="0"
         k4="0" />
    </filter>
    <filter
       inkscape:label="Ink Paint"
       inkscape:menu="Textures"
       inkscape:menu-tooltip="Ink paint on paper with some turbulent color shift"
       height="3.2476475"
       y="-1.1238238"
       width="3.9009121"
       x="-1.450456"
       style="color-interpolation-filters:sRGB"
       id="filter22933-3">
      <feTurbulence
         type="fractalNoise"
         baseFrequency="0.029000000000000019"
         numOctaves="8"
         result="result0"
         id="feTurbulence22921-3" />
      <feDisplacementMap
         in2="result0"
         in="SourceGraphic"
         xChannelSelector="R"
         yChannelSelector="G"
         scale="10.487805"
         result="result2"
         id="feDisplacementMap22923-3" />
      <feBlend
         result="result5"
         in="result2"
         mode="normal"
         in2="result2"
         id="feBlend22925-5" />
      <feGaussianBlur
         stdDeviation="10"
         in="result2"
         result="result4"
         id="feGaussianBlur22927-5" />
      <feComposite
         operator="arithmetic"
         in2="result4"
         in="result0"
         k3="0.5"
         k1="2"
         result="result6"
         id="feComposite22929-8"
         k2="0"
         k4="0" />
      <feComposite
         operator="in"
         in2="result5"
         in="result6"
         result="result7"
         id="feComposite22931-6" />
    </filter>
  </defs>
  <g
     inkscape:groupmode="layer"
     id="layer10"
     inkscape:label="various bees"
     style="display:none">
    <circle
       style="fill:#9ec04d;fill-opacity:1;stroke:none;stroke-width:0.630974;stroke-linecap:round;stroke-dashoffset:2.38337;paint-order:markers stroke fill"
       id="path1325"
       cx="12.245993"
       cy="11.504215"
       r="9.613122" />
    <ellipse
       style="display:inline;fill:#a8d6cd;fill-opacity:1;stroke-width:0.294256;stroke-linecap:round;stroke-dashoffset:2.38337;paint-order:markers stroke fill"
       id="path10558-9-4"
       cx="11.155336"
       cy="7.6186242"
       rx="2.0806293"
       ry="1.9375883" />
    <g
       id="g21945"
       transform="matrix(0.52712939,0,0,0.52712939,29.675287,-19.214979)">
      <ellipse
         style="display:inline;fill:#a8d6cd;fill-opacity:1;stroke-width:0.558223;stroke-linecap:round;stroke-dashoffset:2.38337;paint-order:markers stroke fill"
         id="path10558-0"
         cx="-28.427809"
         cy="51.016827"
         rx="3.211328"
         ry="3.6757355" />
      <ellipse
         style="display:inline;fill:url(#linearGradient1195);fill-opacity:1;stroke-width:0.558223;stroke-linecap:round;stroke-dashoffset:2.38337;paint-order:markers stroke fill"
         id="path8539-4"
         cx="32.0784"
         cy="-59.927776"
         rx="9.362483"
         ry="7.5458832"
         transform="scale(-1)" />
    </g>
    <path
       style="display:inline;fill:#000000;fill-opacity:1;stroke-width:0.0208767"
       d="m 17.577133,14.493307 c -0.347926,0.443926 -0.85318,0.972576 -1.15644,1.209995 -0.183822,0.143911 -0.453994,0.282298 -1.068671,0.547392 -1.021481,0.440537 -1.961095,0.462793 -2.737445,0.474826 -0.82674,0.01281 -1.673965,0.01073 -2.554567,-0.438101 C 9.5172329,16.01077 9.2099182,15.807917 8.7727649,15.437711 8.2446169,14.990448 7.7908379,14.411768 7.6452648,13.999871 L 7.5716438,13.808211 7.1107586,13.601395 C 6.6478952,13.393692 5.4936163,12.489788 5.5184915,12.273111 5.5437358,12.053217 5.7958333,11.861764 6.6264484,11.378574 7.0611752,11.125681 7.2602799,11.044259 7.493014,10.913423 7.7294044,10.309777 8.3797596,9.6304754 8.9112929,9.2357699 L 9.0839835,9.1093885 C 8.7803449,8.330775 8.9371159,6.8247157 9.4005816,6.156428 9.7648089,5.6724078 10.342393,5.294632 10.934833,5.2508097 c 0.357288,-0.02643 0.992749,0.1371469 1.278681,0.285227 0.310549,0.1608335 0.629228,0.4962881 0.727915,0.7662422 l 0.02046,0.055974 0.08237,-0.092273 c 0.401312,-0.4495518 0.708285,-0.6644198 1.099064,-0.7693032 0.375471,-0.1007745 0.753674,-0.1249392 1.261083,0.037979 0.336508,0.1080463 0.729492,0.365909 0.964766,0.6656806 0.378527,0.4822986 0.476136,0.9998569 0.357539,1.7605594 -0.05436,0.3486756 -0.08685,0.5346152 -0.23878,0.8583097 L 16.338964,9.136613 c 0.184818,0.1635887 0.152343,0.1614079 0.306242,0.2945999 0.793083,0.6862841 1.022998,0.9237951 1.201581,1.2412801 0.397906,0.707401 0.494282,1.65687 0.279731,2.755816 -0.04683,0.239879 -0.04745,0.241378 -0.233798,0.570617 -0.113044,0.19972 -0.237697,0.394989 -0.315591,0.494377 z M 17.066434,13.68074 c 0.203518,-0.521071 0.283338,-1.089068 0.230822,-1.642498 -0.0239,-0.251878 -0.06961,-0.418354 -0.18485,-0.673242 C 16.820097,10.718467 16.377454,10.174834 15.718559,9.6531352 15.471983,9.4579034 15.383109,9.3985829 15.185896,9.2975992 14.919521,9.1611512 14.770122,9.1167064 14.440571,9.0756467 14.109206,9.0343588 14.165259,8.984939 13.926302,9.529062 c -0.455506,1.037216 -0.644176,1.901711 -0.610161,2.795763 0.02601,0.683627 0.208112,1.766038 0.39641,2.356243 0.19948,0.625258 0.294721,0.7739 0.5785,0.902855 0.136069,0.06183 0.163119,0.06674 0.304292,0.05519 0.469276,-0.03841 1.094422,-0.298351 1.514623,-0.629796 0.14153,-0.111637 0.336705,-0.306877 0.460218,-0.460373 0.12967,-0.16115 0.415211,-0.660704 0.496252,-0.868198 z m -1.25909,-1.659449 c -0.109937,0.114652 -0.287666,0.184939 -0.42289,0.167239 -0.196151,-0.02567 -0.381693,-0.203242 -0.449299,-0.429987 -0.146581,-0.491628 0.168165,-1.024509 0.588114,-0.995714 0.495024,0.03395 0.678567,0.847046 0.284074,1.258462 z M 16.009626,8.1585081 C 16.082985,7.8841588 16.132288,7.5646225 16.107507,7.2678719 16.09133,7.0741297 15.949308,6.7968195 15.849509,6.6424466 15.674988,6.3724925 15.132741,6.0820468 14.890998,6.0457419 c -0.516554,-0.077576 -1.159487,0.269701 -1.528288,0.8254972 -0.06742,0.1015995 -0.127453,0.2099573 -0.175747,0.3189123 0.05053,0.3019424 0.113276,0.6756854 0.107414,0.9233894 0.204363,0.055022 0.667445,0.1041871 0.795159,0.1109481 0.162292,0.00859 0.13977,-0.2367986 0.42825,-0.70484 0.115426,-0.1872696 0.189823,-0.3707596 0.348606,-0.3046534 0.116437,0.048475 0.105009,0.1690245 -0.06585,0.63254 -0.122493,0.3323145 -0.16974,0.5300517 -0.143473,0.6004636 0.01688,0.045228 0.22074,0.123536 0.436264,0.2183634 0.385156,0.169464 0.47929,0.1611057 0.602954,0.068106 0.08578,-0.064513 0.243115,-0.3133603 0.291232,-0.4933159 z m -5.434259,6.4177949 c -0.309102,-1.020407 -0.36809,-1.254008 -0.432932,-1.714482 -0.06475,-0.459856 -0.06859,-1.017599 -0.0094,-1.374047 0.08723,-0.525661 0.54828,-1.8894864 0.763216,-2.2576681 0.04917,-0.084216 0.08575,-0.1285943 0.03871,-0.1376079 -0.2671,0.062551 -0.505409,0.1730302 -0.739229,0.3344836 -0.6558821,0.3023012 -1.0684236,0.6600954 -1.4394147,1.2483944 -0.37608,0.596368 -0.535145,0.9961 -0.549778,1.381593 -0.020149,0.530744 0.1865622,1.1785 0.5716764,1.791438 0.4822927,0.767606 0.7960522,1.0603 1.7017243,1.587484 0.447336,0.260389 0.403931,0.242624 0.393056,0.160874 -0.005,-0.03731 -0.138881,-0.496526 -0.297592,-1.020462 z M 12.452129,7.0696322 C 12.278974,6.5430252 12.054453,6.1161284 11.680438,5.9446458 11.522409,5.872194 11.481877,5.8621986 11.321282,5.8560976 10.629767,5.8437206 10.094549,6.1661815 9.9611449,6.3954791 9.4900949,7.0681235 9.4683269,7.9228027 9.6205969,8.6823035 l 0.06424,0.190264 c 0.174586,-0.069345 0.6339441,-0.3510739 1.2402261,-0.4631526 1.95e-4,-0.024807 -0.01172,-0.2105203 -0.02651,-0.3710249 -0.03551,-0.3851112 -0.02172,-0.640207 0.04061,-0.75087 0.05874,-0.1042909 0.113256,-0.1271309 0.199002,-0.083374 0.09938,0.050715 0.158753,0.257712 0.206109,0.7185316 0.0224,0.2179844 0.04676,0.399416 0.05413,0.4031803 0.03268,0.016673 0.631112,-0.2010204 1.169006,-0.1958897 -0.0094,-0.3710459 -0.0232,-0.7728377 -0.115283,-1.0603367 z"
       id="path3290-7"
       sodipodi:nodetypes="sssscsscsssccccscscssssssccssssssssscsssssssssssssssssssssccsssssssssssssccsssssssccccccsssssscc" />
    <g
       id="g11344"
       transform="matrix(0.22181577,0,0,0.22181577,-77.997487,-42.54404)"
       style="display:inline">
      <g
         id="g11334"
         transform="matrix(0.69591158,0,0,0.69591158,33.233108,44.43254)">
        <ellipse
           style="fill:#a7d6d2;fill-opacity:1;stroke:#000000;stroke-width:7.73332;stroke-linecap:round;stroke-linejoin:round;stroke-miterlimit:4;stroke-dasharray:none;stroke-opacity:1"
           id="ellipse11326"
           cx="158.48288"
           cy="68.536613"
           rx="32.35236"
           ry="37.948154"
           transform="matrix(0.97590417,0.21819955,-0.30573706,0.95211599,0,0)" />
        <ellipse
           style="fill:#a7d6d2;fill-opacity:1;stroke:#000000;stroke-width:7.73332;stroke-linecap:round;stroke-linejoin:round;stroke-miterlimit:4;stroke-dasharray:none;stroke-opacity:1"
           id="ellipse11328"
           cx="-51.270771"
           cy="115.63432"
           rx="32.35236"
           ry="37.948154"
           transform="matrix(-0.97590417,0.21819955,0.30573706,0.95211599,0,0)" />
        <path
           style="fill:none;stroke:#000000;stroke-width:5.55575;stroke-linecap:round;stroke-linejoin:miter;stroke-miterlimit:4;stroke-dasharray:none;stroke-opacity:1"
           d="M 132.31742,103.38086 137.8863,86.526306"
           id="path11330" />
        <path
           style="fill:none;stroke:#000000;stroke-width:5.55575;stroke-linecap:round;stroke-linejoin:miter;stroke-miterlimit:4;stroke-dasharray:none;stroke-opacity:1"
           d="M 85.545632,102.24658 78.489962,85.860575"
           id="path11332" />
      </g>
      <path
         style="fill:#000000;fill-opacity:1;stroke:#000000;stroke-width:5.56729;stroke-linecap:round;stroke-linejoin:round;stroke-miterlimit:4;stroke-dasharray:none;stroke-opacity:1"
         d="m 73.216641,136.26694 -30.112944,16.95957 30.112944,16.58859 c 0,0 -4.624587,-24.1144 0,-33.54816 z"
         id="path11336"
         sodipodi:nodetypes="cccc" />
      <ellipse
         style="fill:#f9d349;fill-opacity:1;stroke:#000000;stroke-width:5.56729;stroke-miterlimit:4;stroke-dasharray:none;stroke-opacity:1"
         id="ellipse11338"
         cx="110.81669"
         cy="151.72354"
         rx="46.825901"
         ry="35.642353" />
      <path
         id="path11340"
         style="fill:#000000;fill-opacity:1;stroke-width:0.162599"
         d="m 109.16682,116.4943 a 51.767048,35.642352 0 0 0 -15.987968,1.76566 c -4.970606,14.80316 -7.926226,37.29716 0.291084,67.82053 a 51.767048,35.642352 0 0 0 15.696884,1.69849 51.767048,35.642352 0 0 0 19.47363,-2.64143 c -6.61538,-32.02579 -3.25587,-53.98323 0.18893,-65.97068 a 51.767048,35.642352 0 0 0 -19.66256,-2.67257 z" />
      <ellipse
         style="fill:#000000;fill-opacity:1;stroke:#000000;stroke-width:4.08868;stroke-miterlimit:4;stroke-dasharray:none;stroke-opacity:1"
         id="ellipse11342"
         cx="142.22668"
         cy="142.32408"
         rx="2.9156692"
         ry="4.515132" />
    </g>
    <circle
       style="display:inline;opacity:0;fill:#0000ff;stroke-width:0.264583"
       id="path9554"
       cx="18.573412"
       cy="100.74641"
       r="73.694519"
       transform="rotate(4.6730381)" />
    <ellipse
       style="display:inline;opacity:0;fill:#ff0000;stroke-width:0.264583"
       id="path11059"
       cx="-57.397728"
       cy="192.19333"
       rx="102.20947"
       ry="108.87531" />
    <ellipse
       style="display:inline;opacity:0;fill:#ff0000;stroke-width:0.264583"
       id="path11163"
       cx="-57.365517"
       cy="15.828806"
       rx="24.626558"
       ry="25.182045" />
    <path
       id="path14752"
       style="display:inline;opacity:0;fill:#ff00ff;stroke-width:0.337852"
       d="M 76.876998,123.40801 A 76.84227,76.84227 0 0 0 0.03472715,46.565728 76.84227,76.84227 0 0 0 -76.807545,123.40801 76.84227,76.84227 0 0 0 0.03472715,200.25028 76.84227,76.84227 0 0 0 76.876998,123.40801 Z" />
  </g>
  <g
     inkscape:groupmode="layer"
     id="layer2"
     inkscape:label="bee name 1line"
     style="display:none">
    <g
       id="g2334"
       transform="matrix(0.59861697,0,0,0.59861697,28.97582,13.173358)"
       style="display:inline">
      <ellipse
         style="fill:#a8d6cd;fill-opacity:1;stroke-width:0.558223;stroke-linecap:round;stroke-dashoffset:2.38337;paint-order:markers stroke fill"
         id="path10558"
         cx="-23.409525"
         cy="-12.433227"
         rx="3.211328"
         ry="3.6757355" />
      <ellipse
         style="fill:#a8d6cd;fill-opacity:1;stroke-width:0.558223;stroke-linecap:round;stroke-dashoffset:2.38337;paint-order:markers stroke fill"
         id="path10558-9"
         cx="-30.115309"
         cy="-12.544897"
         rx="3.9470942"
         ry="3.6757355" />
      <ellipse
         style="fill:url(#linearGradient7562);fill-opacity:1;stroke-width:0.558223;stroke-linecap:round;stroke-dashoffset:2.38337;paint-order:markers stroke fill"
         id="path8539"
         cx="27.060118"
         cy="3.5222771"
         rx="9.362483"
         ry="7.5458832"
         transform="scale(-1)" />
      <path
         style="fill:#000000;fill-opacity:1;stroke-width:0.0396045"
         d="m -17.932728,0.49683879 c -0.660039,0.84215601 -1.61854,1.84504301 -2.193845,2.29544101 -0.348721,0.27301 -0.861257,0.53554 -2.027341,1.038441 -1.937817,0.835728 -3.720329,0.877949 -5.193118,0.900776 -1.56838,0.02431 -3.175624,0.02034 -4.846186,-0.831107 -1.029683,-0.524822 -1.612679,-0.909647 -2.441989,-1.611952 -1.001933,-0.848489 -1.862782,-1.94628301 -2.138944,-2.72768101 l -0.139664,-0.363592 -0.87433,-0.39234299 c -0.878083,-0.394027 -3.067828,-2.108794 -3.020638,-2.519844 0.04789,-0.417156 0.526136,-0.780353 2.101869,-1.696999 0.824706,-0.479754 1.202421,-0.634216 1.643934,-0.882422 0.448448,-1.1451556 1.682216,-2.4338373 2.69057,-3.1826193 l 0.327606,-0.2397535 c -0.576023,-1.477083 -0.278618,-4.334179 0.600607,-5.601966 0.690963,-0.918219 1.786679,-1.634885 2.910579,-1.718019 0.677799,-0.05014 1.883312,0.260177 2.425743,0.541095 0.589131,0.305112 1.193688,0.941492 1.380903,1.453613 l 0.03882,0.106188 0.156265,-0.175048 c 0.761317,-0.85283 1.343664,-1.260449 2.084998,-1.45942 0.712294,-0.191176 1.429771,-0.237018 2.39236,0.07205 0.638378,0.204971 1.383896,0.694154 1.830225,1.262841 0.718093,0.914953 0.903264,1.896796 0.678276,3.3399 -0.103127,0.661461 -0.164777,1.014201 -0.45298,1.628272 l -0.282604,0.602141 c 0.35061,0.3103384 0.289004,0.3062024 0.580961,0.558876 1.504533,1.3019272 1.940697,1.7525022 2.27948,2.3547918 0.754853,1.341987 0.937686,3.143194 0.530668,5.227969 -0.08884,0.455066 -0.09001,0.457911 -0.44353,1.08249799 -0.214451,0.378883 -0.450927,0.749321 -0.598698,0.937868 z m -0.968829,-1.54149499 c 0.386087,-0.988507 0.53751,-2.066035 0.437883,-3.115929 -0.04535,-0.477831 -0.132053,-0.793646 -0.350673,-1.277186 -0.55453,-1.226516 -1.394253,-2.2578236 -2.644222,-3.2475206 -0.467772,-0.3703694 -0.636371,-0.4829036 -1.010496,-0.6744761 -0.505332,-0.258851 -0.788751,-0.3431673 -1.413934,-0.42106 -0.628621,-0.078323 -0.522284,-0.1720778 -0.975602,0.8601596 -0.864124,1.9676681 -1.222045,3.6076741 -1.157516,5.3037511 0.04934,1.296886 0.394802,3.35029299 0.752016,4.46995199 0.378427,1.18615701 0.559105,1.46814001 1.097453,1.71277601 0.258133,0.117301 0.309449,0.126607 0.577263,0.104688 0.890248,-0.07286 2.076193,-0.565991 2.873342,-1.194766 0.268493,-0.211782 0.638752,-0.58216501 0.873064,-0.87335801 0.245993,-0.305712 0.787683,-1.253401 0.941425,-1.64702999 z m -2.38858,-3.148086 c -0.208559,0.217503 -0.545722,0.350842 -0.802251,0.317265 -0.372111,-0.0487 -0.724098,-0.385565 -0.85235,-0.815716 -0.278075,-0.93265 0.319021,-1.943563 1.115692,-1.888936 0.939094,0.0644 1.287286,1.606903 0.538907,2.387386 z m 0.383742,-7.3279588 c 0.139166,-0.520459 0.232698,-1.126641 0.185687,-1.689597 -0.03069,-0.367542 -0.300115,-0.893618 -0.48944,-1.186474 -0.331077,-0.512121 -1.359757,-1.063116 -1.818358,-1.131989 -0.979939,-0.147166 -2.199627,0.511641 -2.899268,1.566024 -0.127894,0.192741 -0.241786,0.398303 -0.333403,0.604998 0.09587,0.572805 0.214893,1.281821 0.203773,1.751732 0.387688,0.104381 1.266187,0.19765 1.50847,0.210476 0.307878,0.0163 0.265153,-0.449223 0.81242,-1.337129 0.218969,-0.355263 0.360105,-0.703356 0.661329,-0.577948 0.220886,0.09196 0.199209,0.320651 -0.124916,1.199971 -0.232379,0.630423 -0.32201,1.005544 -0.272179,1.13912 0.03201,0.0858 0.418759,0.234356 0.827623,0.41425 0.730667,0.321485 0.909245,0.305628 1.143844,0.129201 0.162728,-0.122378 0.461205,-0.594465 0.552487,-0.935853 z M -31.215551,0.65428679 c -0.586388,-1.93577999 -0.698291,-2.37893699 -0.821301,-3.25248699 -0.122845,-0.872378 -0.130109,-1.930454 -0.0179,-2.60666 0.165482,-0.997213 1.040122,-3.5844823 1.447871,-4.282948 0.09327,-0.1597707 0.162673,-0.2439511 0.07343,-0.2610522 -0.506707,0.1186633 -0.958794,0.3282501 -1.402367,0.6345381 -1.244253,0.5734871 -2.02687,1.2522465 -2.730665,2.3682891 -0.71345,1.13135 -1.015207,1.889669 -1.042966,2.620974 -0.03822,1.006859 0.353921,2.235694 1.084509,3.39847899 0.914941,1.456199 1.510164,2.01146201 3.228284,3.01156401 0.848627,0.493975 0.766284,0.460274 0.745654,0.30519 -0.0094,-0.07079 -0.263467,-0.941944 -0.564553,-1.93588701 z m 3.560346,-14.24065879 c -0.328488,-0.999009 -0.75442,-1.808861 -1.463952,-2.134175 -0.299791,-0.137446 -0.376683,-0.156408 -0.681342,-0.167982 -1.311851,-0.02348 -2.327196,0.58825 -2.580271,1.023243 -0.893615,1.276052 -0.93491,2.897436 -0.646043,4.338261 l 0.121875,0.360943 c 0.331191,-0.131546 1.202623,-0.666011 2.352781,-0.878632 3.71e-4,-0.04706 -0.02222,-0.399371 -0.0503,-0.703859 -0.06737,-0.730582 -0.0412,-1.214516 0.07704,-1.424451 0.11143,-0.197847 0.214855,-0.241176 0.377519,-0.158165 0.188525,0.09621 0.301166,0.488897 0.391003,1.363103 0.0425,0.413531 0.08871,0.757719 0.102708,0.76486 0.06198,0.03163 1.197261,-0.381349 2.217682,-0.371616 -0.01786,-0.703899 -0.04401,-1.466125 -0.2187,-2.01153 z"
         id="path3290"
         sodipodi:nodetypes="sssscsscsssccccscscssssssccssssssssscsssssssssssssssssssssccsssssssssssssccsssssssccccccsssssscc" />
    </g>
    <text
       xml:space="preserve"
       id="text12684"
       style="font-style:normal;font-weight:normal;font-size:10.5833px;line-height:1.25;font-family:sans-serif;white-space:pre;display:inline;fill:#000000;fill-opacity:1;stroke:none"
       transform="matrix(-0.14380268,0.12177698,-0.11247709,-0.15569266,26.622476,24.00826)"><textPath
         xlink:href="#path14752"
         id="textPath14834"><tspan
           id="tspan12688"
           style="font-style:normal;font-variant:normal;font-weight:normal;font-stretch:normal;font-size:16.9333px;font-family:'Bakso Sapi';-inkscape-font-specification:'Bakso Sapi, Normal';font-variant-ligatures:normal;font-variant-caps:normal;font-variant-numeric:normal;font-variant-east-asian:normal">Meghan Rennie</tspan></textPath></text>
  </g>
  <g
     inkscape:groupmode="layer"
     id="layer3"
     inkscape:label="bee name 2lines"
     style="display:none">
    <text
       xml:space="preserve"
       id="text12684-7"
       style="font-style:normal;font-weight:normal;font-size:14.111px;line-height:1.25;font-family:sans-serif;white-space:pre;display:inline;fill:#000000;fill-opacity:1;stroke:none"
       transform="matrix(-0.06980918,0.26245819,-0.26124944,-0.09153107,44.202719,11.893886)"><textPath
         xlink:href="#path14752"
         id="textPath14834-3"
         style="font-style:normal;font-variant:normal;font-weight:normal;font-stretch:normal;font-size:14.111px;font-family:'Bakso Sapi';-inkscape-font-specification:'Bakso Sapi, Normal';font-variant-ligatures:normal;font-variant-caps:normal;font-variant-numeric:normal;font-variant-east-asian:normal">Rennie</textPath></text>
    <text
       xml:space="preserve"
       id="text12684-1"
       style="font-style:normal;font-weight:normal;font-size:10.5833px;line-height:1.25;font-family:sans-serif;white-space:pre;display:inline;fill:#000000;fill-opacity:1;stroke:none"
       transform="matrix(-0.08843419,0.2083266,-0.20477685,-0.10621287,37.526652,13.528938)"><textPath
         xlink:href="#path14752"
         id="textPath14834-0"><tspan
           id="tspan12688-9"
           style="font-style:normal;font-variant:normal;font-weight:normal;font-stretch:normal;font-size:16.9333px;font-family:'Bakso Sapi';-inkscape-font-specification:'Bakso Sapi, Normal';font-variant-ligatures:normal;font-variant-caps:normal;font-variant-numeric:normal;font-variant-east-asian:normal">Meghan</tspan></textPath></text>
    <ellipse
       style="display:inline;fill:#a8d6cd;fill-opacity:1;stroke-width:0.343356;stroke-linecap:round;stroke-dashoffset:2.38337;paint-order:markers stroke fill"
       id="path10558-0-6-4"
       cx="15.582812"
       cy="3.7214034"
       rx="1.9752343"
       ry="2.2608833" />
    <ellipse
       style="display:inline;fill:#a8d6cd;fill-opacity:1;stroke-width:0.343356;stroke-linecap:round;stroke-dashoffset:2.38337;paint-order:markers stroke fill"
       id="path10558-9-4-9-8"
       cx="11.4582"
       cy="3.6527147"
       rx="2.4277914"
       ry="2.2608833" />
    <ellipse
       style="display:inline;fill:url(#linearGradient1297);fill-opacity:1;stroke-width:0.343356;stroke-linecap:round;stroke-dashoffset:2.38337;paint-order:markers stroke fill"
       id="path8539-4-6-5"
       cx="-13.337393"
       cy="-9.202383"
       rx="5.7587061"
       ry="4.641346"
       transform="scale(-1)" />
    <path
       style="display:inline;fill:#000000;fill-opacity:1;stroke-width:0.02436"
       d="m 18.951504,11.674467 c -0.405979,0.517994 -0.995539,1.134855 -1.349399,1.411886 -0.214491,0.167927 -0.529745,0.329404 -1.246981,0.638726 -1.191921,0.514046 -2.288314,0.540012 -3.194201,0.554055 -0.964685,0.01494 -1.953274,0.0126 -2.980809,-0.5112 C 9.5467741,13.445125 9.1881818,13.208424 8.6780868,12.77645 8.0618155,12.254558 7.5323218,11.579324 7.3624585,11.0987 L 7.2765577,10.875059 6.7387718,10.633735 C 6.1986783,10.391376 4.8518024,9.3366529 4.8808284,9.0838236 4.9102852,8.8272372 5.2044454,8.6038418 6.1736534,8.0400278 6.6809161,7.7449392 6.9132422,7.6499321 7.1848096,7.4972648 7.4606415,6.7928992 8.2195113,6.000253 8.8397335,5.5396897 L 9.0412342,5.3922212 C 8.6869325,4.4836922 8.8698611,2.7263402 9.4106575,1.9465458 9.8356578,1.3817647 10.509615,0.94095527 11.200907,0.88982107 c 0.416904,-0.0308413 1.158394,0.16003033 1.492036,0.33281823 0.362361,0.1876695 0.734214,0.579096 0.849368,0.894093 l 0.02387,0.065315 0.0961,-0.1076676 c 0.468273,-0.5245613 0.826465,-0.7752812 1.282448,-0.897665 0.438121,-0.1175889 0.879428,-0.1457853 1.4715,0.044319 0.392656,0.1260719 0.851212,0.4269625 1.125742,0.7767523 0.441688,0.5627723 0.555584,1.1666875 0.417196,2.0543166 -0.06343,0.4068535 -0.101356,0.6238181 -0.27862,1.0015227 l -0.173824,0.3703669 c 0.215653,0.1908845 0.177761,0.1883405 0.35734,0.3437554 0.925412,0.8007935 1.193688,1.0779346 1.402069,1.4483922 0.464297,0.8254337 0.576753,1.9333259 0.326405,3.2156372 -0.05466,0.279903 -0.05535,0.281653 -0.272809,0.665827 -0.131902,0.233044 -0.277358,0.460897 -0.368248,0.576868 z M 18.355592,10.72632 C 18.593068,10.118307 18.686205,9.4555376 18.624927,8.8097652 18.597027,8.5158599 18.543697,8.3216068 18.409233,8.0241893 18.068152,7.2697801 17.551651,6.6354402 16.782817,6.0266942 16.495099,5.7988865 16.391396,5.7296688 16.161279,5.6118354 15.850456,5.4526204 15.67613,5.4007593 15.291592,5.3528484 c -0.386655,-0.048174 -0.321248,-0.1058411 -0.600078,0.52907 -0.531508,1.2102791 -0.751659,2.2190194 -0.711968,3.2622472 0.03036,0.7976924 0.242836,2.0607084 0.462552,2.7493904 0.232765,0.729586 0.343896,0.903029 0.675025,1.0535 0.158773,0.07215 0.190337,0.07788 0.355066,0.06438 0.547577,-0.04481 1.277029,-0.348132 1.767344,-0.734879 0.165145,-0.130263 0.392886,-0.358084 0.537006,-0.537191 0.151306,-0.188037 0.484492,-0.770945 0.579055,-1.013059 z M 16.886416,8.7899875 c -0.128286,0.1337784 -0.335665,0.2157941 -0.49345,0.1951416 -0.22888,-0.029958 -0.445381,-0.2371531 -0.524267,-0.501732 -0.171038,-0.5736574 0.196224,-1.1954531 0.686244,-1.161853 0.577621,0.039613 0.791788,0.9883791 0.331473,1.4684404 z M 17.122451,4.2826817 C 17.208047,3.9625561 17.265575,3.5897036 17.236662,3.2434389 17.217786,3.01737 17.052067,2.6937894 16.935616,2.5136584 16.731976,2.1986617 16.099255,1.8597537 15.817175,1.8173911 c -0.602743,-0.09052 -1.352954,0.3147019 -1.783291,0.9632351 -0.07868,0.1185521 -0.148712,0.2449896 -0.205068,0.3721242 0.05895,0.3523228 0.132187,0.7884265 0.125332,1.077461 0.238464,0.064202 0.778812,0.121573 0.927836,0.1294597 0.189374,0.010028 0.163092,-0.2763094 0.499707,-0.8224455 0.134692,-0.2185162 0.221494,-0.4326226 0.406772,-0.355486 0.135873,0.056563 0.122528,0.197227 -0.07683,0.7380817 -0.14293,0.3877627 -0.198065,0.6184933 -0.167414,0.7006539 0.01969,0.052773 0.257571,0.1441489 0.509057,0.2547982 0.449421,0.19774 0.559261,0.1879867 0.70356,0.079469 0.100092,-0.075274 0.28368,-0.3656453 0.339825,-0.5756274 z m -6.34099,7.4886263 C 10.420783,10.580645 10.351954,10.308067 10.276291,9.7707607 10.200729,9.2341771 10.196272,8.583372 10.265454,8.167449 10.367242,7.55408 10.905217,5.9626947 11.156016,5.5330803 11.213374,5.4348077 11.256087,5.3830299 11.20117,5.3725114 10.889433,5.4454998 10.611363,5.5744124 10.338528,5.762805 9.5731711,6.1155473 9.0917963,6.5330406 8.6589042,7.2194994 8.2200727,7.9153737 8.0344663,8.3818034 8.0173928,8.831616 c -0.023507,0.6193029 0.2176904,1.375138 0.6670625,2.090348 0.562765,0.895683 0.9288776,1.237216 1.9856637,1.852362 0.521977,0.303834 0.471329,0.283107 0.45864,0.187717 -0.0058,-0.04354 -0.162056,-0.579376 -0.347249,-1.190735 z M 12.971368,3.012122 C 12.769323,2.3976484 12.507339,1.899522 12.070918,1.6994269 11.88652,1.614886 11.839226,1.603223 11.651836,1.596104 10.844937,1.5816618 10.220416,1.9579264 10.064753,2.2254837 9.5151061,3.0103617 9.4897067,4.0076478 9.6673836,4.8938752 l 0.074967,0.2220101 c 0.203709,-0.080911 0.7397154,-0.4096524 1.4471584,-0.5404322 2.28e-4,-0.028946 -0.01354,-0.2456463 -0.03094,-0.4329316 -0.04144,-0.4493687 -0.02536,-0.7470285 0.04738,-0.8761559 0.06853,-0.1216922 0.13216,-0.1483428 0.232206,-0.097284 0.115972,0.059177 0.185243,0.3007125 0.2405,0.8384216 0.02615,0.2543563 0.05457,0.4660605 0.06316,0.4704528 0.03813,0.019454 0.736416,-0.2345616 1.36406,-0.2285747 -0.01084,-0.4329567 -0.02708,-0.9017891 -0.134503,-1.2372584 z"
       id="path3290-7-3-3"
       sodipodi:nodetypes="sssscsscsssccccscscssssssccssssssssscsssssssssssssssssssssccsssssssssssssccsssssssccccccsssssscc" />
  </g>
  <g
     inkscape:groupmode="layer"
     id="layer4"
     inkscape:label="bee name 2lines oval"
     style="display:none">
    <ellipse
       style="display:inline;fill:#f6a5c5;fill-opacity:1;stroke:none;stroke-width:0.616916;stroke-linecap:round;stroke-dashoffset:2.38337;paint-order:markers stroke fill"
       id="path1325-4"
       cx="11.849756"
       cy="11.501232"
       rx="8.2732601"
       ry="10.677831" />
    <text
       xml:space="preserve"
       id="text12684-7-1"
       style="font-style:normal;font-weight:normal;font-size:14.111px;line-height:1.25;font-family:sans-serif;white-space:pre;display:inline;fill:#000000;fill-opacity:1;stroke:none"
       transform="matrix(-0.05153304,0.19374626,-0.19285396,-0.06756811,34.857244,11.732994)"><textPath
         xlink:href="#path14752"
         id="textPath14834-3-1"
         style="font-style:normal;font-variant:normal;font-weight:normal;font-stretch:normal;font-size:14.111px;font-family:'Bakso Sapi';-inkscape-font-specification:'Bakso Sapi, Normal';font-variant-ligatures:normal;font-variant-caps:normal;font-variant-numeric:normal;font-variant-east-asian:normal">Rennie</textPath></text>
    <text
       xml:space="preserve"
       id="text12684-1-6"
       style="font-style:normal;font-weight:normal;font-size:10.5833px;line-height:1.25;font-family:sans-serif;white-space:pre;display:inline;fill:#000000;fill-opacity:1;stroke:none"
       transform="matrix(-0.065282,0.1537864,-0.15116598,-0.07840619,29.928981,12.939988)"><textPath
         xlink:href="#path14752"
         id="textPath14834-0-1"><tspan
           id="tspan12688-9-7"
           style="font-style:normal;font-variant:normal;font-weight:normal;font-stretch:normal;font-size:16.9333px;font-family:'Bakso Sapi';-inkscape-font-specification:'Bakso Sapi, Normal';font-variant-ligatures:normal;font-variant-caps:normal;font-variant-numeric:normal;font-variant-east-asian:normal">Meghan</tspan></textPath></text>
    <ellipse
       style="display:inline;fill:#a8d6cd;fill-opacity:1;stroke-width:0.253465;stroke-linecap:round;stroke-dashoffset:2.38337;paint-order:markers stroke fill"
       id="path10558-0-6-4-6"
       cx="13.730071"
       cy="5.7000785"
       rx="1.4581151"
       ry="1.668981" />
    <ellipse
       style="display:inline;fill:#a8d6cd;fill-opacity:1;stroke-width:0.253465;stroke-linecap:round;stroke-dashoffset:2.38337;paint-order:markers stroke fill"
       id="path10558-9-4-9-8-6"
       cx="10.685288"
       cy="5.6493735"
       rx="1.7921921"
       ry="1.668981" />
    <ellipse
       style="display:inline;fill:url(#linearGradient1297-5);fill-opacity:1;stroke-width:0.253465;stroke-linecap:round;stroke-dashoffset:2.38337;paint-order:markers stroke fill"
       id="path8539-4-6-5-2"
       cx="-12.072505"
       cy="-9.74613"
       rx="4.2510686"
       ry="3.426235"
       transform="scale(-1)" />
    <path
       style="display:inline;fill:#000000;fill-opacity:1;stroke-width:0.0179825"
       d="m 16.216833,11.57102 c -0.299693,0.382382 -0.734905,0.837748 -0.996124,1.042252 -0.158337,0.123963 -0.391057,0.243165 -0.92052,0.471507 -0.879874,0.379467 -1.68923,0.398636 -2.357955,0.409002 -0.712128,0.01103 -1.441903,0.0093 -2.2004279,-0.377367 -0.467531,-0.238297 -0.732243,-0.413029 -1.108794,-0.731912 -0.454931,-0.38526 -0.845802,-0.883717 -0.971195,-1.238513 l -0.06341,-0.165091 -0.396993,-0.178145 c -0.398696,-0.178909 -1.392958,-0.9575039 -1.371531,-1.1441429 0.02174,-0.189411 0.238894,-0.354321 0.954361,-0.770528 0.374461,-0.217834 0.545964,-0.287968 0.746435,-0.400667 0.203618,-0.519962 0.763815,-1.105092 1.221662,-1.445079 l 0.148748,-0.108861 c -0.261545,-0.670675 -0.126508,-1.96795 0.272707,-2.543593 0.313735,-0.416921 0.811249,-0.742325 1.3215589,-0.780073 0.307758,-0.02277 0.855125,0.118135 1.101419,0.245686 0.267495,0.138538 0.541996,0.427488 0.627003,0.660019 l 0.01762,0.04821 0.07094,-0.07948 c 0.345678,-0.38723 0.610095,-0.572311 0.946701,-0.662654 0.32342,-0.0868 0.649193,-0.107619 1.086259,0.03272 0.289859,0.09307 0.628364,0.315183 0.831021,0.573397 0.326054,0.415438 0.410132,0.861247 0.307974,1.516493 -0.04682,0.300339 -0.07482,0.460502 -0.205677,0.739323 l -0.128317,0.273405 c 0.159195,0.14091 0.131223,0.139032 0.263788,0.253759 0.683138,0.591145 0.881179,0.79573 1.035006,1.069201 0.342743,0.609334 0.425758,1.427179 0.240951,2.3737789 -0.04035,0.206624 -0.04086,0.207916 -0.201387,0.491512 -0.09737,0.172033 -0.204745,0.340234 -0.27184,0.425843 z m -0.439901,-0.699921 c 0.175304,-0.448835 0.244058,-0.9380899 0.198823,-1.4147979 -0.0206,-0.216961 -0.05996,-0.360358 -0.159225,-0.579911 -0.251786,-0.556904 -0.633066,-1.025173 -1.200618,-1.474548 -0.212393,-0.168168 -0.288947,-0.219264 -0.458819,-0.306248 -0.229449,-0.117533 -0.358136,-0.155817 -0.642002,-0.191184 -0.285428,-0.03556 -0.237144,-0.07813 -0.442976,0.390558 -0.392359,0.893427 -0.554874,1.638077 -0.525574,2.408187 0.02241,0.5888549 0.179261,1.5212119 0.341455,2.0295959 0.171827,0.538579 0.253864,0.666615 0.498303,0.777692 0.117206,0.05326 0.140506,0.05749 0.262109,0.04753 0.40422,-0.03308 0.942701,-0.256991 1.304651,-0.542487 0.121909,-0.09616 0.290028,-0.264337 0.396417,-0.396553 0.111694,-0.138809 0.357651,-0.569111 0.427457,-0.747839 z M 14.692388,9.4417011 c -0.0947,0.09875 -0.247787,0.159299 -0.364264,0.144053 -0.168959,-0.02211 -0.32878,-0.175066 -0.387013,-0.370378 -0.12626,-0.423473 0.144852,-0.882481 0.506584,-0.857678 0.426399,0.02924 0.584497,0.72962 0.244693,1.084001 z m 0.174241,-3.327287 c 0.06319,-0.236316 0.105654,-0.511555 0.08431,-0.767167 -0.01393,-0.166884 -0.136267,-0.405751 -0.222231,-0.538723 -0.150327,-0.23253 -0.617401,-0.482712 -0.825632,-0.513984 -0.444944,-0.06682 -0.998749,0.232313 -1.316423,0.711059 -0.05808,0.08751 -0.109779,0.180851 -0.151381,0.274701 0.04352,0.260085 0.09758,0.582016 0.09252,0.795381 0.176034,0.04739 0.574918,0.08975 0.684928,0.09557 0.139795,0.0074 0.120394,-0.203972 0.368882,-0.607128 0.09943,-0.161309 0.163507,-0.319362 0.300279,-0.26242 0.100301,0.04176 0.09045,0.145593 -0.05672,0.544851 -0.10551,0.286246 -0.146211,0.456571 -0.123584,0.517222 0.01453,0.03896 0.190138,0.10641 0.375785,0.188091 0.331761,0.145972 0.412846,0.138772 0.519366,0.05866 0.07389,-0.05557 0.209413,-0.269918 0.250859,-0.424927 z m -4.68091,5.5280939 C 9.9194681,10.763562 9.8686581,10.562345 9.8128041,10.165706 c -0.05578,-0.3961049 -0.05907,-0.8765279 -0.008,-1.1835619 0.07514,-0.452788 0.4722719,-1.627547 0.6574109,-1.944687 0.04234,-0.07254 0.07387,-0.110767 0.03333,-0.118532 -0.230121,0.05388 -0.435391,0.149043 -0.6367979,0.288114 -0.564985,0.260394 -0.920336,0.568587 -1.239896,1.07533 -0.323945,0.513693 -0.460959,0.858011 -0.473563,1.190062 -0.01735,0.457169 0.160699,1.0151249 0.492425,1.5430919 0.415432,0.661192 0.685696,0.913311 1.4658139,1.367411 0.385323,0.22429 0.347934,0.208989 0.338567,0.138572 -0.0043,-0.03214 -0.119629,-0.427694 -0.256338,-0.878998 z m 1.616587,-6.4660189 c -0.14915,-0.453604 -0.342546,-0.82132 -0.664712,-0.96903 -0.136122,-0.06241 -0.171034,-0.07102 -0.309365,-0.07627 -0.595651,-0.01066 -1.0566719,0.267097 -1.1715819,0.464608 -0.405749,0.579395 -0.424499,1.315591 -0.293338,1.969802 l 0.05534,0.163888 c 0.150378,-0.05973 0.546057,-0.302405 1.0682909,-0.398946 1.68e-4,-0.02137 -0.01,-0.181336 -0.02284,-0.31959 -0.03059,-0.331723 -0.01872,-0.551455 0.03498,-0.646777 0.05059,-0.08983 0.09756,-0.109506 0.171414,-0.07181 0.08561,0.04368 0.136746,0.221986 0.177536,0.618922 0.0193,0.187765 0.04028,0.344045 0.04663,0.347287 0.02815,0.01436 0.543621,-0.173153 1.006947,-0.168733 -0.008,-0.319608 -0.01999,-0.6657 -0.09929,-0.913343 z"
       id="path3290-7-3-3-1"
       sodipodi:nodetypes="sssscsscsssccccscscssssssccssssssssscsssssssssssssssssssssccsssssssssssssccsssssssccccccsssssscc" />
  </g>
  <g
     inkscape:groupmode="layer"
     id="layer5"
     inkscape:label="goops"
     style="display:none">
    <ellipse
       style="display:inline;fill:#9ec04d;fill-opacity:1;stroke:none;stroke-width:0.616916;stroke-linecap:round;stroke-dashoffset:2.38337;paint-order:markers stroke fill;filter:url(#filter21641-4-2)"
       id="path1325-4-1"
       cx="46.009861"
       cy="11.333173"
       rx="8.2732601"
       ry="10.677831" />
    <ellipse
       style="display:inline;fill:#9ec04d;fill-opacity:1;stroke:none;stroke-width:0.616916;stroke-linecap:round;stroke-dashoffset:2.38337;paint-order:markers stroke fill;filter:url(#filter21641-9-1)"
       id="path1325-4-6"
       cx="17.133429"
       cy="13.188088"
       rx="8.2732601"
       ry="10.677831" />
    <ellipse
       style="display:inline;fill:#9ec04d;fill-opacity:1;stroke:none;stroke-width:0.616916;stroke-linecap:round;stroke-dashoffset:2.38337;paint-order:markers stroke fill;filter:url(#filter22933-3)"
       id="path1325-4-6-0"
       cx="-8.2981901"
       cy="12.862344"
       rx="8.2732601"
       ry="10.677831" />
  </g>
  <g
     inkscape:groupmode="layer"
     id="layer1"
     inkscape:label="bee basic"
     style="display:inline">
    <g
       id="g2156"
       transform="translate(22.876242,-156.97845)"
       style="display:inline">
      <ellipse
         style="display:inline;fill:#a8d6cd;fill-opacity:1;stroke-width:0.558223;stroke-linecap:round;stroke-dashoffset:2.38337;paint-order:markers stroke fill"
         id="path10558-0-6"
         cx="-5.1389995"
         cy="161.95221"
         rx="3.211328"
         ry="3.6757355" />
      <ellipse
         style="display:inline;fill:#a8d6cd;fill-opacity:1;stroke-width:0.558223;stroke-linecap:round;stroke-dashoffset:2.38337;paint-order:markers stroke fill"
         id="path10558-9-4-9"
         cx="-11.844784"
         cy="161.84053"
         rx="3.9470942"
         ry="3.6757355" />
      <ellipse
         style="display:inline;fill:#f9d349;fill-opacity:1;stroke-width:0.558223;stroke-linecap:round;stroke-dashoffset:2.38337;paint-order:markers stroke fill"
         id="path8539-4-6"
         cx="8.7895927"
         cy="-170.86316"
         rx="9.362483"
         ry="7.5458832"
         transform="scale(-1)" />
      <path
         style="display:inline;fill:#000000;fill-opacity:1;stroke-width:0.0396045"
         d="m 0.337796,174.88227 c -0.660039,0.84215 -1.61854,1.84504 -2.193845,2.29544 -0.348721,0.27301 -0.861257,0.53554 -2.027341,1.03844 -1.937817,0.83573 -3.7203287,0.87795 -5.1931177,0.90078 -1.5683803,0.0243 -3.1756243,0.0203 -4.8461863,-0.83111 -1.029683,-0.52482 -1.612679,-0.90965 -2.441989,-1.61195 -1.001933,-0.84849 -1.862782,-1.94629 -2.138944,-2.72768 l -0.139664,-0.3636 -0.87433,-0.39234 c -0.878083,-0.39403 -3.067828,-2.10879 -3.020638,-2.51984 0.04789,-0.41716 0.526136,-0.78036 2.101869,-1.697 0.824706,-0.47976 1.202421,-0.63422 1.643934,-0.88242 0.448448,-1.14516 1.682216,-2.43384 2.69057,-3.18262 l 0.327606,-0.23976 c -0.576023,-1.47708 -0.278618,-4.33418 0.600607,-5.60196 0.690963,-0.91822 1.786679,-1.63489 2.910579,-1.71802 0.677799,-0.0501 1.883312,0.26018 2.4257433,0.54109 0.589131,0.30512 1.193688,0.9415 1.380903,1.45362 l 0.03882,0.10618 0.156265,-0.17504 c 0.761317,-0.85283 1.343664,-1.26045 2.0849977,-1.45942 0.712294,-0.19118 1.429771,-0.23702 2.39236,0.0721 0.638378,0.20497 1.383896,0.69415 1.830225,1.26284 0.718093,0.91495 0.903264,1.89679 0.678276,3.3399 -0.103127,0.66146 -0.164777,1.0142 -0.45298,1.62827 l -0.282604,0.60214 c 0.35061,0.31034 0.289004,0.3062 0.580961,0.55888 1.504533,1.30192 1.940697,1.7525 2.27948,2.35479 0.754853,1.34199 0.937686,3.14319 0.530668,5.22797 -0.08884,0.45506 -0.09001,0.45791 -0.44353,1.0825 -0.214451,0.37888 -0.450927,0.74932 -0.598698,0.93786 z m -0.968829,-1.5415 c 0.386087,-0.9885 0.53751,-2.06603 0.437883,-3.11593 -0.04535,-0.47783 -0.132053,-0.79364 -0.350673,-1.27718 -0.55453,-1.22652 -1.394253,-2.25783 -2.644222,-3.24752 -0.467772,-0.37037 -0.636371,-0.48291 -1.010496,-0.67448 -0.505332,-0.25885 -0.788751,-0.34317 -1.413934,-0.42106 -0.628621,-0.0783 -0.522284,-0.17208 -0.9756017,0.86016 -0.864124,1.96767 -1.222045,3.60768 -1.157516,5.30375 0.04934,1.29689 0.394802,3.3503 0.752016,4.46995 0.378427,1.18616 0.5591047,1.46814 1.0974527,1.71278 0.258133,0.1173 0.309449,0.12661 0.577263,0.10469 0.890248,-0.0729 2.076193,-0.56599 2.873342,-1.19477 0.268493,-0.21178 0.638752,-0.58216 0.873064,-0.87336 0.245993,-0.30571 0.787683,-1.2534 0.941425,-1.64703 z m -2.38858,-3.14808 c -0.208559,0.2175 -0.545722,0.35084 -0.802251,0.31726 -0.372111,-0.0487 -0.724098,-0.38556 -0.85235,-0.81571 -0.278075,-0.93265 0.319021,-1.94357 1.115692,-1.88894 0.939094,0.0644 1.287286,1.6069 0.538907,2.38739 z m 0.383742,-7.32796 c 0.139166,-0.52046 0.232698,-1.12664 0.185687,-1.6896 -0.03069,-0.36754 -0.300115,-0.89362 -0.48944,-1.18647 -0.331077,-0.51212 -1.359757,-1.06312 -1.818358,-1.13199 -0.979939,-0.14717 -2.1996267,0.51164 -2.8992677,1.56602 -0.127894,0.19274 -0.241786,0.39831 -0.333403,0.605 0.09587,0.57281 0.214893,1.28182 0.203773,1.75173 0.387688,0.10438 1.266187,0.19765 1.5084697,0.21048 0.307878,0.0163 0.265153,-0.44922 0.81242,-1.33713 0.218969,-0.35526 0.360105,-0.70336 0.661329,-0.57795 0.220886,0.092 0.199209,0.32065 -0.124916,1.19997 -0.232379,0.63043 -0.32201,1.00555 -0.272179,1.13912 0.03201,0.0858 0.418759,0.23436 0.827623,0.41425 0.730667,0.32149 0.909245,0.30563 1.143844,0.1292 0.162728,-0.12237 0.461205,-0.59446 0.552487,-0.93585 z m -10.309156,12.17499 c -0.586388,-1.93578 -0.698291,-2.37894 -0.821301,-3.25249 -0.122845,-0.87238 -0.130109,-1.93045 -0.0179,-2.60666 0.165482,-0.99721 1.040122,-3.58448 1.447871,-4.28295 0.09327,-0.15977 0.162673,-0.24395 0.07343,-0.26105 -0.506707,0.11866 -0.958794,0.32825 -1.402367,0.63454 -1.244253,0.57348 -2.02687,1.25224 -2.730665,2.36829 -0.71345,1.13135 -1.015207,1.88967 -1.042966,2.62097 -0.03822,1.00686 0.353921,2.23569 1.084509,3.39848 0.914941,1.4562 1.510164,2.01146 3.228284,3.01156 0.848627,0.49398 0.766284,0.46028 0.745654,0.30519 -0.0094,-0.0708 -0.263467,-0.94194 -0.564553,-1.93588 z m 3.5603463,-14.24066 c -0.328488,-0.99901 -0.7544203,-1.80886 -1.4639523,-2.13418 -0.299791,-0.13744 -0.376683,-0.15641 -0.681342,-0.16798 -1.311851,-0.0235 -2.327196,0.58825 -2.580271,1.02324 -0.893615,1.27606 -0.93491,2.89744 -0.646043,4.33826 l 0.121875,0.36095 c 0.331191,-0.13155 1.202623,-0.66601 2.352781,-0.87863 3.71e-4,-0.0471 -0.02222,-0.39938 -0.0503,-0.70386 -0.06737,-0.73059 -0.0412,-1.21452 0.07704,-1.42445 0.11143,-0.19785 0.214855,-0.24118 0.377519,-0.15817 0.188525,0.0962 0.301166,0.4889 0.391003,1.3631 0.0425,0.41353 0.08871,0.75772 0.102708,0.76486 0.06198,0.0316 1.197261,-0.38135 2.2176823,-0.37161 -0.01786,-0.7039 -0.04401,-1.46613 -0.2187,-2.01153 z"
         id="path3290-7-3"
         sodipodi:nodetypes="sssscsscsssccccscscssssssccssssssssscsssssssssssssssssssssccsssssssssssssccsssssssccccccsssssscc" />
    </g>
  </g>
</svg>
